<svg width="96" height="96" viewBox="0 0 96 96" fill="none" xmlns="http://www.w3.org/2000/svg">
<path d="M15.0186 25.9165H15.1211C18.9736 25.9124 22.0951 22.7909 22.0992 18.9384V16.6148C22.0951 12.7632 18.9736 9.64167 15.1211 9.63672H15.0186C11.1661 9.64167 8.04466 12.7632 8.04053 16.6148V18.9376C8.04383 22.7901 11.1661 25.9124 15.0186 25.9165ZM11.0009 16.6157C11.0034 14.3978 12.8 12.6004 15.0186 12.598H15.1211C17.3389 12.6004 19.1363 14.3978 19.1388 16.6157V18.9384C19.1363 21.1562 17.3389 22.9536 15.1211 22.9561H15.0186C12.8 22.9536 11.0034 21.1562 11.0009 18.9384V16.6157Z" fill="#1270FF"/>
<path d="M23.2808 28.1433H20.36C19.9834 28.1441 19.6216 28.2879 19.3473 28.5456L15.2817 32.3601L11.3797 28.5621C11.1029 28.2936 10.7329 28.1433 10.3471 28.1433H7.24631C5.21103 28.1433 3.26991 28.9991 1.89708 30.5007C0.524256 32.0032 -0.153896 34.0137 0.0294773 36.0408V53.0285C0.0294773 55.5354 2.06146 57.5674 4.56839 57.569H4.62208C5.23002 57.5624 5.83053 57.4303 6.38561 57.1808L7.16536 87.9C7.23227 89.7899 8.40355 91.4643 10.1563 92.1746C11.9091 92.8842 13.9155 92.4984 15.2792 91.1875C16.6446 92.5001 18.6551 92.8858 20.4096 92.1713C22.164 91.4568 23.3328 89.7767 23.3939 87.8843L24.1729 57.2056C25.5763 57.8044 27.1861 57.6582 28.459 56.8174C29.7319 55.9756 30.4984 54.5524 30.4984 53.026V36.0416C30.681 34.0146 30.0037 32.0041 28.6308 30.5016C27.2572 28.9991 25.3161 28.1433 23.2808 28.1433ZM18.5973 89.5644C17.5821 89.5636 16.7594 88.7409 16.7586 87.7266V56.9545H13.7982V87.7266C13.7974 88.7252 12.9995 89.5405 12.0008 89.5628C11.0022 89.5851 10.1687 88.8062 10.1233 87.8083L9.24194 53.0896H21.3165L20.4344 87.7918C20.4021 88.7822 19.5877 89.5677 18.5973 89.5644ZM27.5446 35.8211C27.5397 35.8706 27.5372 35.921 27.5372 35.9706V53.026C27.5273 53.8933 26.821 54.5921 25.9529 54.5921C25.0856 54.5921 24.3794 53.8933 24.3695 53.026V49.4105L24.3868 48.7233H24.3695V41.6097H21.409V49.3758L21.39 50.1292H9.1676L9.13043 48.649H9.11226V41.6105H6.15185V52.9434C6.17167 53.8322 5.477 54.5723 4.58904 54.6094C4.16695 54.6144 3.76056 54.45 3.45989 54.1535C3.16005 53.8561 2.99072 53.4522 2.99072 53.0293V35.9714C2.99072 35.921 2.98824 35.8714 2.98328 35.8219C2.86103 34.6159 3.25504 33.4149 4.06783 32.5162C4.88062 31.6175 6.03538 31.1045 7.24713 31.1045H9.74663L14.2302 35.4675C14.2368 35.4741 14.2442 35.4783 14.2517 35.4849C14.2963 35.527 14.3425 35.5658 14.3921 35.6022C14.3954 35.6046 14.3987 35.6079 14.4028 35.6104C14.4565 35.6484 14.5127 35.6831 14.5705 35.7137C14.5821 35.7195 14.5936 35.7252 14.606 35.731C14.6597 35.7583 14.7151 35.7814 14.7712 35.8021C14.7762 35.8037 14.7812 35.8062 14.7869 35.8078C14.8472 35.8277 14.9084 35.8442 14.9711 35.8566C14.986 35.8591 15.0009 35.8615 15.0149 35.864C15.0703 35.8739 15.1264 35.8797 15.1826 35.883C15.1909 35.883 15.1991 35.8847 15.2082 35.8855C15.271 35.8871 15.3338 35.8855 15.3965 35.8797C15.4114 35.878 15.4263 35.8764 15.4411 35.8747C15.5031 35.8673 15.565 35.8566 15.6253 35.8417L15.6319 35.8401C15.6972 35.8227 15.7616 35.8012 15.8244 35.7748C15.8294 35.7731 15.8343 35.7723 15.8393 35.7698C15.845 35.7682 15.85 35.7641 15.855 35.7624C15.9764 35.7087 16.0904 35.6402 16.1936 35.5567C16.2068 35.5452 16.2201 35.5344 16.2333 35.5229C16.2465 35.5113 16.263 35.4989 16.2771 35.4857L20.9465 31.1045H23.2824C24.4934 31.1045 25.6481 31.6175 26.4609 32.5162C27.2729 33.4149 27.6669 34.6159 27.5446 35.8211Z" fill="#1270FF"/>
<path d="M80.4923 25.9165H80.5955C84.4472 25.9124 87.5687 22.7909 87.5736 18.9384V16.6148C87.5687 12.7632 84.4472 9.64167 80.5955 9.63672H80.4923C76.6398 9.64167 73.5183 12.7632 73.5142 16.6148V18.9376C73.5183 22.7901 76.6398 25.9124 80.4923 25.9165ZM76.4746 16.6157C76.477 14.3978 78.2744 12.6004 80.4923 12.598H80.5955C82.8133 12.6004 84.6107 14.3978 84.6132 16.6157V18.9384C84.6107 21.1562 82.8133 22.9536 80.5955 22.9561H80.4923C78.2744 22.9536 76.477 21.1562 76.4746 18.9384V16.6157Z" fill="#1270FF"/>
<path d="M88.7549 28.1433H85.8333C85.4566 28.1441 85.0948 28.2879 84.8206 28.5456L80.755 32.3593L76.8529 28.5621C76.5762 28.2936 76.2062 28.1433 75.8204 28.1433H72.7196C70.6843 28.1433 68.7432 28.9991 67.3695 30.5007C65.9967 32.0032 65.3194 34.0137 65.5019 36.0408V53.0285C65.5027 55.5354 67.5347 57.5674 70.0417 57.569H70.0945C70.7025 57.5616 71.303 57.4294 71.8572 57.1808L72.637 87.8992C72.7039 89.7891 73.8752 91.4634 75.628 92.1738C77.3807 92.8842 79.3871 92.4976 80.7509 91.1875C82.1171 92.5001 84.1268 92.885 85.8812 92.1705C87.6356 91.4568 88.8053 89.7767 88.8656 87.8835L89.6445 57.2056C91.0479 57.8036 92.6578 57.6574 93.9307 56.8165C95.2035 55.9748 95.9701 54.5516 95.9701 53.026V36.0416C96.1534 34.0146 95.4753 32.0041 94.1033 30.5024C92.7305 28.9999 90.7893 28.1441 88.7549 28.1433ZM84.0706 89.5644C83.0554 89.5636 82.2327 88.7409 82.2319 87.7266V56.9545H79.2715V87.7266C79.274 88.7269 78.4752 89.5454 77.4749 89.5677C76.4746 89.59 75.6403 88.8078 75.5974 87.8083L74.7152 53.0896H86.7898L85.9076 87.7918C85.8754 88.7822 85.0618 89.5677 84.0706 89.5644ZM93.0179 35.8211C93.013 35.8706 93.0105 35.921 93.0105 35.9706V53.026C93.0105 53.9007 92.3018 54.6094 91.427 54.6094C90.5523 54.6094 89.8436 53.9007 89.8436 53.026V49.4105L89.8609 48.7233H89.8436V41.6097H86.8831V49.375L86.8641 50.1283H74.6401L74.6029 48.6481H74.5847V41.6097H71.6243V52.9434C71.6441 53.8322 70.9494 54.5723 70.0615 54.6094C69.6394 54.6144 69.233 54.45 68.9332 54.1535C68.6325 53.8561 68.4632 53.4514 68.4632 53.0293V35.9714C68.4632 35.921 68.4607 35.8714 68.4557 35.8219C68.3335 34.6159 68.7275 33.4149 69.5403 32.5162C70.3522 31.6175 71.5078 31.1045 72.7196 31.1045H75.2183L79.7043 35.4675C79.7101 35.4733 79.7184 35.4783 79.725 35.484C79.7696 35.527 79.8166 35.5658 79.8662 35.6022C79.8695 35.6046 79.8728 35.6079 79.8761 35.6104C79.9306 35.6484 79.9868 35.6831 80.0455 35.7137C80.057 35.7195 80.0686 35.7252 80.0801 35.731C80.1338 35.7583 80.19 35.7814 80.247 35.8021L80.261 35.807C80.3213 35.8277 80.3833 35.8442 80.4461 35.8566C80.4601 35.8591 80.475 35.8615 80.4898 35.864C80.5452 35.8731 80.6014 35.8797 80.6575 35.883C80.6658 35.883 80.674 35.8847 80.6831 35.8855C80.7459 35.8871 80.8087 35.8855 80.8706 35.8789C80.8863 35.878 80.9012 35.8764 80.9161 35.8739C80.978 35.8673 81.0391 35.8557 81.0994 35.8409C81.1019 35.8409 81.1044 35.8409 81.106 35.8401C81.1721 35.8227 81.2357 35.8012 81.2985 35.7748C81.3035 35.7731 81.3092 35.7723 81.3142 35.7698C81.3192 35.7682 81.3241 35.7641 81.3291 35.7616C81.4505 35.7087 81.5645 35.6402 81.6677 35.5567C81.6809 35.5452 81.6942 35.5353 81.7074 35.5229C81.7206 35.5105 81.7371 35.4989 81.7512 35.4857L86.4206 31.1045H88.7565C89.9683 31.1045 91.123 31.6175 91.935 32.5162C92.7478 33.4149 93.141 34.6159 93.0187 35.8211H93.0179Z" fill="#1270FF"/>
<path d="M47.755 25.9165H47.8582C51.7099 25.9124 54.8322 22.7909 54.8363 18.9384V16.6148C54.8322 12.7632 51.7099 9.64167 47.8582 9.63672H47.755C43.9033 9.64167 40.7818 12.7632 40.7769 16.6148V18.9376C40.781 22.7901 43.9025 25.9124 47.755 25.9165ZM43.7373 16.6157C43.7397 14.3978 45.5371 12.6004 47.755 12.598H47.8582C50.0761 12.6004 51.8735 14.3978 51.8759 16.6157V18.9384C51.8735 21.1562 50.0761 22.9536 47.8582 22.9561H47.755C45.5371 22.9536 43.7397 21.1562 43.7373 18.9384V16.6148V16.6157Z" fill="#A1EB2E"/>
<path d="M56.0186 28.1433H53.0961C52.7195 28.1441 52.3577 28.2879 52.0835 28.5456L48.0178 32.3601L44.1158 28.5621C43.8399 28.2936 43.469 28.1433 43.0841 28.1433H39.9833C37.948 28.1433 36.0069 28.9991 34.634 30.5007C33.2604 32.0032 32.583 34.0138 32.7656 36.0408V53.0285C32.7664 55.5354 34.7984 57.5674 37.3053 57.569H37.3582C37.9661 57.5616 38.5667 57.4294 39.1209 57.1808L39.9015 87.8992C39.9676 89.7899 41.1397 91.4643 42.8925 92.1738C44.6452 92.8842 46.6516 92.4976 48.0154 91.1875C49.3808 92.5001 51.3913 92.885 53.1457 92.1713C54.8993 91.4568 56.0689 89.7767 56.1301 87.8835L56.9082 57.2056C58.3124 57.8036 59.9223 57.6574 61.1952 56.8165C62.468 55.9757 63.2337 54.5516 63.2337 53.026V36.0416C63.4171 34.0146 62.7398 32.0041 61.367 30.5016C59.9941 28.9999 58.053 28.1441 56.0186 28.1433ZM51.3334 89.5644C50.3191 89.5636 49.4964 88.7409 49.4956 87.7266V56.9545H46.5352V87.7266C46.5343 88.7252 45.7364 89.5405 44.7378 89.5628C43.7391 89.5851 42.9057 88.8062 42.8602 87.8083L41.9789 53.0896H54.0527L53.1705 87.7918C53.1391 88.7822 52.3246 89.5677 51.3334 89.5644ZM60.2816 35.8211C60.2758 35.8706 60.2733 35.921 60.2733 35.9706V53.026C60.2733 53.9007 59.5646 54.6094 58.6899 54.6094C57.8151 54.6094 57.1064 53.9007 57.1064 53.026V49.4105L57.1238 48.7233H57.1064V41.6097H54.146V49.375L54.127 50.1283H41.9037L41.8657 48.6481H41.8484V41.6097H38.888V52.9434C38.9078 53.8322 38.2123 54.5723 37.3252 54.6094C36.9031 54.6144 36.4958 54.45 36.196 54.1535C35.8953 53.8561 35.7268 53.4514 35.726 53.0293V35.9714C35.726 35.921 35.7235 35.8714 35.7186 35.8219C35.5963 34.6159 35.9912 33.4149 36.8031 32.5162C37.6159 31.6167 38.7715 31.1037 39.9833 31.1045H42.4828L46.968 35.4675C46.9746 35.4733 46.982 35.4783 46.9895 35.484C47.0332 35.5262 47.0803 35.5658 47.1299 35.6022C47.1332 35.6046 47.1365 35.6079 47.1406 35.6104C47.1943 35.6484 47.2505 35.6831 47.3083 35.7128C47.3199 35.7195 47.3314 35.7252 47.3438 35.731C47.3975 35.7583 47.4529 35.7814 47.509 35.8012C47.514 35.8037 47.5189 35.8062 47.5247 35.8078C47.585 35.8277 47.6461 35.8442 47.7089 35.8566C47.7238 35.8591 47.7378 35.8615 47.7527 35.864C47.808 35.8739 47.8642 35.8797 47.9204 35.883C47.9286 35.883 47.9377 35.8847 47.946 35.8855C48.0088 35.8871 48.0715 35.8855 48.1343 35.8789C48.1492 35.878 48.164 35.8764 48.1789 35.8739C48.2417 35.8673 48.3028 35.8557 48.3631 35.8409L48.3697 35.8401C48.435 35.8227 48.4994 35.8012 48.5622 35.7748C48.5671 35.7731 48.5721 35.7723 48.577 35.7698C48.582 35.7682 48.5878 35.7641 48.5927 35.7616C48.7142 35.7087 48.8282 35.6402 48.9314 35.5567C48.9446 35.5452 48.9578 35.5353 48.9711 35.5229C48.9843 35.5105 49.0008 35.4989 49.014 35.4857L53.6834 31.1045H56.0194C57.2311 31.1045 58.3859 31.6175 59.1987 32.5162C60.0107 33.4149 60.4047 34.6159 60.2816 35.8211Z" fill="#1270FF"/>
<path d="M38.6612 12.8935V10.5708C38.6571 6.71827 35.5356 3.59678 31.6831 3.59265H31.5807C27.7282 3.59678 24.6067 6.71827 24.6025 10.5708V12.8935C24.6067 16.7452 27.7282 19.8667 31.5807 19.8716H31.6831C35.5356 19.8675 38.6571 16.7452 38.6612 12.8935ZM35.7008 12.8935C35.6983 15.1113 33.9017 16.9087 31.6831 16.9112H31.5807C29.3628 16.9087 27.5654 15.1113 27.563 12.8935V10.5708C27.5654 8.35294 29.3628 6.55554 31.5807 6.55306H31.6831C33.9017 6.55554 35.6983 8.35294 35.7008 10.5708V12.8935Z" fill="#1270FF"/>
<path d="M71.3984 12.8935V10.5708C71.3942 6.71827 68.2727 3.59678 64.4202 3.59265H64.317C60.4653 3.59678 57.3438 6.71827 57.3389 10.5708V12.8935C57.3438 16.7452 60.4653 19.8667 64.317 19.8716H64.4202C68.2727 19.8675 71.3942 16.7452 71.3984 12.8935ZM68.4379 12.8935C68.4355 15.1113 66.6381 16.9087 64.4202 16.9112H64.317C62.0992 16.9087 60.3018 15.1113 60.2993 12.8935V10.5708C60.3018 8.35294 62.0992 6.55554 64.317 6.55306H64.4202C66.6381 6.55554 68.4355 8.35294 68.4379 10.5708V12.8935Z" fill="#1270FF"/>
</svg>
