<svg width="96" height="96" viewBox="0 0 96 96" fill="none" xmlns="http://www.w3.org/2000/svg">
<path d="M37.8766 67.2753C37.514 67.2753 37.1488 67.1506 36.8507 66.8968L26.5948 58.1639C26.241 57.8623 26.0376 57.4218 26.0376 56.9566C26.0376 56.4923 26.2419 56.0519 26.5948 55.7503L36.8507 47.0174C37.5167 46.4495 38.517 46.53 39.0848 47.196C39.6517 47.8629 39.5721 48.8632 38.9052 49.4301L30.0671 56.9566L38.9052 64.4832C39.5721 65.051 39.6517 66.0513 39.0848 66.7173C38.7708 67.0861 38.325 67.2753 37.8766 67.2753Z" fill="#A1EB2E"/>
<path d="M58.1233 67.2753C57.6749 67.2753 57.2291 67.0861 56.916 66.7173C56.3482 66.0513 56.4287 65.051 57.0947 64.4832L65.9328 56.9566L57.0947 49.4301C56.4287 48.8632 56.3482 47.8629 56.916 47.196C57.483 46.53 58.4841 46.4495 59.1492 47.0174L69.4051 55.7503C69.7589 56.0519 69.9623 56.4923 69.9623 56.9566C69.9623 57.4218 69.7589 57.8623 69.4051 58.1639L59.1492 66.8968C58.8512 67.1506 58.4859 67.2753 58.1233 67.2753Z" fill="#A1EB2E"/>
<path d="M44.3696 73.8257C44.2609 73.8257 44.1512 73.8142 44.0406 73.7912C43.1845 73.6108 42.6361 72.7697 42.8166 71.9136L49.2084 41.566C49.3888 40.7099 50.229 40.1615 51.086 40.342C51.9422 40.5224 52.4905 41.3626 52.3101 42.2196L45.9183 72.5672C45.7609 73.3136 45.1028 73.8257 44.3696 73.8257Z" fill="#A1EB2E"/>
<path d="M85.3585 90.3591H10.6415C4.77417 90.3591 0 85.5858 0 79.7176V16.3019C0 10.4346 4.77417 5.6604 10.6415 5.6604H85.3585C91.2258 5.6604 96 10.4346 96 16.3019V79.7176C96 85.5858 91.2258 90.3591 85.3585 90.3591ZM10.6415 8.83021C6.52182 8.83021 3.16981 12.1822 3.16981 16.3019V79.7176C3.16981 83.8373 6.52182 87.1893 10.6415 87.1893H85.3585C89.4782 87.1893 92.8302 83.8373 92.8302 79.7176V16.3019C92.8302 12.1822 89.4782 8.83021 85.3585 8.83021H10.6415Z" fill="#1270FF"/>
<path d="M94.4151 31.0392H1.58491C0.709316 31.0392 0 30.3299 0 29.4543C0 28.5796 0.709316 27.8694 1.58491 27.8694H94.4151C95.2907 27.8694 96 28.5796 96 29.4543C96 30.3299 95.2907 31.0392 94.4151 31.0392Z" fill="#1270FF"/>
<path d="M27.0796 23.4552C24.3148 23.4552 22.064 21.2043 22.064 18.4396C22.064 15.6739 24.3148 13.424 27.0796 13.424C29.8452 13.424 32.0952 15.6739 32.0952 18.4396C32.0952 21.2043 29.8452 23.4552 27.0796 23.4552ZM27.0796 16.5938C26.0625 16.5938 25.2338 17.4216 25.2338 18.4396C25.2338 19.4576 26.0625 20.2854 27.0796 20.2854C28.0976 20.2854 28.9254 19.4576 28.9254 18.4396C28.9254 17.4216 28.0976 16.5938 27.0796 16.5938Z" fill="#1270FF"/>
<path d="M11.6694 23.4065C8.90381 23.4065 6.65381 21.1565 6.65381 18.3909C6.65381 15.6252 8.90381 13.3752 11.6694 13.3752C14.4351 13.3752 16.6851 15.6252 16.6851 18.3909C16.6851 21.1565 14.4351 23.4065 11.6694 23.4065ZM11.6694 16.5451C10.6523 16.5451 9.82362 17.3738 9.82362 18.3909C9.82362 19.4089 10.6523 20.2367 11.6694 20.2367C12.6874 20.2367 13.5152 19.4089 13.5152 18.3909C13.5152 17.3738 12.6874 16.5451 11.6694 16.5451Z" fill="#1270FF"/>
<path d="M42.4898 23.5029C39.7251 23.5029 37.4751 21.2529 37.4751 18.4873C37.4751 15.7225 39.7251 13.4725 42.4898 13.4725C45.2555 13.4725 47.5055 15.7225 47.5055 18.4873C47.5055 21.2529 45.2555 23.5029 42.4898 23.5029ZM42.4898 16.6415C41.4727 16.6415 40.6449 17.4693 40.6449 18.4873C40.6449 19.5053 41.4727 20.3331 42.4898 20.3331C43.5078 20.3331 44.3357 19.5053 44.3357 18.4873C44.3357 17.4693 43.5078 16.6415 42.4898 16.6415Z" fill="#1270FF"/>
</svg>
