<svg width="96" height="96" viewBox="0 0 96 96" fill="none" xmlns="http://www.w3.org/2000/svg">
<path d="M11.8614 42.4972L13.0312 41.475V93.1873H10.4062C9.62938 93.1873 8.99995 93.8169 8.99995 94.5936C8.99995 95.3702 9.62938 95.9998 10.4062 95.9998H67.7611C68.538 95.9998 69.1674 95.3702 69.1674 94.5936C69.1674 93.8169 68.538 93.1873 67.7611 93.1873C65.6626 93.1873 59.994 93.1873 57.6322 93.1873C56.1825 93.1873 55.0012 92.0109 54.9952 90.5616C89.3336 90.5616 88.6327 90.5505 89.0984 90.5503C89.0984 92.0044 87.9155 93.1873 86.4616 93.1873H74.3238C73.547 93.1873 72.9176 93.8169 72.9176 94.5936C72.9176 95.3702 73.547 95.9998 74.3238 95.9998H86.4616C89.4663 95.9998 91.9109 93.5552 91.9109 90.5503C91.9109 89.1234 90.8332 87.7491 88.9258 87.7491C89.2115 87.1322 89.3722 86.4459 89.3722 85.7226V67.7107C89.3722 65.0426 87.2015 62.8717 84.5332 62.8717H82.9687V55.3897C82.9687 54.6131 82.3393 53.9835 81.5625 53.9835C80.7856 53.9835 80.1562 54.6131 80.1562 55.3897V62.8717H59.5605C58.3235 62.8717 57.194 63.3388 56.3377 64.1051L54.621 63.4402L54.6206 61.5296C57.528 59.4851 59.4331 56.1075 59.4331 52.2911V47.3319C60.5433 46.8339 61.3198 45.7204 61.3198 44.427V36.9047C61.3198 35.679 60.8221 34.5431 59.9184 33.7065C59.0366 32.8899 57.8733 32.4726 56.7228 32.5605C56.5548 32.5732 56.3688 32.4977 56.3358 32.3276C55.8075 29.6261 54.0423 28.2564 51.0896 28.2564H41.2055C36.8084 28.2564 33.2311 31.8337 33.2311 36.2308V43.4392C33.2311 45.4534 34.6659 47.1386 36.5671 47.5269V52.2911C36.5671 55.7886 38.2882 59.3603 41.3737 61.5246V63.4001L28.4938 68.4306C28.4859 68.4338 28.478 68.4369 28.4701 68.4401C25.5943 69.6238 22.4988 73.0112 22.4988 77.6514V93.1873H15.8437V39.0169L47.9999 10.9131L80.1562 39.0171V48.8272C80.1562 49.6039 80.7856 50.2335 81.5625 50.2335C82.3393 50.2335 82.9687 49.6039 82.9687 48.8272V41.475L84.1385 42.4974C86.085 44.1981 89.0521 43.9986 90.7524 42.0525C92.4575 40.1021 92.259 37.1436 90.3078 35.4384L82.9685 29.0241V8.01337H83.3411C84.7404 8.01337 85.8789 6.87488 85.8789 5.47538V2.538C85.8791 1.1385 84.7406 0 83.3413 0H70.3545C68.9551 0 67.8166 1.1385 67.8166 2.538V5.47556C67.8166 6.87487 68.9551 8.01356 70.3545 8.01356H70.727V18.3253L51.0847 1.158C49.3261 -0.37875 46.6738 -0.378937 44.9152 1.158L5.69188 35.4384C3.74113 37.1432 3.54182 40.1016 5.24732 42.0527C6.94926 44.0001 9.91663 44.1971 11.8614 42.4972ZM57.5338 67.7107C57.5338 66.6041 58.4347 65.6842 59.5605 65.6842H84.5332C85.6505 65.6842 86.5597 66.5934 86.5597 67.7107V85.7226C86.5597 86.8399 85.6505 87.7491 84.5332 87.7491H59.5603C58.443 87.7491 57.5338 86.8401 57.5338 85.7226V67.7107ZM37.4028 44.7986C36.6532 44.7986 36.0434 44.1889 36.0434 43.4392V36.2308C36.0434 33.3846 38.3591 31.0689 41.2053 31.0689H51.0894C53.0666 31.0689 53.3761 31.8486 53.5756 32.8674C53.8783 34.4152 55.3241 35.4889 56.9386 35.3647C57.3031 35.3355 57.7031 35.4881 58.0076 35.7701C58.1941 35.943 58.5073 36.3203 58.5073 36.9049V44.4272C58.5073 45.2524 56.3306 44.6857 56.1601 43.0095C56.1384 42.7884 56.1847 42.4716 55.9571 42.0548C55.3552 40.9523 53.7646 40.9626 53.1746 42.0662C52.2706 43.7567 50.5229 44.7988 48.6208 44.7988C46.6848 44.7986 38.6092 44.7986 37.4028 44.7986ZM39.3794 52.2911V47.6111H48.6208C50.6587 47.6111 52.6314 46.8259 54.1102 45.4215C54.6975 46.3247 55.5802 47.0186 56.6205 47.3657V52.2911C56.6205 56.9848 52.7939 60.7686 48.1428 60.7686C42.9069 60.7686 39.3794 56.7022 39.3794 52.2911ZM53.309 65.9484C53.3576 65.9672 53.7058 66.102 53.7543 66.1208C50.4697 69.4695 45.1229 69.0696 42.2144 66.0911L42.8896 65.8275C43.4021 65.6274 44.186 64.9208 44.186 63.7543V62.9458C46.4797 63.7234 49.2588 63.8452 51.8079 62.9683L51.8083 63.7571V63.7639C51.8109 64.7396 52.4008 65.5973 53.309 65.9484ZM25.3111 77.6514C25.3111 74.0861 27.8294 71.7506 29.5293 71.0456L39.4344 67.1771C43.0721 71.8511 50.0842 72.6591 54.7215 69.024V85.7227C54.7215 86.4227 54.8786 87.1262 55.1664 87.7493C53.2522 87.7493 52.1827 89.1353 52.1827 90.5505C52.1827 91.4977 52.4403 92.4313 52.8643 93.1875H34.0644C34.0644 91.6581 34.0644 79.335 34.0644 77.5974C34.0644 76.8208 33.4349 76.1912 32.6581 76.1912C31.8813 76.1912 31.2519 76.8208 31.2519 77.5974V82.0318H25.3109V77.6514H25.3111ZM25.3111 84.8441H31.2521V93.1873H25.3111V84.8441ZM70.6291 5.20088V2.8125H83.0666V5.20088C81.5868 5.20088 72.0618 5.20088 70.6291 5.20088ZM80.1562 8.01337V26.5659L73.5397 20.7833V8.01337H80.1562ZM7.5427 37.5561L46.7658 3.27581C47.4693 2.661 48.5302 2.661 49.2337 3.27581C50.9812 4.803 86.754 36.0677 88.4568 37.5563C89.2372 38.2386 89.3167 39.4215 88.6346 40.2019C87.9545 40.98 86.7673 41.0602 85.989 40.3798C84.4503 39.0351 50.9874 9.789 49.4445 8.44031C48.6219 7.72125 47.3795 7.71956 46.5554 8.44031L10.0106 40.3796C9.23207 41.0602 8.0452 40.98 7.36476 40.2017C6.68395 39.4224 6.76101 38.2395 7.5427 37.5561Z" fill="#1270FF"/>
<path d="M71.042 78.123H73.0511C73.8279 78.123 74.4573 77.4934 74.4573 76.7168C74.4573 75.9402 73.8279 75.3105 73.0511 75.3105H71.042C70.2652 75.3105 69.6357 75.9402 69.6357 76.7168C69.6357 77.4934 70.2654 78.123 71.042 78.123Z" fill="#A1EB2E"/>
</svg>
