<svg width="96" height="96" viewBox="0 0 96 96" fill="none" xmlns="http://www.w3.org/2000/svg">
<path d="M78.2671 16.0063C77.9543 16.0063 77.676 16.1448 77.5376 16.4407L71.4417 28.9614C71.3896 29.0654 71.3545 29.187 71.3545 29.2917C71.3545 29.7253 71.7368 30.2117 72.3279 30.2117C72.6575 30.2117 72.9878 30.0381 73.1094 29.7781L79.2222 17.2566C79.2742 17.1526 79.2917 17.031 79.2917 16.9263C79.291 16.3711 78.7527 16.0063 78.2671 16.0063Z" fill="#A1EB2E"/>
<path d="M89.2004 6.9917H58.9221C57.3576 2.90771 53.3959 0 48.7678 0H28.4592C22.4672 0 17.5915 4.87573 17.5915 10.8677V23.2083C16.3801 24.252 15.8168 25.8845 16.1149 27.5281L16.9133 31.9211C17.2004 33.4299 18.0016 34.2056 18.6227 34.5901C19.3178 35.02 20.089 35.1621 20.7973 35.1658V35.9465C20.7973 39.9075 23.1081 44.2727 27.1371 47.9238C27.8959 48.6108 28.6847 49.2444 29.4889 49.8171V52.1726C29.4889 52.8904 28.977 53.5063 28.2709 53.6375C28.238 53.6433 28.2057 53.6506 28.1735 53.6587C28.1493 53.6653 25.7353 54.2944 22.5793 55.1895H12.2675C11.1081 55.1895 9.98967 55.6765 9.19939 56.5247C8.40911 57.3728 8.00335 58.5234 8.08611 59.6799L8.11394 60.0769C3.50188 62.3899 0.600025 66.5369 0.323169 71.25C0.322437 71.2698 0.321705 71.2896 0.320972 71.3093L0.000903911 90.6665C-0.0166742 92.0859 0.523853 93.4241 1.52068 94.4341C2.51897 95.4441 3.84978 96 5.26995 96H71.9577C73.3771 96 74.7087 95.4441 75.7062 94.4341C76.7038 93.4241 77.2443 92.0867 77.2267 90.6606L76.9067 71.3093C76.9059 71.2896 76.9052 71.2698 76.9037 71.25C76.6196 66.4006 73.5566 62.1511 68.7094 59.8813C68.6208 59.8396 68.5278 59.7971 68.4318 59.7539L68.4369 59.6799C68.519 58.5234 68.1132 57.3735 67.3237 56.5247C66.5334 55.6765 65.415 55.1895 64.2555 55.1895H54.6484C51.4931 54.2944 49.0783 53.6653 49.0541 53.6594C49.0219 53.6506 48.9897 53.6433 48.9567 53.6375C48.2507 53.5063 47.7387 52.8904 47.7387 52.1726V49.8179C48.5429 49.2444 49.3317 48.6108 50.0905 47.9238C52.6511 45.6035 54.518 42.9946 55.5383 40.3843H64.6752L63.0793 46.8259C62.8134 47.9004 63.2397 48.9858 64.1655 49.5916C64.6005 49.8765 65.0883 50.0178 65.5739 50.0178C66.1232 50.0178 66.6696 49.8376 67.1354 49.4795L78.9758 40.3843H89.2004C92.9057 40.3843 95.9196 37.3704 95.9196 33.665V13.7109C95.9196 10.0063 92.9057 6.9917 89.2004 6.9917ZM56.4333 25.6377C56.9709 25.4546 57.4799 25.3792 57.8117 25.3491C58.2533 25.741 58.4614 26.3862 58.3456 27.0249L57.5517 31.396C57.436 32.0061 57.2016 32.1511 57.1247 32.1987C56.9614 32.2998 56.7204 32.3518 56.4318 32.3547L56.4333 25.6377ZM20.404 10.8677C20.404 6.42627 24.0177 2.8125 28.4592 2.8125H48.7685C53.2099 2.8125 56.8237 6.42627 56.8237 10.8677V22.6501C56.1279 22.7732 55.2614 23.009 54.4155 23.4602V14.8916C54.4155 11.8103 51.9084 9.30322 48.8271 9.30322H45.0265C43.7089 9.30322 42.422 9.76245 41.4018 10.5959L41.0297 10.9006C40.35 11.4565 39.4916 11.7627 38.6135 11.7627C37.7353 11.7627 36.8776 11.4565 36.1979 10.9014L35.8251 10.5959C34.8056 9.76245 33.518 9.30322 32.2004 9.30322H28.4006C25.3193 9.30322 22.8122 11.8096 22.8122 14.8916V23.4595C21.9662 23.009 21.0998 22.7725 20.404 22.6501V10.8677ZM20.103 32.1987C20.0261 32.1511 19.7917 32.0061 19.6782 31.4077L18.882 27.0256C18.7663 26.387 18.9743 25.7424 19.4145 25.3499C19.7463 25.3799 20.256 25.4539 20.7944 25.637L20.7958 32.3547C20.508 32.3518 20.267 32.2998 20.103 32.1987ZM7.66057 92.1687C7.66057 92.5217 7.70891 92.863 7.79827 93.1875H5.26995C4.60784 93.1875 3.98748 92.9282 3.52166 92.4573C3.05657 91.9863 2.80535 91.3623 2.81267 90.7068L3.13274 71.3862C3.34075 68.0098 5.21209 65.0823 8.3344 63.1677L10.0512 87.2563C10.0827 87.6987 10.1838 88.1213 10.342 88.5146C8.78923 89.0039 7.66057 90.457 7.66057 92.1687ZM66.4711 87.2563L68.2158 62.7795C71.7446 64.6729 73.8722 67.7717 74.0949 71.3862L74.415 90.7009C74.4223 91.3623 74.1703 91.9863 73.706 92.4573C73.2402 92.9282 72.6198 93.1875 71.9577 93.1875H69.4294C69.5195 92.863 69.5671 92.5217 69.5671 92.1687C69.5671 90.2256 68.1132 88.6165 66.236 88.3711C66.3627 88.0188 66.444 87.6453 66.4711 87.2563ZM66.7546 92.1687C66.7546 92.7305 66.2975 93.1875 65.7365 93.1875H11.4911C10.9301 93.1875 10.4731 92.7305 10.4731 92.1687C10.4731 91.6077 10.9301 91.1506 11.4911 91.1506H65.7365C66.2975 91.1506 66.7546 91.6077 66.7546 92.1687ZM65.2656 58.4414C65.5292 58.7249 65.6596 59.0933 65.6318 59.48L63.6659 87.0571C63.6147 87.7756 63.0104 88.3381 62.2897 88.3381H14.2326C13.5126 88.3381 12.9084 87.7756 12.8564 87.0564L10.8913 59.48C10.8635 59.0933 10.9938 58.7249 11.2575 58.4414C11.5219 58.158 11.8801 58.002 12.2675 58.002H64.2555C64.6423 58.002 65.0012 58.158 65.2656 58.4414ZM46.1618 55.1895H31.0658C31.8349 54.4072 32.3014 53.3364 32.3014 52.1726V51.5435C34.5185 52.6912 36.7216 53.335 38.6135 53.335C40.5053 53.335 42.7084 52.6912 44.9262 51.5435V52.1726C44.9262 53.3364 45.3927 54.4072 46.1618 55.1895ZM48.2016 45.8394C45.0617 48.6841 41.2985 50.5225 38.6135 50.5225C35.9291 50.5225 32.1659 48.6841 29.0261 45.8394C25.5837 42.7214 23.6098 39.115 23.6098 35.9458L23.6069 27.0864C23.6252 27.0864 23.6435 27.0872 23.6618 27.0872C23.9159 27.0872 24.1723 27.0374 24.4177 26.9348C25.1508 26.6287 25.6247 25.9175 25.6247 25.1235V14.8916C25.6247 13.3608 26.8698 12.1157 28.4006 12.1157H32.2011C32.8713 12.1157 33.5261 12.3494 34.0446 12.7734L34.4181 13.0789C35.5988 14.0435 37.0886 14.5752 38.6135 14.5752C40.1384 14.5752 41.6288 14.0435 42.8095 13.0781L43.1823 12.7734C43.7009 12.3494 44.3564 12.1157 45.0265 12.1157H48.8263C50.3571 12.1157 51.603 13.3608 51.603 14.8916V25.1235C51.603 25.9182 52.0761 26.6287 52.81 26.9348C53.0722 27.0447 53.3483 27.0938 53.62 27.0864L53.6179 35.9465C53.6186 39.115 51.644 42.7214 48.2016 45.8394ZM93.1071 33.665C93.1071 35.8191 91.3552 37.5718 89.2004 37.5718H78.4982C78.1884 37.5718 77.8874 37.6743 77.642 37.8633L65.9775 46.823L67.8371 39.3164C67.9411 38.8967 67.8466 38.4521 67.58 38.1116C67.3134 37.771 66.9047 37.5718 66.4726 37.5718H56.3058C56.3886 37.0247 56.4311 36.4819 56.4311 35.9465V35.1658C57.1386 35.1621 57.9098 35.02 58.6049 34.5901C59.2267 34.2056 60.028 33.4299 60.3166 31.9102L61.1127 27.5281C61.4116 25.8845 60.8469 24.2512 59.6362 23.2083V10.8677C59.6362 10.5095 59.6186 10.1543 59.5842 9.8042H89.2004C91.3552 9.8042 93.1071 11.5569 93.1071 13.7109V33.665Z" fill="#1270FF"/>
<path d="M38.6133 79.5688C41.5283 79.5688 43.8999 77.1973 43.8999 74.2822C43.8999 71.3672 41.5283 68.9956 38.6133 68.9956C35.6982 68.9956 33.3267 71.3672 33.3267 74.2822C33.3267 77.1973 35.6982 79.5688 38.6133 79.5688ZM38.6133 71.8081C39.9778 71.8081 41.0874 72.9185 41.0874 74.2822C41.0874 75.6467 39.9778 76.7563 38.6133 76.7563C37.2495 76.7563 36.1392 75.6467 36.1392 74.2822C36.1392 72.9185 37.2495 71.8081 38.6133 71.8081Z" fill="#A1EB2E"/>
</svg>
