<svg width="96" height="96" viewBox="0 0 96 96" fill="none" xmlns="http://www.w3.org/2000/svg">
<path d="M64 19.201V16.0011H65.5999C66.4835 16.0011 67.1999 15.2847 67.1999 14.4011V8.00132C67.1999 7.11775 66.4835 6.40137 65.5999 6.40137H30.401C29.5174 6.40137 28.801 7.11775 28.801 8.00132V14.4011C28.801 15.2847 29.5174 16.0011 30.401 16.0011H32.0009V19.201H0.00184957V80.8088C-0.081948 85.5771 3.71354 89.5113 8.4816 89.5989H87.5193C92.2873 89.5113 96.0828 85.5771 95.999 80.8088V19.201H64ZM32.0009 9.60127H64V12.8012H32.0009V9.60127ZM60.8001 16.0011V19.201H35.2008V16.0011H60.8001ZM3.20176 22.4009H92.7991V41.6003H54.4003V36.8005C54.4003 35.9169 53.6839 35.2005 52.8003 35.2005H43.2006C42.317 35.2005 41.6006 35.9169 41.6006 36.8005V41.6003H3.20176V22.4009ZM86.3993 44.8002V48.0002H64V44.8002H86.3993ZM44.8005 41.6003V38.4004H51.2004V41.6003H44.8005ZM51.2004 44.8002V48.0002H44.8005V44.8002H51.2004ZM32.0009 44.8002V48.0002H9.60157V44.8002H32.0009ZM87.5193 86.399H8.4816C5.48049 86.3118 3.11756 83.8099 3.20176 80.8088V44.8002H6.40166V49.6001C6.40166 50.4837 7.11804 51.2001 8.00162 51.2001H33.6009C34.4844 51.2001 35.2008 50.4837 35.2008 49.6001V44.8002H41.6006V49.6001C41.6006 50.4837 42.317 51.2001 43.2006 51.2001H52.8003C53.6839 51.2001 54.4003 50.4837 54.4003 49.6001V44.8002H60.8001V49.6001C60.8001 50.4837 61.5164 51.2001 62.4 51.2001H87.9993C88.8829 51.2001 89.5992 50.4837 89.5992 49.6001V44.8002H92.7991V80.8088C92.8833 83.8099 90.5204 86.3118 87.5193 86.399Z" fill="#1270FF"/>
<path d="M19.2013 79.9993H11.2015C10.3179 79.9993 9.60156 80.7156 9.60156 81.5992C9.60156 82.4828 10.3179 83.1992 11.2015 83.1992H19.2013C20.0849 83.1992 20.8012 82.4828 20.8012 81.5992C20.8012 80.7156 20.0849 79.9993 19.2013 79.9993Z" fill="#A1EB2E"/>
<path d="M19.2013 75.1995H11.2015C10.3179 75.1995 9.60156 75.9158 9.60156 76.7994C9.60156 77.683 10.3179 78.3994 11.2015 78.3994H19.2013C20.0849 78.3994 20.8012 77.683 20.8012 76.7994C20.8012 75.9158 20.0849 75.1995 19.2013 75.1995Z" fill="#A1EB2E"/>
</svg>
