<svg width="65" height="64" viewBox="0 0 65 64" fill="none" xmlns="http://www.w3.org/2000/svg">
<g clip-path="url(#clip0_4770:858)">
<path d="M25.5011 44.8504C25.2593 44.8504 25.0158 44.7672 24.8171 44.598L17.9799 38.7761C17.744 38.575 17.6084 38.2814 17.6084 37.9712C17.6084 37.6617 17.7446 37.3681 17.9799 37.167L24.8171 31.3451C25.2611 30.9665 25.928 31.0202 26.3065 31.4642C26.6845 31.9087 26.6314 32.5756 26.1868 32.9536L20.2947 37.9712L26.1868 42.9889C26.6314 43.3675 26.6845 44.0343 26.3065 44.4783C26.0972 44.7242 25.8 44.8504 25.5011 44.8504Z" fill="white"/>
<path d="M38.999 44.8504C38.7001 44.8504 38.4029 44.7242 38.1942 44.4783C37.8156 44.0343 37.8693 43.3675 38.3133 42.9889L44.2054 37.9712L38.3133 32.9536C37.8693 32.5756 37.8156 31.9087 38.1942 31.4642C38.5721 31.0202 39.2396 30.9665 39.683 31.3451L46.5202 37.167C46.7561 37.3681 46.8917 37.6617 46.8917 37.9712C46.8917 38.2814 46.7561 38.575 46.5202 38.7761L39.683 44.598C39.4843 44.7672 39.2408 44.8504 38.999 44.8504Z" fill="white"/>
<path d="M29.8298 49.217C29.7572 49.217 29.6841 49.2093 29.6104 49.194C29.0397 49.0737 28.6741 48.513 28.7944 47.9422L33.0556 27.7105C33.1759 27.1398 33.736 26.7742 34.3074 26.8945C34.8781 27.0148 35.2437 27.5749 35.1234 28.1462L30.8622 48.378C30.7572 48.8756 30.3186 49.217 29.8298 49.217Z" fill="white"/>
<path d="M57.1557 60.2392H7.34434C3.43278 60.2392 0.25 57.057 0.25 53.1449V10.8678C0.25 6.95622 3.43278 3.77344 7.34434 3.77344H57.1557C61.0672 3.77344 64.25 6.95622 64.25 10.8678V53.1449C64.25 57.057 61.0672 60.2392 57.1557 60.2392ZM7.34434 5.88665C4.59788 5.88665 2.36321 8.12132 2.36321 10.8678V53.1449C2.36321 55.8914 4.59788 58.126 7.34434 58.126H57.1557C59.9021 58.126 62.1368 55.8914 62.1368 53.1449V10.8678C62.1368 8.12132 59.9021 5.88665 57.1557 5.88665H7.34434Z" fill="white"/>
<path d="M63.1934 20.6928H1.3066C0.722877 20.6928 0.25 20.2199 0.25 19.6362C0.25 19.0531 0.722877 18.5796 1.3066 18.5796H63.1934C63.7771 18.5796 64.25 19.0531 64.25 19.6362C64.25 20.2199 63.7771 20.6928 63.1934 20.6928Z" fill="white"/>
<path d="M18.3032 15.6367C16.4601 15.6367 14.9595 14.1361 14.9595 12.293C14.9595 10.4492 16.4601 8.94922 18.3032 8.94922C20.147 8.94922 21.647 10.4492 21.647 12.293C21.647 14.1361 20.147 15.6367 18.3032 15.6367ZM18.3032 11.0624C17.6252 11.0624 17.0727 11.6143 17.0727 12.293C17.0727 12.9716 17.6252 13.5235 18.3032 13.5235C18.9819 13.5235 19.5338 12.9716 19.5338 12.293C19.5338 11.6143 18.9819 11.0624 18.3032 11.0624Z" fill="white"/>
<path d="M8.0293 15.6045C6.18555 15.6045 4.68555 14.1045 4.68555 12.2607C4.68555 10.417 6.18555 8.91699 8.0293 8.91699C9.87305 8.91699 11.373 10.417 11.373 12.2607C11.373 14.1045 9.87305 15.6045 8.0293 15.6045ZM8.0293 11.0302C7.35123 11.0302 6.79875 11.5827 6.79875 12.2607C6.79875 12.9394 7.35123 13.4913 8.0293 13.4913C8.70795 13.4913 9.25984 12.9394 9.25984 12.2607C9.25984 11.5827 8.70795 11.0302 8.0293 11.0302Z" fill="white"/>
<path d="M28.5766 15.6688C26.7334 15.6688 25.2334 14.1688 25.2334 12.3251C25.2334 10.4819 26.7334 8.98193 28.5766 8.98193C30.4203 8.98193 31.9203 10.4819 31.9203 12.3251C31.9203 14.1688 30.4203 15.6688 28.5766 15.6688ZM28.5766 11.0946C27.8985 11.0946 27.3466 11.6464 27.3466 12.3251C27.3466 13.0037 27.8985 13.5556 28.5766 13.5556C29.2552 13.5556 29.8071 13.0037 29.8071 12.3251C29.8071 11.6464 29.2552 11.0946 28.5766 11.0946Z" fill="white"/>
</g>
<defs>
<clipPath id="clip0_4770:858">
<rect width="64" height="64" fill="white" transform="translate(0.25)"/>
</clipPath>
</defs>
</svg>
