<svg width="64" height="64" viewBox="0 0 64 64" fill="none" xmlns="http://www.w3.org/2000/svg">
<path d="M58.8222 11.3871H51.6008V7.26058C51.6008 6.19182 50.8818 5.24479 49.8512 4.95903L31.9999 0L14.1487 4.95903C13.1181 5.24479 12.399 6.19182 12.399 7.26058C12.399 8.32935 13.1181 9.27638 14.1487 9.56214L16.5255 10.2224V11.3871H5.17766C2.33347 11.3871 0.0195312 13.701 0.0195312 16.5452V52.6521C0.0195312 55.4963 2.33347 57.8102 5.17766 57.8102H17.5572V61.9368H13.4307V64H50.5692V61.9368H46.4427V57.8102H58.8222C61.6664 57.8102 63.9803 55.4963 63.9803 52.6521V16.5452C63.9803 13.701 61.6664 11.3871 58.8222 11.3871ZM50.5692 22.735C51.1387 22.735 51.6008 23.1982 51.6008 23.7666V28.9247H49.5376V23.7666C49.5376 23.1982 49.9997 22.735 50.5692 22.735ZM14.7006 7.5742C14.5613 7.535 14.4623 7.40604 14.4623 7.26058C14.4623 7.11512 14.5613 6.98617 14.7006 6.94697L31.9999 2.14166L49.2993 6.94697C49.4385 6.98617 49.5376 7.11512 49.5376 7.26058C49.5376 7.40604 49.4385 7.535 49.2993 7.5742L31.9999 12.3795L14.7006 7.5742ZM45.4111 10.7949V14.7347L31.9999 18.5672L18.5888 14.7357V10.796L31.9999 14.5212L45.4111 10.7949ZM44.3794 61.9368H19.6204V57.8102H44.3794V61.9368ZM61.9171 52.6521C61.9171 54.3584 60.5285 55.747 58.8222 55.747H5.17766C3.47135 55.747 2.08278 54.3584 2.08278 52.6521V49.5572H61.9171V52.6521ZM61.9171 47.494H2.08278V16.5452C2.08278 14.8389 3.47135 13.4503 5.17766 13.4503H16.5255V16.2914L31.9999 20.713L47.4743 16.2914V10.2224L49.5376 9.6488V20.8615C48.3399 21.2886 47.4743 22.4234 47.4743 23.7666V30.988H53.6641V23.7666C53.6641 22.4234 52.7985 21.2886 51.6008 20.8615V13.4503H58.8222C60.5285 13.4503 61.9171 14.8389 61.9171 16.5452V47.494Z" fill="white"/>
<path d="M28.9053 28.0283V40.1365L37.9867 34.0829L28.9053 28.0283ZM30.9685 31.8845L34.2666 34.0829L30.9685 36.2824V31.8845Z" fill="white"/>
<path d="M32.0002 22.7349C25.7434 22.7349 20.6523 27.8259 20.6523 34.0827C20.6523 40.3396 25.7434 45.4306 32.0002 45.4306C38.257 45.4306 43.3481 40.3396 43.3481 34.0827C43.3481 27.8259 38.257 22.7349 32.0002 22.7349ZM32.0002 43.3674C26.8803 43.3674 22.7156 39.2027 22.7156 34.0827C22.7156 28.9638 26.8803 24.7981 32.0002 24.7981C37.1202 24.7981 41.2848 28.9638 41.2848 34.0827C41.2848 39.2027 37.1202 43.3674 32.0002 43.3674Z" fill="white"/>
<path d="M38.1896 51.6206H25.8101V53.6839H38.1896V51.6206Z" fill="white"/>
<path d="M51.6008 33.0513H49.5376V35.1145H51.6008V33.0513Z" fill="white"/>
<path d="M47.4744 33.0513H45.4111V35.1145H47.4744V33.0513Z" fill="white"/>
<path d="M18.5886 33.0513H16.5254V35.1145H18.5886V33.0513Z" fill="white"/>
<path d="M14.4622 33.0513H12.3989V35.1145H14.4622V33.0513Z" fill="white"/>
<path d="M10.3357 33.0513H8.27246V35.1145H10.3357V33.0513Z" fill="white"/>
<path d="M55.7273 33.0513H53.6641V35.1145H55.7273V33.0513Z" fill="white"/>
</svg>
