<svg width="65" height="64" viewBox="0 0 65 64" fill="none" xmlns="http://www.w3.org/2000/svg">
<g clip-path="url(#clip0_4770:901)">
<path d="M6.0662 26.4349C6.58495 26.4349 7.00558 26.0143 7.00558 25.4956V13.9738C7.00558 12.5038 8.20145 11.3078 9.67158 11.3078H55.8281C57.2981 11.3078 58.4941 12.5037 58.4941 13.9738V20.9868C58.4941 21.5056 58.9146 21.9262 59.4335 21.9262C59.9523 21.9262 60.3728 21.5056 60.3728 20.9868V13.9738C60.3728 11.4678 58.3341 9.4292 55.8282 9.4292H9.67158C7.16558 9.4292 5.12695 11.4679 5.12695 13.9738V25.4956C5.12695 26.0145 5.54745 26.4349 6.0662 26.4349Z" fill="white"/>
<path d="M63.8106 47.2075H60.3729V24.744C60.3729 24.2252 59.9522 23.8046 59.4335 23.8046C58.9147 23.8046 58.4941 24.2252 58.4941 24.744V47.2075H56.1596V41.3801C56.1596 40.8613 55.739 40.4407 55.2202 40.4407C54.7015 40.4407 54.2809 40.8613 54.2809 41.3801V47.2075H38.5171C37.9984 47.2075 37.5778 47.6281 37.5778 48.1468V48.8695C37.5778 49.0498 37.431 49.1966 37.2506 49.1966H25.733C25.5526 49.1966 25.4059 49.0498 25.4059 48.8695V48.1468C25.4059 47.6281 24.9852 47.2075 24.4665 47.2075H11.2189V15.5208H54.281V37.6227C54.281 38.1415 54.7016 38.5621 55.2204 38.5621C55.7391 38.5621 56.1598 38.1415 56.1598 37.6227V14.5815C56.1598 14.0627 55.7391 13.6421 55.2204 13.6421H10.2796C9.76087 13.6421 9.34025 14.0626 9.34025 14.5815V47.2075H7.00575V29.2527C7.00575 28.734 6.58512 28.3133 6.06637 28.3133C5.54762 28.3133 5.127 28.734 5.127 29.2527V47.2075H1.68937C1.17062 47.2075 0.75 47.6281 0.75 48.1468V51.0037C0.75 52.9703 2.34987 54.5702 4.3165 54.5702H61.1834C63.15 54.5702 64.7499 52.9702 64.7499 51.0037V48.1468C64.75 47.628 64.3294 47.2075 63.8106 47.2075ZM62.8714 51.0037C62.8714 51.9345 62.1143 52.6916 61.1835 52.6916H4.3165C3.38575 52.6916 2.62863 51.9345 2.62863 51.0037V49.0862H23.538C23.6472 50.2011 24.59 51.0752 25.7332 51.0752H37.2509C38.394 51.0752 39.3369 50.2011 39.4461 49.0862H62.8714V51.0037Z" fill="white"/>
<path d="M26.8421 39.7547C26.5835 40.2032 26.7375 40.7765 27.186 41.0352C28.8707 42.0065 30.7946 42.5198 32.7496 42.5198C38.8998 42.5198 43.9035 37.5162 43.9035 31.3659C43.9035 25.2157 38.8998 20.2119 32.7496 20.2119C26.5993 20.2119 21.5957 25.2155 21.5957 31.3659C21.5957 33.9117 22.476 36.4015 24.0743 38.377C24.4 38.7795 24.9903 38.8418 25.3928 38.5162C25.7953 38.1905 25.8577 37.6002 25.532 37.1977C24.1835 35.531 23.4707 33.5144 23.4707 31.3659C23.4707 26.2495 27.6332 22.0869 32.7496 22.0869C37.866 22.0869 42.0285 26.2494 42.0285 31.3659C42.0285 36.4823 37.866 40.6448 32.7496 40.6448C31.1228 40.6448 29.5227 40.218 28.1225 39.4107C27.6741 39.1523 27.1008 39.306 26.8421 39.7547Z" fill="white"/>
<path d="M30.6161 36.8151C30.8125 36.8151 31.0077 36.7534 31.1718 36.6326L37.3032 32.1206C37.5432 31.9439 37.6851 31.6636 37.6851 31.3656C37.6851 31.0674 37.5433 30.7871 37.3032 30.6104L31.1718 26.0984C30.8871 25.8889 30.5087 25.8573 30.1931 26.0169C29.8776 26.1764 29.6787 26.4999 29.6787 26.8536V35.8774C29.6787 36.2311 29.8776 36.5546 30.1931 36.7141C30.3268 36.7817 30.4717 36.8151 30.6161 36.8151ZM31.5537 28.7076L35.1658 31.3657L31.5537 34.0238V28.7076Z" fill="white"/>
</g>
<defs>
<clipPath id="clip0_4770:901">
<rect width="64" height="64" fill="white" transform="translate(0.75)"/>
</clipPath>
</defs>
</svg>
