<svg width="64" height="64" viewBox="0 0 64 64" fill="none" xmlns="http://www.w3.org/2000/svg">
<path d="M54.6275 9.3725C48.5834 3.3285 40.5475 0 32 0C23.4525 0 15.4166 3.3285 9.3725 9.3725C3.32838 15.4165 0 23.4525 0 32C0 40.5475 3.3285 48.5834 9.3725 54.6275C15.4165 60.6716 23.4525 64 32 64C40.5475 64 48.5834 60.6715 54.6275 54.6275C60.6716 48.5835 64 40.5475 64 32C64 23.4525 60.6715 15.4166 54.6275 9.3725ZM53.2132 53.2132C47.547 58.8795 40.0133 62 32 62C23.9867 62 16.453 58.8795 10.7867 53.2132C5.1205 47.547 2 40.0133 2 32C2 23.9867 5.1205 16.453 10.7867 10.7867C16.453 5.1205 23.9867 2 32 2C40.0133 2 47.547 5.1205 53.2132 10.7867C58.8795 16.453 62 23.9867 62 32C62 40.0133 58.8795 47.547 53.2132 53.2132Z" fill="white"/>
<path d="M6 32C6 17.6636 17.6636 6 32 6C37.171 6 42.1657 7.51388 46.4444 10.378C46.9032 10.6853 47.5244 10.5622 47.8316 10.1032C48.1389 9.64437 48.0159 9.02325 47.5569 8.716C42.948 5.63075 37.5685 4 32 4C24.5209 4 17.4895 6.9125 12.201 12.201C6.9125 17.4895 4 24.5209 4 32C4 38.9 6.53175 45.529 11.129 50.666C11.3265 50.8867 11.6 50.9991 11.8745 50.9991C12.1119 50.9991 12.3503 50.9151 12.541 50.7443C12.9525 50.3759 12.9876 49.7437 12.6193 49.3322C8.35088 44.5625 6 38.4071 6 32Z" fill="white"/>
<path d="M55.284 16.4434C54.9767 15.9844 54.3556 15.8614 53.8967 16.1686C53.4378 16.4759 53.3147 17.097 53.622 17.5559C56.486 21.8344 57.9998 26.8291 57.9998 32C57.9998 46.3364 46.3362 58 31.9998 58C26.052 58 20.2378 55.9401 15.6287 52.1999C15.1998 51.8519 14.5701 51.9174 14.2221 52.3463C13.8741 52.7751 13.9396 53.4049 14.3685 53.7529C19.3328 57.7814 25.5945 60 31.9998 60C39.479 60 46.5103 57.0875 51.7988 51.799C57.0873 46.5105 59.9998 39.4791 59.9998 32C59.9998 26.4316 58.3691 21.0521 55.284 16.4434Z" fill="white"/>
<path d="M49.3321 12.6192C50.0045 13.2208 50.6528 13.8647 51.2589 14.5327C51.4563 14.7502 51.7275 14.8607 51.9998 14.8607C52.2394 14.8607 52.48 14.775 52.6715 14.6012C53.0804 14.2301 53.1112 13.5976 52.74 13.1886C52.0875 12.4696 51.3896 11.7766 50.6659 11.1288C50.2544 10.7606 49.6221 10.7956 49.2539 11.2071C48.8856 11.6186 48.9205 12.2508 49.3321 12.6192Z" fill="white"/>
<path d="M32 13C32.5523 13 33 12.5522 33 12V9C33 8.44775 32.5523 8 32 8C31.4477 8 31 8.44775 31 9V12C31 12.5522 31.4477 13 32 13Z" fill="white"/>
<path d="M31 52V55C31 55.5522 31.4477 56 32 56C32.5523 56 33 55.5522 33 55V52C33 51.4477 32.5523 51 32 51C31.4477 51 31 51.4477 31 52Z" fill="white"/>
<path d="M13 32C13 31.4477 12.5522 31 12 31H9C8.44775 31 8 31.4477 8 32C8 32.5523 8.44775 33 9 33H12C12.5522 33 13 32.5523 13 32Z" fill="white"/>
<path d="M51 32C51 32.5523 51.4477 33 52 33H55C55.5522 33 56 32.5523 56 32C56 31.4477 55.5522 31 55 31H52C51.4477 31 51 31.4477 51 32Z" fill="white"/>
<path d="M22.8661 14.1793L21.3661 11.5812C21.09 11.1028 20.4784 10.9392 20.0001 11.2152C19.5219 11.4913 19.358 12.1029 19.6341 12.5812L21.1341 15.1793C21.3194 15.5 21.6555 15.6794 22.0011 15.6794C22.1708 15.6794 22.3428 15.6362 22.5003 15.5453C22.9784 15.2692 23.1423 14.6575 22.8661 14.1793Z" fill="white"/>
<path d="M42.8661 48.8203C42.59 48.3421 41.9783 48.1785 41.5001 48.4543C41.0219 48.7305 40.858 49.3421 41.1341 49.8203L42.6341 52.4184C42.8194 52.7392 43.1555 52.9186 43.5011 52.9186C43.6708 52.9186 43.8428 52.8753 44.0003 52.7844C44.4785 52.5083 44.6424 51.8967 44.3663 51.4184L42.8661 48.8203Z" fill="white"/>
<path d="M12.0825 44.5002C12.2522 44.5002 12.4242 44.4569 12.5817 44.366L15.1798 42.866C15.658 42.5899 15.8219 41.9783 15.5458 41.5C15.2697 41.0218 14.6579 40.8581 14.1798 41.134L11.5817 42.634C11.1034 42.9102 10.9395 43.5218 11.2157 44C11.4008 44.3208 11.7369 44.5002 12.0825 44.5002Z" fill="white"/>
<path d="M49.3213 23.0001C49.4909 23.0001 49.6629 22.9569 49.8204 22.866L52.4186 21.366C52.8968 21.0899 53.0607 20.4783 52.7846 20C52.5084 19.5218 51.8968 19.3581 51.4186 19.634L48.8204 21.134C48.3422 21.4101 48.1783 22.0218 48.4544 22.5C48.6397 22.8208 48.9758 23.0001 49.3213 23.0001Z" fill="white"/>
<path d="M44.0001 11.2153C43.5219 10.939 42.9103 11.1029 42.6341 11.5813L41.1341 14.1794C40.858 14.6576 41.0219 15.2693 41.5001 15.5454C41.6576 15.6364 41.8295 15.6795 41.9993 15.6795C42.3449 15.6795 42.681 15.5001 42.8663 15.1794L44.3663 12.5813C44.6423 12.103 44.4784 11.4914 44.0001 11.2153Z" fill="white"/>
<path d="M22.5001 48.4544C22.0219 48.1783 21.4103 48.3422 21.1341 48.8204L19.6341 51.4186C19.358 51.8968 19.5219 52.5084 20.0001 52.7846C20.1576 52.8756 20.3295 52.9187 20.4993 52.9187C20.8449 52.9187 21.181 52.7393 21.3663 52.4186L22.8663 49.8204C23.1423 49.3422 22.9784 48.7306 22.5001 48.4544Z" fill="white"/>
<path d="M48.8204 42.8662L51.4185 44.3662C51.576 44.4572 51.7479 44.5003 51.9177 44.5003C52.2633 44.5003 52.5994 44.3209 52.7847 44.0002C53.0608 43.5219 52.8969 42.9103 52.4187 42.6342L49.8205 41.1342C49.3423 40.8579 48.7307 41.0219 48.4545 41.5002C48.1783 41.9784 48.3422 42.5901 48.8204 42.8662Z" fill="white"/>
<path d="M15.1793 21.1342L12.5812 19.6342C12.1029 19.3579 11.4913 19.5219 11.2152 20.0002C10.9391 20.4784 11.1029 21.0901 11.5812 21.3662L14.1793 22.8662C14.3368 22.9572 14.5087 23.0003 14.6784 23.0003C15.0241 23.0003 15.3602 22.8209 15.5454 22.5002C15.8214 22.0219 15.6576 21.4103 15.1793 21.1342Z" fill="white"/>
<path d="M38.9615 45.0564C39.1311 45.0564 39.3031 45.0131 39.4606 44.9222C39.9389 44.6461 40.1028 44.0345 39.8266 43.5563L34.2791 33.9476C34.728 33.423 35 32.7429 35 32C35 30.6964 34.1639 29.5848 33 29.172V16C33 15.4477 32.5523 15 32 15C31.4478 15 31 15.4477 31 16V29.172C29.8361 29.5848 29 30.6964 29 32C29 33.6542 30.3458 35 32 35C32.1871 35 32.3701 34.9819 32.5479 34.949L38.0946 44.5563C38.2799 44.877 38.616 45.0564 38.9615 45.0564ZM31 32C31 31.4486 31.4486 31 32 31C32.5514 31 33 31.4486 33 32C33 32.5514 32.5514 33 32 33C31.4486 33 31 32.5514 31 32Z" fill="white"/>
</svg>
