<svg width="117" height="120" viewBox="0 0 117 120" fill="none" xmlns="http://www.w3.org/2000/svg">
<path d="M88.8666 12.7639C92.6649 18.2196 88.2113 27.0661 93.8461 31.17C99.3321 35.1624 106.071 28.6163 111.24 32.0552C118.908 37.1558 117.508 60.4973 106.297 74.9992C102.924 79.3605 100.102 81.0565 98.8626 85.9891C96.1836 96.5813 105.6 102.881 103.809 108.119C99.774 119.914 37.7205 129.811 12.8219 94.3648C1.19318 77.8089 -0.546925 53.9044 9.84283 35.7474C28.6138 2.93994 80.3464 0.519752 88.8666 12.7639Z" fill="#F4F7FA"/>
<path d="M41.5811 87.1983C37.5777 84.3706 36.8618 76.9641 37.842 71.9929C38.9874 66.1902 41.9844 66.036 42.5227 61.4545C43.5263 52.9191 33.5468 49.9565 33.8772 41.2711C34.1525 34.1729 40.9175 33.4612 40.8583 25.5852C40.8156 19.9023 37.2693 17.5413 38.8621 12.5826C38.9998 12.1585 40.532 7.60726 44.4198 6.54447C48.3419 5.47066 52.3673 8.57781 54.3566 11.0792C58.0364 15.7062 55.3134 18.9566 57.6606 26.0409C60.8586 35.6859 67.7998 35.3679 68.6878 42.9561C69.4202 49.2227 64.8565 50.8844 65.8064 57.8159C66.6889 64.2532 70.9455 65.1591 71.1231 69.5466C71.5361 79.6389 49.7558 92.9651 41.5811 87.1983Z" fill="url(#paint0_linear_4792_512)"/>
<g style="mix-blend-mode:soft-light" opacity="0.7">
<path d="M47.3564 91.8806C47.3391 91.8812 47.3221 91.8759 47.3081 91.8657C47.2941 91.8554 47.284 91.8408 47.2794 91.8241C47.2748 91.8074 47.276 91.7896 47.2827 91.7736C47.2894 91.7577 47.3013 91.7444 47.3165 91.736C50.9869 89.6004 54.1417 86.6825 56.5567 83.1896C58.8296 79.8856 61.181 76.4839 60.9924 72.2561C60.8547 69.0581 59.35 67.3359 57.4488 65.1539C55.5985 63.0296 53.2954 60.3851 51.6819 55.48C50.7609 52.6798 49.6169 49.1941 50.5021 45.0021C51.0197 42.5585 51.9724 41.1818 52.8122 39.9662C53.6919 38.6942 54.3871 37.6892 54.2494 35.9064C54.025 32.9948 52.4597 31.117 50.6356 28.9418C49.5123 27.5982 48.3504 26.2091 47.3316 24.3988C44.453 19.3051 44.3718 12.4521 47.0907 4.04333C47.0932 4.03298 47.0979 4.02326 47.1043 4.01478C47.1108 4.0063 47.1189 3.99926 47.1282 3.99408C47.1375 3.98891 47.1478 3.98572 47.1584 3.98472C47.169 3.98372 47.1797 3.98492 47.1898 3.98826C47.1999 3.9916 47.2093 3.997 47.2172 4.00412C47.2251 4.01124 47.2315 4.01993 47.2359 4.02963C47.2403 4.03933 47.2426 4.04984 47.2427 4.06049C47.2429 4.07114 47.2408 4.0817 47.2366 4.09151C44.5329 12.4562 44.61 19.2625 47.4666 24.3286C48.4826 26.1265 49.639 27.5101 50.7582 28.8496C52.5933 31.044 54.1792 32.9397 54.4077 35.8995C54.5454 37.7374 53.8047 38.814 52.943 40.0599C52.1169 41.2631 51.1684 42.626 50.6577 45.0393C49.778 49.1913 50.9165 52.6537 51.832 55.4373C53.4372 60.3135 55.728 62.9443 57.57 65.0575C59.489 67.2602 61.0116 69.003 61.1493 72.2547C61.3393 76.5348 58.9742 79.9641 56.6861 83.2805C54.2596 86.7934 51.0881 89.728 47.3977 91.8751C47.3847 91.8804 47.3704 91.8823 47.3564 91.8806Z" fill="white"/>
</g>
<g style="mix-blend-mode:soft-light" opacity="0.7">
<path d="M50.2967 47.0885C50.2779 47.0888 50.2597 47.0819 50.2458 47.0693C43.8388 41.3437 40.8294 36.027 39.4334 32.5757C37.9191 28.8284 37.9191 26.4027 37.9191 26.3806C37.9185 26.3704 37.92 26.3602 37.9237 26.3506C37.9274 26.341 37.933 26.3324 37.9404 26.3252C37.9477 26.318 37.9564 26.3125 37.9661 26.309C37.9757 26.3055 37.986 26.3041 37.9962 26.3049C38.0063 26.3047 38.0163 26.3066 38.0257 26.3104C38.0351 26.3142 38.0435 26.3199 38.0506 26.3271C38.0577 26.3344 38.0633 26.343 38.0669 26.3524C38.0706 26.3618 38.0722 26.3719 38.0719 26.382C38.0719 26.4054 38.0719 28.8091 39.5766 32.5302C40.967 35.965 43.964 41.2556 50.3449 46.9578C50.359 46.9724 50.3668 46.9919 50.3668 47.0121C50.3668 47.0324 50.359 47.0519 50.3449 47.0665C50.3318 47.0791 50.3148 47.0869 50.2967 47.0885Z" fill="white"/>
</g>
<g style="mix-blend-mode:soft-light" opacity="0.7">
<path d="M53.3612 59.3922C53.3496 59.3924 53.3381 59.3898 53.3275 59.3848C53.317 59.3798 53.3078 59.3724 53.3006 59.3633C53.288 59.3473 53.282 59.327 53.2841 59.3067C53.2861 59.2864 53.296 59.2677 53.3117 59.2545C56.8414 56.3718 59.5246 53.1022 61.2867 49.538C62.6901 46.7115 63.5255 43.6372 63.7455 40.4891C64.1227 35.1201 62.5904 31.2365 62.5739 31.1979C62.5666 31.1789 62.5669 31.1578 62.5749 31.1391C62.5829 31.1203 62.5978 31.1054 62.6166 31.0974C62.626 31.0936 62.636 31.0917 62.6462 31.0918C62.6563 31.0919 62.6664 31.094 62.6757 31.0979C62.685 31.1019 62.6935 31.1077 62.7006 31.1149C62.7077 31.1221 62.7133 31.1307 62.7171 31.1401C62.7336 31.1787 64.2782 35.0857 63.8996 40.4932C63.6768 43.6625 62.8349 46.7573 61.4216 49.6027C59.6498 53.182 56.9516 56.475 53.4039 59.3771C53.3916 59.3865 53.3767 59.3918 53.3612 59.3922Z" fill="white"/>
</g>
<g style="mix-blend-mode:soft-light" opacity="0.7">
<path d="M59.1793 79.7207H59.1572C49.705 76.9467 44.771 71.9012 42.2971 68.1567C39.614 64.0969 39.1624 60.6428 39.1583 60.6084C39.1573 60.5888 39.1638 60.5696 39.1764 60.5547C39.1891 60.5397 39.2069 60.5301 39.2263 60.5279C39.2458 60.5256 39.2653 60.5308 39.2811 60.5424C39.2968 60.554 39.3075 60.5712 39.3111 60.5905C39.3111 60.6235 39.764 64.0473 42.4293 68.0782C44.8908 71.7952 49.7973 76.8118 59.2013 79.5721C59.2208 79.5778 59.2372 79.591 59.247 79.6088C59.2568 79.6266 59.2592 79.6475 59.2536 79.667C59.2482 79.6825 59.2382 79.696 59.2249 79.7056C59.2116 79.7152 59.1957 79.7205 59.1793 79.7207Z" fill="white"/>
</g>
<g style="mix-blend-mode:soft-light" opacity="0.7">
<path d="M47.0808 23.481C47.0659 23.4809 47.0512 23.4765 47.0387 23.4683C47.0262 23.4601 47.0163 23.4484 47.0104 23.4347C47.0044 23.421 47.0025 23.4058 47.005 23.391C47.0075 23.3763 47.0142 23.3626 47.0244 23.3516C52.3411 17.5861 52.9895 11.5727 52.5958 7.54459C52.1704 3.17779 50.4675 0.139468 50.4496 0.110558C50.4395 0.0923023 50.4371 0.0708057 50.4429 0.0507971C50.4488 0.0307884 50.4623 0.0139053 50.4805 0.00386464C50.4988 -0.00617606 50.5203 -0.00855293 50.5403 -0.00274396C50.5603 0.00306501 50.5772 0.0165848 50.5872 0.0348406C50.6038 0.0651274 52.3232 3.13236 52.7527 7.53083C53.1478 11.5906 52.4953 17.6494 47.14 23.4576C47.1324 23.4655 47.1232 23.4717 47.113 23.4758C47.1028 23.4798 47.0918 23.4816 47.0808 23.481Z" fill="white"/>
</g>
<path d="M56.4463 93.3814C55.7414 94.1275 53.5553 95.1325 52.8669 95.1587C48.3473 95.3321 39.9055 96.2077 36.2092 93.1776C35.5773 92.66 37.104 89.2665 36.7984 88.413C37.2472 86.0134 37.5514 85.2081 36.8576 82.7177C34.8063 75.3635 19.3614 77.5359 23.5672 65.0205C26.6482 55.8519 33.7986 51.4094 21.6192 43.7991C9.43975 36.1889 -5.02223 11.6593 11.9535 5.28256C21.6949 1.62336 26.3797 15.9132 36.278 17.5749C45.6834 19.1539 49.249 26.2135 48.0692 36.573C46.8894 46.9324 52.922 45.3107 61.0444 47.9429C70.7953 51.1093 63.3847 64.2565 59.4488 70.0371C56.2742 74.6917 51.3388 88.6842 56.4463 93.3814Z" fill="url(#paint1_linear_4792_512)"/>
<g style="mix-blend-mode:soft-light" opacity="0.7">
<g style="mix-blend-mode:soft-light" opacity="0.7">
<path d="M44.9469 94.306L44.7322 94.2674C50.5624 61.1378 36.106 28.1389 6.06006 5.99515L6.18946 5.82031C20.4284 16.3147 31.5767 29.7744 38.4284 44.7402C45.6256 60.4756 47.8848 77.6152 44.9469 94.306Z" fill="#FCFDFE"/>
</g>
<g style="mix-blend-mode:soft-light" opacity="0.7">
<path d="M65.2459 48.7928C57.7898 54.1839 49.1388 65.9737 45.9628 75.0722L45.7563 75.0006C48.9461 65.865 57.6315 54.0283 65.1179 48.6152L65.2459 48.7928Z" fill="#FCFDFE"/>
</g>
<g style="mix-blend-mode:soft-light" opacity="0.7">
<path d="M46.0181 87.789L45.8006 87.8124C45.2678 82.8316 42.2364 78.3133 36.7916 74.376C32.7993 71.485 27.6257 68.9836 21.4155 66.9213L21.4844 66.7148C27.7166 68.7799 32.9108 71.3019 36.9196 74.1984C42.4167 78.1715 45.4771 82.7435 46.0181 87.789Z" fill="#FCFDFE"/>
</g>
<g style="mix-blend-mode:soft-light" opacity="0.7">
<path d="M37.3722 42.6516L37.1574 42.686C35.6692 33.348 39.9658 24.3762 43.8315 18.502L44.0133 18.6217C40.1696 24.4685 35.8964 33.3824 37.3722 42.6516Z" fill="#FCFDFE"/>
</g>
<g style="mix-blend-mode:soft-light" opacity="0.7">
<path d="M25.7656 24.3824L25.6279 24.5504C17.4808 17.6863 6.31185 17.137 0.379763 17.4192L0.370117 17.2017C6.33111 16.9222 17.562 17.4729 25.7656 24.3824Z" fill="#FCFDFE"/>
</g>
</g>
<path d="M38.1406 81.4063C37.1323 81.5975 36.0908 81.5057 35.1315 81.1412C34.1722 80.7768 33.3325 80.1538 32.7055 79.3413L14.5334 55.4161C14.1394 54.9049 13.8515 54.3203 13.6865 53.6964C13.5215 53.0724 13.4827 52.4219 13.5725 51.7828C13.6623 51.1437 13.8787 50.529 14.2092 49.9746C14.5397 49.4203 14.9776 48.9376 15.4971 48.5547C17.6998 46.9248 21.8449 47.0872 23.5327 49.2844L42.0683 73.4216C43.8153 75.6973 43.3265 78.8113 40.9848 80.3614C40.408 80.7441 38.7945 81.2797 38.1406 81.4063Z" fill="url(#paint2_linear_4792_512)"/>
<g style="mix-blend-mode:multiply" opacity="0.3">
<path d="M15.4982 48.5508C17.7008 46.9209 21.846 47.0833 23.5338 49.2805L40.4806 71.3541C38.6084 71.3541 36.542 71.9419 34.0943 70.7139C30.0179 68.6695 30.6774 64.5189 27.182 61.8798C25.5837 60.6752 22.9432 59.6565 18.2901 60.3558L14.5359 55.4122C14.1418 54.9011 13.8538 54.3165 13.6887 53.6927C13.5236 53.0688 13.4847 52.4183 13.5743 51.7792C13.664 51.1401 13.8803 50.5253 14.2107 49.971C14.541 49.4166 14.9787 48.9338 15.4982 48.5508Z" fill="#97A6B7"/>
</g>
<path d="M7.38267 44.977C7.47859 44.9523 7.57613 44.9344 7.67454 44.9233L14.5579 43.0469L19.2386 61.0056L12.5452 62.6576C12.386 62.746 12.2162 62.814 12.04 62.86C9.67209 63.4781 6.70948 59.9758 5.42367 55.0391C4.13785 50.1023 5.01341 45.5937 7.38267 44.977Z" fill="url(#paint3_linear_4792_512)"/>
<path d="M14.5611 43.0473C13.5038 49.7091 15.0581 55.6673 19.2418 61.006L74.9241 64.1311L62.3151 13.5879L14.5611 43.0473Z" fill="url(#paint4_linear_4792_512)"/>
<path style="mix-blend-mode:multiply" opacity="0.25" d="M57.1897 52.9315C51.8207 52.3533 48.4575 45.6626 42.7236 46.903C38.2247 47.875 38.0113 52.5474 33.5288 53.2164C28.9418 53.9048 26.9373 49.286 21.4967 48.8937C19.0187 48.7147 16.6784 49.476 14.5459 50.7302C15.1672 54.382 16.7316 57.8076 19.239 61.007L74.9213 64.1321L67.4212 47.8102C63.1301 52.0862 59.7958 53.2109 57.1897 52.9315Z" fill="url(#paint5_linear_4792_512)"/>
<path d="M77.5892 64.153C84.4911 62.3539 87.0444 49.2264 83.2922 34.8318C79.5401 20.4372 70.9033 10.2266 64.0014 12.0257C57.0995 13.8247 54.5461 26.9523 58.2983 41.3469C62.0505 55.7415 70.6874 65.9521 77.5892 64.153Z" fill="url(#paint6_linear_4792_512)"/>
<path d="M77.3591 63.2601C78.8239 62.8788 80.1042 61.8834 81.1615 60.3181C82.2394 58.7184 83.0393 56.6011 83.539 54.0323C84.5908 48.6261 84.1888 41.8859 82.4074 35.0534C80.626 28.221 77.6868 22.143 74.1294 17.9373C72.4375 15.937 70.707 14.4818 68.9862 13.6118C67.2956 12.7582 65.6959 12.5187 64.2311 12.9014C62.7664 13.2841 61.4861 14.2781 60.4274 15.8433C59.3508 17.4417 58.551 19.5604 58.0499 22.1292C57.5989 24.5654 57.4106 27.0429 57.4882 29.5192C57.5763 33.188 60.8679 36.1837 61.9032 40.1595C63.0045 44.3859 61.8289 49.2745 63.6929 52.6597C64.7617 54.6339 66.0234 56.4974 67.4595 58.2229C69.1528 60.2232 70.8819 61.6783 72.6027 62.547C74.2933 63.4033 75.893 63.6428 77.3591 63.2601Z" fill="url(#paint7_linear_4792_512)"/>
<path d="M71.92 38.1548C73.6408 44.7628 70.6355 51.1409 65.283 52.3937C60.0131 53.6327 54.4431 49.4077 52.7704 42.9883C51.0978 36.5689 53.9144 30.2334 59.1362 28.8168C64.4336 27.3851 70.1909 31.5509 71.92 38.1548Z" fill="url(#paint8_linear_4792_512)"/>
<path style="mix-blend-mode:multiply" opacity="0.3" d="M71.0442 38.2599C72.3231 43.1622 71.2066 47.6116 68.5896 48.1885C66.0138 48.7557 62.9452 45.3443 61.7062 40.5768C60.4672 35.8094 61.4873 31.3834 64.0286 30.6813C66.6071 29.9737 69.7652 33.3617 71.0442 38.2599Z" fill="url(#paint9_linear_4792_512)"/>
<path d="M105.479 71.8688L11.4525 69.3316C6.59283 69.194 2.59082 73.1216 2.59082 78.0914V96.9298C2.59082 101.9 6.59283 105.782 11.4525 105.603L105.479 102.168C108.819 102.047 111.493 98.6768 111.493 94.639V79.34C111.493 75.3036 108.815 71.9583 105.479 71.8688Z" fill="#97A6B7"/>
<path d="M11.4466 104.423C7.24641 104.561 3.78271 101.196 3.78271 96.9035V78.1051C3.78271 73.814 7.24641 70.4094 11.4466 70.5141L105.473 72.8544C108.364 72.926 110.694 75.8308 110.694 79.3248V94.6568C110.694 98.1563 108.366 101.083 105.473 101.182L11.4466 104.423Z" fill="url(#paint10_linear_4792_512)"/>
<path d="M23.2559 77.9521L25.811 83.3514C25.8555 83.448 25.9231 83.5323 26.0078 83.5966C26.0926 83.6609 26.1919 83.7034 26.297 83.7203L31.9165 84.5821C32.4355 84.662 32.642 85.3324 32.2676 85.7179L28.2174 89.8865C28.1419 89.9643 28.0858 90.0588 28.0537 90.1624C28.0217 90.266 28.0145 90.3757 28.0329 90.4826L28.9966 96.3389C29.0861 96.8896 28.5382 97.3136 28.0673 97.0658L22.9737 94.3786C22.8795 94.3291 22.7744 94.3043 22.668 94.3062C22.5617 94.3081 22.4575 94.3368 22.3652 94.3896L17.1669 97.3081C17.0573 97.3678 16.9331 97.3952 16.8085 97.3872C16.684 97.3791 16.5644 97.3358 16.4635 97.2624C16.3626 97.1891 16.2845 97.0886 16.2384 96.9726C16.1924 96.8567 16.1802 96.73 16.2032 96.6074L17.2068 90.5941C17.2257 90.4854 17.2181 90.3737 17.1848 90.2686C17.1515 90.1634 17.0934 90.0677 17.0154 89.9897L12.7312 85.7564C12.6389 85.6673 12.5733 85.5542 12.5419 85.4297C12.5105 85.3053 12.5145 85.1746 12.5535 85.0524C12.5924 84.9301 12.6647 84.8211 12.7623 84.7378C12.8599 84.6545 12.9788 84.6001 13.1057 84.5808L18.9937 83.7107C19.1011 83.6945 19.2028 83.6521 19.29 83.5873C19.3771 83.5225 19.447 83.4372 19.4934 83.339L22.0843 77.9369C22.1371 77.8254 22.2209 77.7314 22.3256 77.666C22.4303 77.6007 22.5516 77.5668 22.675 77.5684C22.7984 77.57 22.9187 77.607 23.0217 77.675C23.1247 77.743 23.206 77.8392 23.2559 77.9521Z" fill="#D8DEE8"/>
<path d="M43.9595 78.2018L46.3288 83.4015C46.369 83.4934 46.4312 83.5738 46.51 83.6358C46.5887 83.6977 46.6816 83.7393 46.7803 83.7567L51.9965 84.5827C52.4783 84.6598 52.6697 85.3055 52.3214 85.6841L48.5631 89.6998C48.4932 89.7762 48.4414 89.8674 48.4116 89.9665C48.3818 90.0657 48.3748 90.1703 48.391 90.2725L49.2845 95.9169C49.3671 96.4428 48.8577 96.8558 48.4213 96.6162L43.6979 94.0157C43.6111 93.9681 43.5134 93.944 43.4144 93.9457C43.3155 93.9474 43.2186 93.9748 43.1335 94.0253L38.3151 96.831C37.8608 97.0953 37.3295 96.6933 37.4162 96.1564L38.3454 90.3744C38.3629 90.2704 38.3559 90.1638 38.3251 90.063C38.2943 89.9622 38.2405 89.8699 38.1678 89.7934L34.2044 85.7144C33.8327 85.3303 34.0378 84.6612 34.5527 84.5827L40.0071 83.7443C40.1078 83.7279 40.2029 83.6865 40.2837 83.624C40.3645 83.5615 40.4284 83.4798 40.4696 83.3864L42.8719 78.184C42.9179 78.0768 42.9948 77.9858 43.0927 77.9224C43.1906 77.8591 43.3051 77.8263 43.4217 77.8282C43.5383 77.8301 43.6517 77.8667 43.7474 77.9332C43.8432 77.9997 43.917 78.0933 43.9595 78.2018Z" fill="url(#paint11_linear_4792_512)"/>
<path d="M43.9595 78.2018L46.3288 83.4015C46.369 83.4934 46.4312 83.5738 46.51 83.6358C46.5887 83.6977 46.6816 83.7393 46.7803 83.7567L51.9965 84.5827C52.4783 84.6598 52.6697 85.3055 52.3214 85.6841L48.5631 89.6998C48.4932 89.7762 48.4414 89.8674 48.4116 89.9665C48.3818 90.0657 48.3748 90.1703 48.391 90.2725L49.2845 95.9169C49.3671 96.4428 48.8577 96.8558 48.4213 96.6162L43.6979 94.0157C43.6111 93.9681 43.5134 93.944 43.4144 93.9457C43.3155 93.9474 43.2186 93.9748 43.1335 94.0253L38.3151 96.831C37.8608 97.0953 37.3295 96.6933 37.4162 96.1564L38.3454 90.3744C38.3629 90.2704 38.3559 90.1638 38.3251 90.063C38.2943 89.9622 38.2405 89.8699 38.1678 89.7934L34.2044 85.7144C33.8327 85.3303 34.0378 84.6612 34.5527 84.5827L40.0071 83.7443C40.1078 83.7279 40.2029 83.6865 40.2837 83.624C40.3645 83.5615 40.4284 83.4798 40.4696 83.3864L42.8719 78.184C42.9179 78.0768 42.9948 77.9858 43.0927 77.9224C43.1906 77.8591 43.3051 77.8263 43.4217 77.8282C43.5383 77.8301 43.6517 77.8667 43.7474 77.9332C43.8432 77.9997 43.917 78.0933 43.9595 78.2018Z" fill="#A1EB2E"/>
<path d="M63.1865 78.2631L65.3892 83.2769C65.4245 83.3636 65.4807 83.4403 65.5527 83.5001C65.6248 83.5599 65.7105 83.601 65.8022 83.6197L70.655 84.4209C71.1038 84.4939 71.2813 85.1175 70.9578 85.4768L67.4597 89.3494C67.3946 89.424 67.3466 89.512 67.319 89.6071C67.2914 89.7022 67.2849 89.8022 67.3 89.9001L68.126 95.3434C68.2031 95.85 67.7296 96.2479 67.3234 96.0166L62.9291 93.5152C62.849 93.4692 62.758 93.4456 62.6657 93.4471C62.5734 93.4485 62.4831 93.4749 62.4046 93.5235L57.9263 96.2259C57.505 96.4806 57.0108 96.0882 57.092 95.5747L57.9552 89.9964C57.9717 89.8966 57.9654 89.7944 57.9368 89.6973C57.9082 89.6003 57.858 89.511 57.79 89.4361L54.1088 85.5043C53.7632 85.134 53.9532 84.4884 54.4309 84.4126L59.4998 83.6059C59.5945 83.5885 59.6833 83.5478 59.7583 83.4875C59.8333 83.4272 59.892 83.3491 59.9293 83.2604L62.1609 78.2479C62.1986 78.141 62.2689 78.0487 62.3619 77.9839C62.4549 77.9191 62.5658 77.8851 62.6792 77.8868C62.7925 77.8885 62.9024 77.9257 62.9934 77.9932C63.0845 78.0607 63.152 78.1551 63.1865 78.2631Z" fill="url(#paint12_linear_4792_512)"/>
<path d="M63.1865 78.2631L65.3892 83.2769C65.4245 83.3636 65.4807 83.4403 65.5527 83.5001C65.6248 83.5599 65.7105 83.601 65.8022 83.6197L70.655 84.4209C71.1038 84.4939 71.2813 85.1175 70.9578 85.4768L67.4597 89.3494C67.3946 89.424 67.3466 89.512 67.319 89.6071C67.2914 89.7022 67.2849 89.8022 67.3 89.9001L68.126 95.3434C68.2031 95.85 67.7296 96.2479 67.3234 96.0166L62.9291 93.5152C62.849 93.4692 62.758 93.4456 62.6657 93.4471C62.5734 93.4485 62.4831 93.4749 62.4046 93.5235L57.9263 96.2259C57.505 96.4806 57.0108 96.0882 57.092 95.5747L57.9552 89.9964C57.9717 89.8966 57.9654 89.7944 57.9368 89.6973C57.9082 89.6003 57.858 89.511 57.79 89.4361L54.1088 85.5043C53.7632 85.134 53.9532 84.4884 54.4309 84.4126L59.4998 83.6059C59.5945 83.5885 59.6833 83.5478 59.7583 83.4875C59.8333 83.4272 59.892 83.3491 59.9293 83.2604L62.1609 78.2479C62.1986 78.141 62.2689 78.0487 62.3619 77.9839C62.4549 77.9191 62.5658 77.8851 62.6792 77.8868C62.7925 77.8885 62.9024 77.9257 62.9934 77.9932C63.0845 78.0607 63.152 78.1551 63.1865 78.2631Z" fill="#A1EB2E"/>
<path d="M81.0871 78.4806L83.1411 83.3209C83.1736 83.4046 83.2265 83.4788 83.295 83.5368C83.3635 83.5948 83.4456 83.6346 83.5335 83.6527L88.0613 84.425C88.4743 84.4966 88.6464 85.0996 88.3436 85.4465L85.0795 89.1855C85.0182 89.2589 84.9732 89.3445 84.9476 89.4366C84.9219 89.5287 84.9162 89.6252 84.9308 89.7197L85.7058 94.9772C85.7774 95.4673 85.3355 95.8514 84.9569 95.6284L80.86 93.2096C80.7859 93.165 80.7008 93.1422 80.6144 93.1436C80.528 93.1451 80.4437 93.1708 80.3712 93.2178L76.1972 95.8225C75.8048 96.0689 75.345 95.6958 75.4207 95.1933L76.2247 89.8106C76.2404 89.7146 76.2347 89.6163 76.2081 89.5228C76.1814 89.4293 76.1344 89.3428 76.0705 89.2695L72.6426 85.4809C72.3205 85.1244 72.498 84.5007 72.9427 84.4278L77.6633 83.6486C77.7527 83.6313 77.8364 83.5916 77.9064 83.5334C77.9764 83.4752 78.0306 83.4002 78.0639 83.3154L80.1441 78.4764C80.3368 78.0194 80.8944 78.0263 81.0871 78.4806Z" fill="url(#paint13_linear_4792_512)"/>
<path d="M81.0871 78.4806L83.1411 83.3209C83.1736 83.4046 83.2265 83.4788 83.295 83.5368C83.3635 83.5948 83.4456 83.6346 83.5335 83.6527L88.0613 84.425C88.4743 84.4966 88.6464 85.0996 88.3436 85.4465L85.0795 89.1855C85.0182 89.2589 84.9732 89.3445 84.9476 89.4366C84.9219 89.5287 84.9162 89.6252 84.9308 89.7197L85.7058 94.9772C85.7774 95.4673 85.3355 95.8514 84.9569 95.6284L80.86 93.2096C80.7859 93.165 80.7008 93.1422 80.6144 93.1436C80.528 93.1451 80.4437 93.1708 80.3712 93.2178L76.1972 95.8225C75.8048 96.0689 75.345 95.6958 75.4207 95.1933L76.2247 89.8106C76.2404 89.7146 76.2347 89.6163 76.2081 89.5228C76.1814 89.4293 76.1344 89.3428 76.0705 89.2695L72.6426 85.4809C72.3205 85.1244 72.498 84.5007 72.9427 84.4278L77.6633 83.6486C77.7527 83.6313 77.8364 83.5916 77.9064 83.5334C77.9764 83.4752 78.0306 83.4002 78.0639 83.3154L80.1441 78.4764C80.3368 78.0194 80.8944 78.0263 81.0871 78.4806Z" fill="#A1EB2E"/>
<path d="M97.8013 78.6837L99.7287 83.3644C99.7576 83.4445 99.8064 83.5159 99.8705 83.572C99.9345 83.628 100.012 83.667 100.095 83.6852L104.329 84.4327C104.72 84.5015 104.88 85.0839 104.594 85.4198L101.54 89.0349C101.483 89.1072 101.441 89.1904 101.418 89.2794C101.394 89.3685 101.389 89.4615 101.403 89.5526L102.128 94.6366C102.196 95.1102 101.783 95.4819 101.427 95.2644L97.599 92.924C97.5297 92.8815 97.4498 92.8597 97.3685 92.8611C97.2873 92.8626 97.2082 92.8873 97.1405 92.9323L93.2432 95.4475C92.8756 95.6843 92.4461 95.325 92.5163 94.839L93.268 89.6379C93.2831 89.5459 93.2787 89.4518 93.255 89.3617C93.2313 89.2715 93.1888 89.1874 93.1303 89.1148L89.9282 85.4473C89.628 85.1018 89.7905 84.5002 90.2035 84.43L94.6088 83.6769C94.6933 83.6592 94.772 83.6203 94.8374 83.564C94.9029 83.5076 94.9531 83.4357 94.9833 83.3548L96.9257 78.6741C97.0937 78.239 97.6155 78.2459 97.8013 78.6837Z" fill="#D8DEE8"/>
<g style="mix-blend-mode:multiply" opacity="0.1">
<g style="mix-blend-mode:multiply" opacity="0.1">
<path d="M91.6312 88.5099C79.4945 85.2059 71.3391 101.755 57.2254 98.1204C44.9882 94.9678 44.6454 81.325 30.1049 71.6084C29.1082 70.943 28.0941 70.3258 27.0625 69.7568L11.451 69.3355C6.59136 69.1979 2.58936 73.1255 2.58936 78.0953V96.931C2.58936 101.901 6.59136 105.783 11.451 105.604L104.845 102.193C100.352 92.9028 95.5988 89.5878 91.6312 88.5099Z" fill="#97A6B7"/>
</g>
</g>
<path d="M23.2559 77.9521L25.811 83.3514C25.8555 83.448 25.9231 83.5323 26.0078 83.5966C26.0926 83.6609 26.1919 83.7034 26.297 83.7203L31.9165 84.5821C32.4355 84.662 32.642 85.3324 32.2676 85.7179L28.2174 89.8865C28.1419 89.9643 28.0858 90.0588 28.0537 90.1624C28.0217 90.266 28.0145 90.3757 28.0329 90.4826L28.9966 96.3389C29.0861 96.8896 28.5382 97.3136 28.0673 97.0658L22.9737 94.3786C22.8795 94.3291 22.7744 94.3043 22.668 94.3062C22.5617 94.3081 22.4575 94.3368 22.3652 94.3896L17.1669 97.3081C17.0573 97.3678 16.9331 97.3952 16.8085 97.3872C16.684 97.3791 16.5644 97.3358 16.4635 97.2624C16.3626 97.1891 16.2845 97.0886 16.2384 96.9726C16.1924 96.8567 16.1802 96.73 16.2032 96.6074L17.2068 90.5941C17.2257 90.4854 17.2181 90.3737 17.1848 90.2686C17.1515 90.1634 17.0934 90.0677 17.0154 89.9897L12.7312 85.7564C12.6389 85.6673 12.5733 85.5542 12.5419 85.4297C12.5105 85.3053 12.5145 85.1746 12.5535 85.0524C12.5924 84.9301 12.6647 84.8211 12.7623 84.7378C12.8599 84.6545 12.9788 84.6001 13.1057 84.5808L18.9937 83.7107C19.1011 83.6945 19.2028 83.6521 19.29 83.5873C19.3771 83.5225 19.447 83.4372 19.4934 83.339L22.0843 77.9369C22.1371 77.8254 22.2209 77.7314 22.3256 77.666C22.4303 77.6007 22.5516 77.5668 22.675 77.5684C22.7984 77.57 22.9187 77.607 23.0217 77.675C23.1247 77.743 23.206 77.8392 23.2559 77.9521Z" fill="url(#paint14_linear_4792_512)"/>
<path d="M23.2559 77.9521L25.811 83.3514C25.8555 83.448 25.9231 83.5323 26.0078 83.5966C26.0926 83.6609 26.1919 83.7034 26.297 83.7203L31.9165 84.5821C32.4355 84.662 32.642 85.3324 32.2676 85.7179L28.2174 89.8865C28.1419 89.9643 28.0858 90.0588 28.0537 90.1624C28.0217 90.266 28.0145 90.3757 28.0329 90.4826L28.9966 96.3389C29.0861 96.8896 28.5382 97.3136 28.0673 97.0658L22.9737 94.3786C22.8795 94.3291 22.7744 94.3043 22.668 94.3062C22.5617 94.3081 22.4575 94.3368 22.3652 94.3896L17.1669 97.3081C17.0573 97.3678 16.9331 97.3952 16.8085 97.3872C16.684 97.3791 16.5644 97.3358 16.4635 97.2624C16.3626 97.1891 16.2845 97.0886 16.2384 96.9726C16.1924 96.8567 16.1802 96.73 16.2032 96.6074L17.2068 90.5941C17.2257 90.4854 17.2181 90.3737 17.1848 90.2686C17.1515 90.1634 17.0934 90.0677 17.0154 89.9897L12.7312 85.7564C12.6389 85.6673 12.5733 85.5542 12.5419 85.4297C12.5105 85.3053 12.5145 85.1746 12.5535 85.0524C12.5924 84.9301 12.6647 84.8211 12.7623 84.7378C12.8599 84.6545 12.9788 84.6001 13.1057 84.5808L18.9937 83.7107C19.1011 83.6945 19.2028 83.6521 19.29 83.5873C19.3771 83.5225 19.447 83.4372 19.4934 83.339L22.0843 77.9369C22.1371 77.8254 22.2209 77.7314 22.3256 77.666C22.4303 77.6007 22.5516 77.5668 22.675 77.5684C22.7984 77.57 22.9187 77.607 23.0217 77.675C23.1247 77.743 23.206 77.8392 23.2559 77.9521Z" fill="#A1EB2E"/>
<path d="M38.1401 81.4063C37.1318 81.5975 36.0903 81.5057 35.131 81.1412C34.1717 80.7768 33.332 80.1538 32.705 79.3413L14.5329 55.4161C14.139 54.9049 13.851 54.3203 13.686 53.6964C13.521 53.0724 13.4823 52.4219 13.572 51.7828C13.6618 51.1437 13.8782 50.529 14.2087 49.9746C14.5392 49.4203 14.9771 48.9376 15.4966 48.5547C17.6993 46.9248 21.8445 47.0872 23.5323 49.2844L42.0678 73.4216C43.8148 75.6973 43.3261 78.8113 40.9843 80.3614C40.4075 80.7441 38.794 81.2797 38.1401 81.4063Z" fill="url(#paint15_linear_4792_512)"/>
<path style="mix-blend-mode:multiply" opacity="0.3" d="M15.4982 48.5489C17.7008 46.9189 21.846 47.0814 23.5338 49.2785L40.4806 71.3521C38.6084 71.3521 36.542 71.9399 34.0943 70.712C30.0179 68.6676 30.6774 64.5169 27.182 61.8778C25.5837 60.6733 22.9432 59.6545 18.2901 60.3539L14.5359 55.4102C14.1418 54.8992 13.8538 54.3146 13.6887 53.6907C13.5236 53.0669 13.4847 52.4163 13.5743 51.7772C13.664 51.1381 13.8803 50.5234 14.2107 49.969C14.541 49.4147 14.9787 48.9318 15.4982 48.5489Z" fill="url(#paint16_linear_4792_512)"/>
<path d="M7.38267 44.977C7.47859 44.9523 7.57613 44.9344 7.67454 44.9233L14.5579 43.0469L19.2386 61.0056L12.5452 62.6576C12.386 62.746 12.2162 62.814 12.04 62.86C9.67209 63.4781 6.70948 59.9758 5.42367 55.0391C4.13785 50.1023 5.01341 45.5937 7.38267 44.977Z" fill="url(#paint17_linear_4792_512)"/>
<path d="M14.5606 43.0473C13.5033 49.7091 15.0576 55.6673 19.2413 61.006L74.9236 64.1311L62.3147 13.5879L14.5606 43.0473Z" fill="url(#paint18_linear_4792_512)"/>
<path style="mix-blend-mode:multiply" opacity="0.25" d="M57.1892 52.9295C51.8202 52.3513 48.457 45.6607 42.7232 46.9011C38.2242 47.873 38.0108 52.5454 33.5283 53.2145C28.9413 53.9028 26.9368 49.2841 21.4962 48.8917C19.0182 48.7128 16.6779 49.4741 14.5454 50.7282C15.1667 54.3801 16.7311 57.8057 19.2385 61.0051L74.9208 64.1301L67.4207 47.8083C63.1296 52.0842 59.7953 53.209 57.1892 52.9295Z" fill="url(#paint19_linear_4792_512)"/>
<path d="M77.5892 64.153C84.4911 62.3539 87.0444 49.2264 83.2922 34.8318C79.5401 20.4372 70.9033 10.2266 64.0014 12.0257C57.0995 13.8247 54.5461 26.9523 58.2983 41.3469C62.0505 55.7415 70.6874 65.9521 77.5892 64.153Z" fill="url(#paint20_linear_4792_512)"/>
<path d="M77.3591 63.2582C78.8239 62.8768 80.1042 61.8815 81.1615 60.3162C82.2394 58.7165 83.0393 56.5992 83.539 54.0303C84.5908 48.6241 84.1888 41.8839 82.4074 35.0515C80.626 28.2191 77.6868 22.1411 74.1294 17.9353C72.4375 15.935 70.707 14.4799 68.9862 13.6098C67.2956 12.7563 65.6959 12.5167 64.2311 12.8994C62.7664 13.2822 61.4861 14.2761 60.4274 15.8414C59.3508 17.4397 58.551 19.5584 58.0499 22.1273C57.5989 24.5634 57.4106 27.0409 57.4882 29.5173C57.5763 33.1861 60.8679 36.1818 61.9032 40.1576C63.0045 44.384 61.8289 49.2725 63.6929 52.6578C64.7617 54.632 66.0234 56.4954 67.4595 58.2209C69.1528 60.2212 70.8819 61.6764 72.6027 62.5451C74.2933 63.4013 75.893 63.6409 77.3591 63.2582Z" fill="url(#paint21_linear_4792_512)"/>
<path d="M71.92 38.1548C73.6408 44.7628 70.6355 51.1409 65.283 52.3937C60.0131 53.6327 54.4431 49.4077 52.7704 42.9883C51.0978 36.5689 53.9144 30.2334 59.1362 28.8168C64.4336 27.3851 70.1909 31.5509 71.92 38.1548Z" fill="url(#paint22_linear_4792_512)"/>
<g style="mix-blend-mode:multiply" opacity="0.3">
<path d="M71.0442 38.2599C72.3231 43.1622 71.2066 47.6116 68.5896 48.1885C66.0138 48.7557 62.9452 45.3443 61.7062 40.5768C60.4672 35.8094 61.4873 31.3834 64.0286 30.6813C66.6071 29.9737 69.7652 33.3617 71.0442 38.2599Z" fill="#97A6B7"/>
</g>
<path d="M88.0888 20.8575L93.3463 31.5144C93.442 31.7089 93.5837 31.8772 93.759 32.0048C93.9343 32.1324 94.1381 32.2155 94.3526 32.2468L106.109 33.9552C106.356 33.9911 106.588 34.0954 106.779 34.2562C106.969 34.4169 107.111 34.6278 107.188 34.865C107.265 35.1021 107.274 35.3561 107.215 35.5982C107.155 35.8403 107.029 36.0609 106.85 36.235L98.3436 44.5281C98.1882 44.6791 98.0719 44.8657 98.0048 45.0717C97.9376 45.2777 97.9216 45.497 97.9581 45.7106L99.9667 57.4192C100.009 57.6651 99.9817 57.918 99.8877 58.1491C99.7938 58.3803 99.6371 58.5806 99.4352 58.7272C99.2334 58.8739 98.9945 58.9612 98.7456 58.9792C98.4968 58.9971 98.2478 58.9451 98.027 58.8289L87.5119 53.3016C87.3208 53.2015 87.1082 53.1492 86.8924 53.1492C86.6767 53.1492 86.4641 53.2015 86.2729 53.3016L75.7579 58.8289C75.5371 58.9451 75.2881 58.9971 75.0393 58.9792C74.7904 58.9612 74.5515 58.8739 74.3497 58.7272C74.1478 58.5806 73.9911 58.3803 73.8972 58.1491C73.8032 57.918 73.7759 57.6651 73.8182 57.4192L75.8254 45.7106C75.8621 45.4971 75.8462 45.2779 75.7793 45.0719C75.7124 44.8659 75.5964 44.6792 75.4413 44.5281L66.9348 36.235C66.7558 36.0611 66.629 35.8405 66.569 35.5983C66.509 35.356 66.518 35.1018 66.5951 34.8644C66.6723 34.6271 66.8143 34.4161 67.0053 34.2554C67.1962 34.0946 67.4284 33.9907 67.6754 33.9552L79.4323 32.2468C79.6468 32.2153 79.8504 32.1323 80.0257 32.0047C80.201 31.8771 80.3427 31.7088 80.4386 31.5144L85.6865 20.8575C85.7964 20.6326 85.9672 20.443 86.1796 20.3104C86.3919 20.1777 86.6373 20.1074 86.8876 20.1074C87.138 20.1074 87.3833 20.1777 87.5957 20.3104C87.8081 20.443 87.9789 20.6326 88.0888 20.8575Z" fill="url(#paint23_linear_4792_512)"/>
<path d="M88.6106 20.8594L93.8681 31.5162C93.964 31.7107 94.1057 31.879 94.281 32.0065C94.4563 32.1341 94.66 32.2172 94.8745 32.2486L106.631 33.9571C106.878 33.9925 107.111 34.0965 107.301 34.2572C107.492 34.4179 107.634 34.6289 107.712 34.8663C107.789 35.1036 107.798 35.3579 107.738 35.6001C107.678 35.8424 107.551 36.0629 107.372 36.2368L98.8655 44.5299C98.7103 44.6811 98.5943 44.8677 98.5274 45.0738C98.4605 45.2798 98.4447 45.499 98.4814 45.7125L100.489 57.4211C100.531 57.667 100.504 57.9198 100.41 58.151C100.316 58.3821 100.159 58.5824 99.9571 58.7291C99.7552 58.8758 99.5164 58.963 99.2675 58.981C99.0186 58.999 98.7697 58.9469 98.5488 58.8308L88.0338 53.3034C87.8427 53.2033 87.6301 53.151 87.4143 53.151C87.1985 53.151 86.986 53.2033 86.7948 53.3034L76.2797 58.8308C76.0589 58.9469 75.81 58.999 75.5611 58.981C75.3123 58.963 75.0734 58.8758 74.8715 58.7291C74.6697 58.5824 74.513 58.3821 74.419 58.151C74.3251 57.9198 74.2977 57.667 74.34 57.4211L76.3486 45.7125C76.3851 45.4989 76.3691 45.2796 76.3019 45.0736C76.2348 44.8675 76.1185 44.6809 75.9631 44.5299L67.4567 36.2368C67.2781 36.0627 67.1519 35.8422 67.0921 35.6001C67.0324 35.358 67.0416 35.104 67.1186 34.8668C67.1957 34.6297 67.3375 34.4188 67.5282 34.258C67.7188 34.0972 67.9505 33.993 68.1973 33.9571L79.9541 32.2486C80.1687 32.2173 80.3724 32.1343 80.5477 32.0067C80.723 31.8791 80.8647 31.7108 80.9604 31.5162L86.218 20.8635C86.3285 20.6409 86.4988 20.4535 86.7099 20.3224C86.921 20.1912 87.1645 20.1215 87.413 20.1211C87.6616 20.1207 87.9052 20.1895 88.1168 20.3199C88.3283 20.4504 88.4994 20.6372 88.6106 20.8594Z" fill="url(#paint24_linear_4792_512)"/>
<path d="M88.6106 20.8594L93.8681 31.5162C93.964 31.7107 94.1057 31.879 94.281 32.0065C94.4563 32.1341 94.66 32.2172 94.8745 32.2486L106.631 33.9571C106.878 33.9925 107.111 34.0965 107.301 34.2572C107.492 34.4179 107.634 34.6289 107.712 34.8663C107.789 35.1036 107.798 35.3579 107.738 35.6001C107.678 35.8424 107.551 36.0629 107.372 36.2368L98.8655 44.5299C98.7103 44.6811 98.5943 44.8677 98.5274 45.0738C98.4605 45.2798 98.4447 45.499 98.4814 45.7125L100.489 57.4211C100.531 57.667 100.504 57.9198 100.41 58.151C100.316 58.3821 100.159 58.5824 99.9571 58.7291C99.7552 58.8758 99.5164 58.963 99.2675 58.981C99.0186 58.999 98.7697 58.9469 98.5488 58.8308L88.0338 53.3034C87.8427 53.2033 87.6301 53.151 87.4143 53.151C87.1985 53.151 86.986 53.2033 86.7948 53.3034L76.2797 58.8308C76.0589 58.9469 75.81 58.999 75.5611 58.981C75.3123 58.963 75.0734 58.8758 74.8715 58.7291C74.6697 58.5824 74.513 58.3821 74.419 58.151C74.3251 57.9198 74.2977 57.667 74.34 57.4211L76.3486 45.7125C76.3851 45.4989 76.3691 45.2796 76.3019 45.0736C76.2348 44.8675 76.1185 44.6809 75.9631 44.5299L67.4567 36.2368C67.2781 36.0627 67.1519 35.8422 67.0921 35.6001C67.0324 35.358 67.0416 35.104 67.1186 34.8668C67.1957 34.6297 67.3375 34.4188 67.5282 34.258C67.7188 34.0972 67.9505 33.993 68.1973 33.9571L79.9541 32.2486C80.1687 32.2173 80.3724 32.1343 80.5477 32.0067C80.723 31.8791 80.8647 31.7108 80.9604 31.5162L86.218 20.8635C86.3285 20.6409 86.4988 20.4535 86.7099 20.3224C86.921 20.1912 87.1645 20.1215 87.413 20.1211C87.6616 20.1207 87.9052 20.1895 88.1168 20.3199C88.3283 20.4504 88.4994 20.6372 88.6106 20.8594Z" fill="#A1EB2E"/>
<g style="mix-blend-mode:multiply" opacity="0.3">
<path style="mix-blend-mode:multiply" opacity="0.3" d="M95.6937 50.719C91.6587 46.8823 87.1143 47.0956 85.2792 42.6627C83.2224 37.6943 87.6003 34.2155 86.8513 28.1209C86.6214 26.351 86.0225 24.649 85.0933 23.125L80.955 31.5144C80.8593 31.709 80.7176 31.8773 80.5423 32.0049C80.367 32.1325 80.1633 32.2155 79.9487 32.2468L68.1919 33.9553C67.9452 33.9912 67.7134 34.0955 67.5228 34.2562C67.3321 34.417 67.1903 34.6279 67.1133 34.865C67.0362 35.1022 67.027 35.3562 67.0868 35.5983C67.1465 35.8404 67.2728 36.061 67.4513 36.2351L75.9577 44.5281C76.1131 44.6792 76.2294 44.8658 76.2966 45.0718C76.3637 45.2778 76.3797 45.4971 76.3432 45.7107L74.3346 57.4193C74.2923 57.6652 74.3197 57.918 74.4136 58.1492C74.5076 58.3804 74.6643 58.5806 74.8662 58.7273C75.068 58.874 75.3069 58.9613 75.5557 58.9793C75.8046 58.9972 76.0535 58.9452 76.2744 58.829L86.788 53.2975C86.9792 53.1974 87.1917 53.1452 87.4075 53.1452C87.6233 53.1452 87.8359 53.1974 88.027 53.2975L98.542 58.8249C98.7978 58.961 99.0911 59.0098 99.3772 58.9639C99.6632 58.9179 99.9264 58.7796 100.127 58.5702C99.09 54.7486 97.3884 52.3297 95.6937 50.719Z" fill="url(#paint25_linear_4792_512)"/>
</g>
<path d="M101.623 58.4121C101.623 58.4121 101.733 57.9097 100.763 57.7238C100.004 57.5765 99.7992 57.3989 99.985 57.2764C100.171 57.1539 100.598 57.2764 100.598 57.2764C100.401 56.7755 100.096 56.3245 99.7042 55.9561C99.1081 55.4468 99.7496 55.4977 100.117 55.572C100.485 55.6464 101.399 56.4573 101.51 56.767C101.622 57.0768 102.375 57.7472 102.375 57.7472L101.623 58.4121Z" fill="url(#paint26_linear_4792_512)"/>
<path d="M102.155 57.2773L101.251 58.2562C101.251 58.2562 107.327 62.3242 97.1421 63.2356L106.446 72.6892C106.446 72.6892 113.899 63.9583 102.155 57.2773Z" fill="url(#paint27_linear_4792_512)"/>
<path d="M76.1957 57.9253C76.1957 57.9253 75.685 57.8537 75.8447 56.879C75.9686 56.115 75.875 55.8589 75.6946 55.9938C75.5143 56.1287 75.4881 56.5707 75.4881 56.5707C75.4881 56.5707 74.8301 56.0104 74.5602 55.2752C74.2904 54.5401 74.1142 55.1582 74.0564 55.5258C73.9986 55.8933 74.4432 57.0401 74.6952 57.248C74.9471 57.4559 75.3147 58.3989 75.3147 58.3989L76.1957 57.9253Z" fill="url(#paint28_linear_4792_512)"/>
<path d="M96.4824 117.588C96.4824 117.588 93.0999 119.126 93.0407 119.371C92.9815 119.616 95.2159 119.288 96.1259 119.324C97.0359 119.36 97.7861 119.09 97.7035 118.704C97.6209 118.319 97.3016 117.35 97.3016 117.35L96.4824 117.588Z" fill="url(#paint29_linear_4792_512)"/>
<path d="M96.3589 116.34L96.564 117.863C96.564 117.863 97.0995 118.054 97.4589 117.828L97.613 116.158L96.3589 116.34Z" fill="url(#paint30_linear_4792_512)"/>
<path d="M112.285 116.377L112.679 117.009C112.733 117.096 112.769 117.193 112.785 117.294C112.8 117.396 112.795 117.499 112.769 117.598C112.631 118.124 112.356 119.147 112.237 119.414C112.073 119.777 109.884 119.993 109.884 119.993C109.884 119.993 109.69 119.718 110.145 119.388C110.599 119.057 110.891 119.004 111.051 118.514C111.21 118.023 111.326 116.64 111.326 116.64L112.285 116.377Z" fill="url(#paint31_linear_4792_512)"/>
<path d="M110.648 114.772C110.786 114.886 111.495 117.02 111.495 117.02C111.495 117.02 111.722 117.31 112.154 116.882C112.587 116.454 112.35 116.689 112.35 116.689L112.269 114.59L110.648 114.772Z" fill="url(#paint32_linear_4792_512)"/>
<path d="M94.4974 85.7559C94.3198 90.2989 94.3116 95.2329 94.5732 100.504C94.8678 106.44 95.4583 111.931 96.2045 116.902C96.4798 116.91 96.7717 116.911 97.0759 116.902C97.281 116.902 97.4807 116.887 97.6734 116.873C98.1653 115.561 98.5835 114.223 98.9262 112.865C99.3145 111.321 99.6069 109.754 99.8017 108.174C100.453 103.028 99.6888 102.579 100.215 98.7668C100.683 95.3898 101.349 95.2577 102.13 90.4641C102.978 85.263 102.347 84.4824 102.04 84.2002C100.736 82.9943 97.6638 83.812 94.4974 85.7559Z" fill="url(#paint33_linear_4792_512)"/>
<path style="mix-blend-mode:multiply" opacity="0.3" d="M102.043 84.1943C100.796 83.0489 97.9459 83.7427 94.9351 85.4897C98.3988 89.2315 98.776 91.6586 98.3616 93.2335C97.8922 95.0135 96.4659 95.5257 96.4715 97.4723C96.4715 99.8636 98.6356 100.501 98.5901 103.029C98.5599 104.703 97.6113 104.681 97.3869 106.746C97.1226 109.191 98.3616 110.034 97.9596 111.839C97.7875 112.617 97.2947 113.629 95.8946 114.683C95.9965 115.425 96.0997 116.162 96.2085 116.886C96.4838 116.894 96.7757 116.897 97.0799 116.886C97.2851 116.886 97.4847 116.871 97.6774 116.857C98.1693 115.546 98.5876 114.208 98.9302 112.85C99.3185 111.305 99.6109 109.738 99.8058 108.158C100.457 103.013 99.6929 102.563 100.219 98.7512C100.687 95.3742 101.353 95.2421 102.134 90.4485C102.98 85.2557 102.344 84.4765 102.043 84.1943Z" fill="url(#paint34_linear_4792_512)"/>
<path d="M96.6421 85.6717C102.899 94.8213 107.621 104.93 110.625 115.599C110.981 115.766 111.382 115.811 111.766 115.729C112.15 115.646 112.497 115.44 112.753 115.142C113.138 112.748 113.226 110.315 113.013 107.899C112.876 106.053 112.535 104.227 111.995 102.456C111.169 99.8004 110.606 99.6518 109.532 96.842C108.417 93.9262 108.687 93.1993 107.62 89.5456C106.977 87.3609 106.18 85.2244 105.235 83.1523L96.6421 85.6717Z" fill="url(#paint35_linear_4792_512)"/>
<path d="M95.5256 61C95.5256 61 95.6233 62.2776 96.0501 63.2233C96.4356 64.0769 98.3409 64.5628 98.7291 64.7377C99.1173 64.9125 98.0408 65.5182 96.9394 65.6628C95.8381 65.8073 92.6718 65.6559 92.0963 65.2498C91.5208 64.8437 92.541 64.8478 93.3201 64.5339C94.0993 64.22 94.5068 62.6658 94.3458 61.9706C94.1847 61.2753 95.5256 61 95.5256 61Z" fill="url(#paint36_linear_4792_512)"/>
<path d="M93.9372 60.0238C93.3576 59.2542 93.6054 57.744 94.1217 57.5458C94.2704 57.4907 94.3695 57.5692 95.8453 58.7765C96.5777 59.3767 96.9342 59.6851 96.9535 60.0981C96.9533 60.3752 96.8602 60.6442 96.6892 60.8622C96.5324 61.0356 96.357 61.1912 96.1661 61.3261C95.9017 61.5299 95.9169 61.5257 95.8384 61.5835C95.4922 61.8291 95.1119 62.0226 94.7095 62.1576C94.7289 61.9844 94.7331 61.8098 94.7219 61.6359C94.7085 61.4101 94.666 61.1871 94.5953 60.9723C94.4246 60.4905 94.1258 60.2743 93.9372 60.0238Z" fill="url(#paint37_linear_4792_512)"/>
<path d="M95.4226 62.0008C95.1961 62.1678 94.9302 62.2733 94.6509 62.3071C94.3715 62.3409 94.0882 62.3017 93.8284 62.1935C93.0451 61.8494 93.5806 60.006 94.2318 59.8105C94.3749 59.7844 94.5218 59.7875 94.6637 59.8194C94.8056 59.8513 94.9396 59.9115 95.0578 59.9963C95.2051 60.1023 95.2354 60.1905 95.4804 60.3584C95.7254 60.5264 95.7874 60.5112 95.8397 60.6021C95.9044 60.7164 95.903 60.9352 95.5547 61.4047C95.764 61.3042 95.9678 61.3124 96.0779 61.4212C96.1125 61.4603 96.1363 61.5077 96.1467 61.5589C96.188 61.8094 95.9058 62.0049 95.4226 62.0008Z" fill="url(#paint38_linear_4792_512)"/>
<path d="M108.773 87.2705C107.534 88.398 105.374 88.4889 104.903 88.5095C102.69 88.6031 102.373 87.6422 100.183 87.7358C97.9926 87.8294 97.4061 88.8372 95.8491 88.4324C95.5738 88.3608 94.4944 88.047 93.349 86.5505C90.1028 82.3076 92.8163 77.6393 89.5797 71.637C89.0924 70.7325 88.6629 69.9368 87.7997 69.0833C85.0064 66.3217 82.3439 67.5772 78.8238 65.3663C75.9328 63.549 73.9985 59.8926 74.8314 58.2461C75.2114 57.4986 75.5404 57.5977 76.0498 57.5371C76.9075 58.9909 79.0289 60.7627 81.4684 61.7952C83.7839 62.774 85.5681 62.3059 89.1103 62.3555C91.2758 62.3858 94.9914 62.4381 97.9389 63.494C105.31 66.1317 108.038 75.1048 108.845 77.7577C109.555 80.076 111.1 85.1697 108.773 87.2705Z" fill="url(#paint39_linear_4792_512)"/>
<path style="mix-blend-mode:multiply" opacity="0.3" d="M102.737 85.239C103.541 84.2024 99.3944 81.3471 99.9506 78.0156C100.42 75.2099 103.745 74.9304 104.594 72.3396C104.962 71.2217 104.893 69.5862 103.329 67.166C106.757 70.883 108.285 75.8886 108.851 77.7581C109.556 80.0765 111.1 85.1702 108.774 87.2765C107.535 88.404 105.375 88.4948 104.904 88.5155C102.69 88.6091 102.374 87.6482 100.183 87.7418C97.993 87.8354 97.4065 88.8431 95.8495 88.4384C95.5742 88.3668 94.4948 88.0529 93.3494 86.5565L93.3013 86.489C94.1658 85.663 95.2038 84.9994 96.4428 84.7227C99.4935 84.0413 102.086 86.0788 102.737 85.239Z" fill="url(#paint40_linear_4792_512)"/>
<defs>
<linearGradient id="paint0_linear_4792_512" x1="55.1275" y1="41.6937" x2="74.73" y2="-4.32026" gradientUnits="userSpaceOnUse">
<stop stop-color="#E38DDD"/>
<stop offset="1" stop-color="#9571F6"/>
</linearGradient>
<linearGradient id="paint1_linear_4792_512" x1="33.292" y1="21.6829" x2="38.9088" y2="66.4055" gradientUnits="userSpaceOnUse">
<stop stop-color="#6165D7"/>
<stop offset="1" stop-color="#AA80F9"/>
</linearGradient>
<linearGradient id="paint2_linear_4792_512" x1="51182.3" y1="3304.74" x2="55943" y2="2063.79" gradientUnits="userSpaceOnUse">
<stop stop-color="#311944"/>
<stop offset="1" stop-color="#893976"/>
</linearGradient>
<linearGradient id="paint3_linear_4792_512" x1="22331.8" y1="808.982" x2="25910.9" y2="592.986" gradientUnits="userSpaceOnUse">
<stop stop-color="#311944"/>
<stop offset="1" stop-color="#893976"/>
</linearGradient>
<linearGradient id="paint4_linear_4792_512" x1="48834" y1="-4363.65" x2="60587.6" y2="23095.2" gradientUnits="userSpaceOnUse">
<stop stop-color="#FF9085"/>
<stop offset="1" stop-color="#FB6FBB"/>
</linearGradient>
<linearGradient id="paint5_linear_4792_512" x1="45185.2" y1="-8822.4" x2="48359.3" y2="1189.92" gradientUnits="userSpaceOnUse">
<stop stop-color="#FF9085"/>
<stop offset="1" stop-color="#FB6FBB"/>
</linearGradient>
<linearGradient id="paint6_linear_4792_512" x1="47512.7" y1="1046.59" x2="58339.9" y2="3922.66" gradientUnits="userSpaceOnUse">
<stop stop-color="#E38DDD"/>
<stop offset="1" stop-color="#9571F6"/>
</linearGradient>
<linearGradient id="paint7_linear_4792_512" x1="49957.9" y1="6073.14" x2="55170.1" y2="4803.96" gradientUnits="userSpaceOnUse">
<stop stop-color="#311944"/>
<stop offset="1" stop-color="#893976"/>
</linearGradient>
<linearGradient id="paint8_linear_4792_512" x1="19537.4" y1="-616.892" x2="23679.8" y2="7576.63" gradientUnits="userSpaceOnUse">
<stop stop-color="#FFC444"/>
<stop offset="1" stop-color="#F36F56"/>
</linearGradient>
<linearGradient id="paint9_linear_4792_512" x1="11098.7" y1="1295.75" x2="13652.2" y2="5431.85" gradientUnits="userSpaceOnUse">
<stop stop-color="#FFC444"/>
<stop offset="1" stop-color="#F36F56"/>
</linearGradient>
<linearGradient id="paint10_linear_4792_512" x1="28.3081" y1="130.26" x2="75.4001" y2="58.8028" gradientUnits="userSpaceOnUse">
<stop stop-color="#EBEFF2"/>
<stop offset="1" stop-color="white"/>
</linearGradient>
<linearGradient id="paint11_linear_4792_512" x1="50490" y1="15028.5" x2="52600.2" y2="20710.3" gradientUnits="userSpaceOnUse">
<stop stop-color="#FFC444"/>
<stop offset="1" stop-color="#F36F56"/>
</linearGradient>
<linearGradient id="paint12_linear_4792_512" x1="49112.5" y1="13683.4" x2="51206.2" y2="19116.1" gradientUnits="userSpaceOnUse">
<stop stop-color="#FFC444"/>
<stop offset="1" stop-color="#F36F56"/>
</linearGradient>
<linearGradient id="paint13_linear_4792_512" x1="47631.8" y1="12463.5" x2="49702.8" y2="17654.9" gradientUnits="userSpaceOnUse">
<stop stop-color="#FFC444"/>
<stop offset="1" stop-color="#F36F56"/>
</linearGradient>
<linearGradient id="paint14_linear_4792_512" x1="49888" y1="15547.8" x2="52775" y2="15547.8" gradientUnits="userSpaceOnUse">
<stop stop-color="#FFC444"/>
<stop offset="1" stop-color="#F36F56"/>
</linearGradient>
<linearGradient id="paint15_linear_4792_512" x1="24940.7" y1="7810.07" x2="22167.8" y2="12676.1" gradientUnits="userSpaceOnUse">
<stop stop-color="#FFC444"/>
<stop offset="1" stop-color="#F36F56"/>
</linearGradient>
<linearGradient id="paint16_linear_4792_512" x1="21594.2" y1="4203.71" x2="19909.4" y2="8275.09" gradientUnits="userSpaceOnUse">
<stop stop-color="#FFC444"/>
<stop offset="1" stop-color="#F36F56"/>
</linearGradient>
<linearGradient id="paint17_linear_4792_512" x1="23486.7" y1="1239.65" x2="32506.4" y2="-496.271" gradientUnits="userSpaceOnUse">
<stop stop-color="#FFC444"/>
<stop offset="1" stop-color="#F36F56"/>
</linearGradient>
<linearGradient id="paint18_linear_4792_512" x1="48834" y1="-4363.65" x2="60587.6" y2="23095.2" gradientUnits="userSpaceOnUse">
<stop stop-color="#FF9085"/>
<stop offset="1" stop-color="#FB6FBB"/>
</linearGradient>
<linearGradient id="paint19_linear_4792_512" x1="45185.2" y1="-8822.4" x2="48359.3" y2="1189.91" gradientUnits="userSpaceOnUse">
<stop stop-color="#FF9085"/>
<stop offset="1" stop-color="#FB6FBB"/>
</linearGradient>
<linearGradient id="paint20_linear_4792_512" x1="54542.9" y1="6079.11" x2="59232.3" y2="4856.75" gradientUnits="userSpaceOnUse">
<stop stop-color="#311944"/>
<stop offset="1" stop-color="#893976"/>
</linearGradient>
<linearGradient id="paint21_linear_4792_512" x1="44223.8" y1="5140.6" x2="60859.8" y2="1630.49" gradientUnits="userSpaceOnUse">
<stop stop-color="#311944"/>
<stop offset="1" stop-color="#893976"/>
</linearGradient>
<linearGradient id="paint22_linear_4792_512" x1="41060.3" y1="-1544" x2="43852.7" y2="-2271.9" gradientUnits="userSpaceOnUse">
<stop stop-color="#311944"/>
<stop offset="1" stop-color="#893976"/>
</linearGradient>
<linearGradient id="paint23_linear_4792_512" x1="117913" y1="16827.8" x2="129962" y2="16827.8" gradientUnits="userSpaceOnUse">
<stop stop-color="#311944"/>
<stop offset="1" stop-color="#893976"/>
</linearGradient>
<linearGradient id="paint24_linear_4792_512" x1="127668" y1="10906.5" x2="116593" y2="31480.4" gradientUnits="userSpaceOnUse">
<stop stop-color="#FFC444"/>
<stop offset="1" stop-color="#F36F56"/>
</linearGradient>
<linearGradient id="paint25_linear_4792_512" x1="103709" y1="10064.7" x2="92811.7" y2="27885.1" gradientUnits="userSpaceOnUse">
<stop stop-color="#FFC444"/>
<stop offset="1" stop-color="#F36F56"/>
</linearGradient>
<linearGradient id="paint26_linear_4792_512" x1="-11056.8" y1="17391.1" x2="-11041.1" y2="17348.5" gradientUnits="userSpaceOnUse">
<stop stop-color="#311944"/>
<stop offset="1" stop-color="#893976"/>
</linearGradient>
<linearGradient id="paint27_linear_4792_512" x1="37467.6" y1="8573.1" x2="36599.4" y2="9488.09" gradientUnits="userSpaceOnUse">
<stop stop-color="#6165D7"/>
<stop offset="1" stop-color="#AA80F9"/>
</linearGradient>
<linearGradient id="paint28_linear_4792_512" x1="8509.39" y1="1985.11" x2="8475.97" y2="1985.11" gradientUnits="userSpaceOnUse">
<stop stop-color="#311944"/>
<stop offset="1" stop-color="#893976"/>
</linearGradient>
<linearGradient id="paint29_linear_4792_512" x1="26767.6" y1="2146.55" x2="26773.5" y2="2311.44" gradientUnits="userSpaceOnUse">
<stop stop-color="#311944"/>
<stop offset="1" stop-color="#A03976"/>
</linearGradient>
<linearGradient id="paint30_linear_4792_512" x1="7008.26" y1="1902.82" x2="7005.46" y2="1759.66" gradientUnits="userSpaceOnUse">
<stop stop-color="#FFC444"/>
<stop offset="1" stop-color="#F36F56"/>
</linearGradient>
<linearGradient id="paint31_linear_4792_512" x1="17163.2" y1="3557.25" x2="17190.1" y2="3837.28" gradientUnits="userSpaceOnUse">
<stop stop-color="#311944"/>
<stop offset="1" stop-color="#A03976"/>
</linearGradient>
<linearGradient id="paint32_linear_4792_512" x1="10183" y1="2646.43" x2="10179" y2="2443.27" gradientUnits="userSpaceOnUse">
<stop stop-color="#FFC444"/>
<stop offset="1" stop-color="#F36F56"/>
</linearGradient>
<linearGradient id="paint33_linear_4792_512" x1="47097.1" y1="29145.2" x2="47583.9" y2="29145.2" gradientUnits="userSpaceOnUse">
<stop stop-color="#444B8C"/>
<stop offset="1" stop-color="#3E4177"/>
</linearGradient>
<linearGradient id="paint34_linear_4792_512" x1="43834.5" y1="29133.8" x2="44287.8" y2="29133.8" gradientUnits="userSpaceOnUse">
<stop stop-color="#444B8C"/>
<stop offset="1" stop-color="#3E4177"/>
</linearGradient>
<linearGradient id="paint35_linear_4792_512" x1="95401.1" y1="28379.5" x2="97374.9" y2="28379.5" gradientUnits="userSpaceOnUse">
<stop stop-color="#444B8C"/>
<stop offset="1" stop-color="#3E4177"/>
</linearGradient>
<linearGradient id="paint36_linear_4792_512" x1="30332.3" y1="2893.64" x2="30310.3" y2="3145.04" gradientUnits="userSpaceOnUse">
<stop stop-color="#311944"/>
<stop offset="1" stop-color="#893976"/>
</linearGradient>
<linearGradient id="paint37_linear_4792_512" x1="95.1267" y1="61.2917" x2="95.5383" y2="56.3398" gradientUnits="userSpaceOnUse">
<stop stop-color="#26264F"/>
<stop offset="1" stop-color="#444B8C"/>
</linearGradient>
<linearGradient id="paint38_linear_4792_512" x1="11412" y1="1491.78" x2="11342.4" y2="1570.55" gradientUnits="userSpaceOnUse">
<stop stop-color="#311944"/>
<stop offset="1" stop-color="#893976"/>
</linearGradient>
<linearGradient id="paint39_linear_4792_512" x1="158333" y1="26328.4" x2="159020" y2="18787" gradientUnits="userSpaceOnUse">
<stop stop-color="#6165D7"/>
<stop offset="1" stop-color="#AA80F9"/>
</linearGradient>
<linearGradient id="paint40_linear_4792_512" x1="75566.3" y1="18365.7" x2="76257.9" y2="13163.6" gradientUnits="userSpaceOnUse">
<stop stop-color="#AA80F9"/>
<stop offset="1" stop-color="#6165D7"/>
</linearGradient>
</defs>
</svg>
