<svg width="125" height="120" viewBox="0 0 125 120" fill="none" xmlns="http://www.w3.org/2000/svg">
<path d="M58.5439 1.71735C46.3537 6.56561 45.1859 18.9551 34.2089 20.0188C24.6457 20.9448 21.0106 11.9765 14.3001 13.5838C4.07762 16.0306 -2.35009 40.3964 1.75532 60.4414C5.99553 81.1341 23.8062 108.646 53.3147 110.518C86.4437 112.625 111.511 80.9758 113.042 53.202C113.208 50.1984 114.185 25.0312 94.9447 10.1641C93.9835 9.42122 75.0227 -4.8349 58.5439 1.71735Z" fill="#F4F7FA"/>
<path d="M72.1772 89.1201C70.5977 84.7774 68.9172 78.124 70.3955 70.6297C72.0922 62.0247 76.4027 60.1757 80.0305 50.9202C85.2084 37.7073 78.5756 28.4679 84.2399 24.298C87.0018 22.2658 91.4442 22.1222 94.2441 23.9844C102.235 29.3001 100.868 53.6058 88.7746 63.4606C83.3052 67.9176 78.3968 67.5631 74.3676 73.2362C70.8058 78.2412 71.3039 84.6851 72.1772 89.1201Z" fill="url(#paint0_linear_4792_52)"/>
<g style="mix-blend-mode:soft-light">
<g style="mix-blend-mode:soft-light">
<path d="M70.9483 78.0994L70.8018 78.0672C71.2151 76.1964 71.7882 74.3646 72.5145 72.5918C74.179 68.5347 76.0822 66.2754 78.4925 63.4154C80.0587 61.5561 81.8331 59.4507 83.8653 56.45C87.6645 50.8369 88.8366 48.8721 89.8388 45.7396C91.3142 41.0842 91.6548 36.1434 90.8322 31.3296C90.1515 27.4741 88.7192 23.7901 86.6169 20.4873L86.7414 20.4082C88.8532 23.7259 90.2924 27.4262 90.9772 31.2988C91.8038 36.1361 91.4617 41.1009 89.9794 45.7791C88.9699 48.9293 87.7963 50.9072 83.9869 56.5276C81.9517 59.5356 80.1774 61.644 78.6053 63.5048C76.2039 66.356 74.3065 68.608 72.6508 72.6431C71.9278 74.4096 71.3582 76.2351 70.9483 78.0994Z" fill="white"/>
</g>
<g style="mix-blend-mode:soft-light">
<path d="M90.9053 41.4006V41.2805C90.6811 36.7677 87.701 33.9385 85.2409 32.359C83.5862 31.307 81.7844 30.5066 79.8945 29.984L79.9282 29.8375C81.8344 30.3626 83.6517 31.169 85.3201 32.2301C87.7874 33.814 90.7705 36.6417 91.0445 41.1442C92.6365 40.0885 94.0327 38.7637 95.1704 37.2293C96.9726 34.8029 98.8861 30.7444 97.7623 25.1856L97.9088 25.1562C99.0429 30.7708 97.1089 34.8703 95.2876 37.3172C94.1187 38.9029 92.6716 40.2631 91.0167 41.3317L90.9053 41.4006Z" fill="white"/>
</g>
<g style="mix-blend-mode:soft-light">
<path d="M90.2506 55.9255C88.4444 55.9289 86.652 55.6114 84.9569 54.9878L84.8998 54.9629L84.9144 54.9028C85.9401 50.4311 84.8207 47.196 83.7057 45.2693C82.4984 43.1843 81.0347 42.1441 81.02 42.1338L81.105 42.0137C81.1197 42.0239 82.6097 43.0832 83.8332 45.196C84.9569 47.1359 86.0793 50.3871 85.0712 54.875C85.7686 55.1445 92.6198 57.6192 98.1684 53.0083L98.2622 53.1226C95.6205 55.3174 92.6886 55.9255 90.2506 55.9255Z" fill="white"/>
</g>
<g style="mix-blend-mode:soft-light">
<path d="M85.2643 64.589C84.2929 64.5941 83.3242 64.4854 82.378 64.2652C80.2285 63.7524 79.1033 62.8001 79.0916 62.8001L79.052 62.7664L79.0711 62.7165C80.8937 58.1525 77.9136 50.8692 77.8843 50.7974L78.0205 50.7402C78.0498 50.8135 81.03 58.0983 79.2293 62.721C79.6923 63.0799 84.0746 66.2037 91.9763 63.0301L92.032 63.1664C89.3449 64.2403 87.0738 64.589 85.2643 64.589Z" fill="white"/>
</g>
</g>
<path d="M58.2829 98.6143C57.4771 94.5513 56.8851 88.1837 60.0279 82.3728C65.5106 72.2338 76.1888 75.1935 85.9615 64.2047C93.85 55.3433 91.0632 48.7398 99.9261 42.7355C101.409 41.7304 109.24 36.2097 115.29 39.1898C118.699 40.8704 120.031 44.4996 120.282 45.1809C124.06 55.4796 113.981 72.1137 100.399 80.0095C92.5973 84.5515 89.9966 83.2329 76.18 88.6687C69.8068 91.1905 63.7902 94.534 58.2829 98.6143Z" fill="url(#paint1_linear_4792_52)"/>
<g style="mix-blend-mode:soft-light">
<g style="mix-blend-mode:soft-light">
<path d="M57.2383 103.568L57.0918 103.542C58.8119 93.7135 62.4573 87.0308 67.9341 83.6785C70.6109 82.039 72.7691 81.7225 75.0651 81.3899C77.528 81.0309 80.076 80.6573 83.3858 78.5108C86.6092 76.423 87.7168 74.4757 89.1278 72.0099C90.3966 69.7931 91.9776 67.0283 95.6024 63.3082C98.7789 60.0438 101.119 58.4893 103.183 57.1164C105.421 55.6307 107.186 54.4571 109.19 51.6557C112.456 47.08 114.053 41.2969 113.941 34.4648H114.087C114.201 41.3277 112.594 47.1415 109.311 51.7422C107.294 54.5655 105.519 55.7465 103.27 57.2409C101.211 58.6094 98.8741 60.1596 95.7123 63.4122C92.1006 67.1235 90.5256 69.8751 89.2655 72.0846C87.8443 74.5666 86.722 76.5285 83.4752 78.6354C80.139 80.8024 77.5749 81.176 75.0958 81.5364C72.8204 81.8675 70.6725 82.1811 68.0205 83.806C62.5745 87.1334 58.9511 93.7823 57.2383 103.568Z" fill="white"/>
</g>
<g style="mix-blend-mode:soft-light">
<path d="M102.223 57.8535L102.251 57.7582C102.291 57.6205 106.241 43.927 101.069 38.4839L101.176 38.3828C102.686 39.9725 104.363 43.3116 103.769 50.1892C103.537 52.7288 103.086 55.2437 102.42 57.7055C108.255 57.6918 113.922 55.7476 118.537 52.1759C122.079 49.4478 123.874 46.6874 123.892 46.6596L124.016 46.7387C123.999 46.7665 122.192 49.546 118.632 52.2888C113.964 55.9049 108.225 57.8638 102.32 57.8564L102.223 57.8535Z" fill="white"/>
</g>
<g style="mix-blend-mode:soft-light">
<path d="M103.029 69.3851C102.281 69.3851 101.572 69.3602 100.909 69.3177C95.6991 68.9837 92.127 67.5449 92.0919 67.5302L92.0333 67.5068L92.0479 67.4438C93.7739 60.3157 91.73 50.3159 91.7095 50.2149L91.856 50.1855C91.8765 50.2852 93.9072 60.2601 92.2076 67.4159C92.6911 67.6035 96.1021 68.8621 100.925 69.1741C105.709 69.4804 112.902 68.8811 119.996 64.3186L120.077 64.4417C113.927 68.3961 107.709 69.3851 103.029 69.3851Z" fill="white"/>
</g>
<g style="mix-blend-mode:soft-light">
<path d="M96.9312 86.0759C84.5476 86.0759 77.3169 81.2115 77.2407 81.1587L77.1777 81.1148L77.2246 81.0533C82.3806 74.3325 79.944 63.5767 79.9191 63.4712L80.0656 63.4375C80.0905 63.5459 82.5271 74.3032 77.3931 81.0826C78.1902 81.5998 86.2574 86.5726 99.5026 85.862L99.5099 86.0085C98.6259 86.0544 97.7663 86.0768 96.9312 86.0759Z" fill="white"/>
</g>
</g>
<path d="M53.0874 98.6786C56.3831 96.1387 60.0215 94.0778 63.8945 92.5571C72.6855 89.1198 76.8261 90.8502 80.4715 86.9689C84.2458 82.9514 81.5982 79.2035 86.1256 74.701C86.5065 74.323 91.3724 69.6154 95.9598 71.1627C99.17 72.2469 100.519 75.8102 101.154 77.4819C103.612 83.9697 102.619 94.0091 95.7825 99.1665C89.2962 104.053 80.8231 102.097 78.1331 101.452C73.4123 100.328 72.246 98.5394 67.452 97.5387C61.622 96.3182 56.4544 97.5226 53.0874 98.6786Z" fill="url(#paint2_linear_4792_52)"/>
<path d="M53.0874 98.6786C56.3831 96.1387 60.0215 94.0778 63.8945 92.5571C72.6855 89.1198 76.8261 90.8502 80.4715 86.9689C84.2458 82.9514 81.5982 79.2035 86.1256 74.701C86.5065 74.323 91.3724 69.6154 95.9598 71.1627C99.17 72.2469 100.519 75.8102 101.154 77.4819C103.612 83.9697 102.619 94.0091 95.7825 99.1665C89.2962 104.053 80.8231 102.097 78.1331 101.452C73.4123 100.328 72.246 98.5394 67.452 97.5387C61.622 96.3182 56.4544 97.5226 53.0874 98.6786Z" fill="#A1EB2E"/>
<path d="M121.015 106.159L5.40088 105.16V108.117C5.40088 108.92 5.9049 109.601 6.58913 109.729L39.28 115.545C39.6667 115.614 40.0607 115.633 40.4522 115.601L119.756 108.962C120.464 108.902 121.013 108.218 121.013 107.393L121.015 106.159Z" fill="#BFC8D6"/>
<path d="M78.4687 101.427L4.98735 106.83C3.66869 106.927 2.60352 105.898 2.60352 104.531V49.8131C2.60352 48.446 3.67162 47.3398 4.98735 47.3398H78.4687C79.5514 47.3398 80.4276 48.3406 80.4276 49.5757V99.0399C80.4276 100.275 79.5514 101.34 78.4687 101.427Z" fill="#BFC8D6"/>
<path d="M79.6396 101.427L6.15825 106.83C4.83959 106.927 3.77441 105.898 3.77441 104.531V49.8131C3.77441 48.446 4.84399 47.3398 6.15825 47.3398H79.6396C80.7238 47.3398 81.5985 48.3406 81.5985 49.5757V99.0399C81.5985 100.275 80.7238 101.34 79.6396 101.427Z" fill="white"/>
<path d="M77.351 97.9325L8.90695 102.631C7.83591 102.705 6.96707 101.861 6.96707 100.746V52.8345C6.9584 52.3098 7.1574 51.8029 7.52074 51.4242C7.88407 51.0455 8.38231 50.8256 8.90695 50.8126L77.3466 50.5195C78.2404 50.5195 78.9583 51.3356 78.9583 52.351V95.9838C78.9671 96.9992 78.2448 97.8725 77.351 97.9325Z" fill="#D8DEE8"/>
<path d="M45.495 48.8361C45.4814 49.0007 45.42 49.1577 45.3186 49.288C45.2171 49.4183 45.0798 49.5162 44.9236 49.5697C44.7674 49.6233 44.599 49.6301 44.4389 49.5895C44.2788 49.5488 44.1341 49.4624 44.0224 49.3408C43.9106 49.2192 43.8368 49.0676 43.8098 48.9047C43.7828 48.7418 43.8038 48.5745 43.8704 48.4234C43.9369 48.2723 44.0461 48.1438 44.1844 48.0537C44.3228 47.9636 44.4845 47.9157 44.6496 47.916C44.8832 47.9274 45.1029 48.0304 45.2611 48.2026C45.4194 48.3748 45.5034 48.6024 45.495 48.8361Z" fill="white"/>
<g style="mix-blend-mode:soft-light" opacity="0.48">
<path d="M6.15825 106.83L79.2703 101.447L79.6425 101.421C80.1417 101.375 80.6046 101.141 80.9377 100.766C75.6763 100.473 72.4089 98.6106 70.3006 96.681C66.0677 92.807 66.8017 88.9859 62.2421 86.4394C56.5484 83.2629 52.0723 87.2878 47.7516 83.3157C45.123 80.9143 46.4153 79.1121 43.1919 75.5136C39.6213 71.5284 37.2976 72.8675 33.7093 69.2808C29.1673 64.7388 31.4427 61.215 27.5351 57.9594C22.7938 54.0034 17.6818 57.6664 13.1691 53.876C11.2233 52.2423 10.1552 49.8658 9.59847 47.3398H6.15825C4.83959 47.3398 3.77441 48.446 3.77441 49.8131V104.531C3.77881 105.898 4.84399 106.925 6.15825 106.83Z" fill="white"/>
</g>
<path d="M83.1019 101.12L5.40088 106.813L39.28 112.854C39.6667 112.923 40.0607 112.942 40.4522 112.91L121.013 106.17L84.3385 101.158C83.9287 101.102 83.5143 101.089 83.1019 101.12Z" fill="url(#paint3_linear_4792_52)"/>
<path d="M16.7383 106.863L81.4271 102.053L101.447 104.759L37.3166 109.902L16.7383 106.863Z" fill="#D8DEE8"/>
<g style="mix-blend-mode:multiply" opacity="0.3">
<path d="M55.7339 65.5964C53.5171 58.4786 46.3876 54.3688 39.8104 56.4171C33.2332 58.4654 29.7007 65.8968 31.9161 73.0161C34.1314 80.1353 41.2624 84.2437 47.8395 82.1954C54.4167 80.147 57.9522 72.7157 55.7339 65.5964ZM45.4235 74.2878L45.4689 76.2306L43.6023 76.2731L43.5612 74.4666C42.2836 74.4387 41.0367 74.1252 40.3042 73.7223L40.8228 71.4806C41.8045 71.9934 42.8976 72.2562 44.0052 72.2454C45.0909 72.2205 45.8235 71.7838 45.8059 71.022C45.7883 70.2982 45.1685 69.8498 43.7546 69.4103C41.7034 68.7714 40.288 67.8513 40.2456 66.0052C40.206 64.329 41.3562 62.9869 43.3854 62.5401L43.3385 60.7306L45.2052 60.6866L45.2433 62.3628C46.5209 62.3906 47.3839 62.6368 48.0271 62.9269L47.5157 65.0895C47.0161 64.8917 46.1297 64.4741 44.7583 64.5034C43.5202 64.5312 43.1334 65.0748 43.1466 65.6081C43.1612 66.2352 43.8382 66.6206 45.4704 67.192C47.756 67.9392 48.6937 68.9663 48.7333 70.6791C48.7729 72.3919 47.6051 73.8556 45.4235 74.2878Z" fill="#97A6B7"/>
</g>
<g style="mix-blend-mode:multiply" opacity="0.3">
<path d="M56.8178 91.7207C56.8165 92.1597 56.6484 92.5817 56.3475 92.9014C56.0466 93.2211 55.6355 93.4144 55.1974 93.4423L32.7026 94.6862C31.6301 94.7448 30.7378 93.9932 30.7378 93.0057V89.2753C30.7378 88.2878 31.6403 87.4614 32.7114 87.4292L55.1827 86.7435C55.3952 86.7348 55.6072 86.7693 55.806 86.8449C56.0048 86.9206 56.1861 87.0358 56.339 87.1837C56.4919 87.3315 56.6131 87.5088 56.6955 87.7049C56.7778 87.901 56.8194 88.1118 56.8178 88.3244V91.7207Z" fill="#97A6B7"/>
</g>
<path d="M88.4333 50.8089C88.4333 65.8254 76.6914 77.6376 61.6851 77.182C46.0664 76.697 32.9355 63.2086 32.9355 47.0697C32.9355 30.9309 46.0708 19.211 61.6895 20.8432C76.6914 22.3977 88.4333 35.7879 88.4333 50.8089Z" fill="url(#paint4_linear_4792_52)"/>
<path d="M92.489 49.5126C92.489 64.5292 80.7471 76.3414 65.7393 75.8857C50.1221 75.4051 36.9868 61.9168 36.9868 45.7764C36.9868 29.6361 50.1221 17.9118 65.7393 19.5396C80.7471 21.1015 92.489 34.4975 92.489 49.5126Z" fill="url(#paint5_linear_4792_52)"/>
<path d="M91.3112 49.4334C91.3112 63.7921 80.0762 75.0622 65.7395 74.5977C50.8475 74.1157 38.3408 61.2427 38.3408 45.8628C38.3408 30.4829 50.8446 19.2963 65.7395 20.823C80.0762 22.2911 91.3112 35.0791 91.3112 49.4334Z" fill="url(#paint6_linear_4792_52)"/>
<path d="M90.467 49.3775C90.467 63.26 79.5969 74.1477 65.7393 73.6817C51.3645 73.1997 39.3091 60.7662 39.3091 45.9299C39.3091 31.0936 51.3645 20.2894 65.7393 21.7399C79.5969 23.1435 90.467 35.4949 90.467 49.3775Z" fill="url(#paint7_linear_4792_52)"/>
<path d="M65.5985 26.4604C65.963 26.5034 66.2993 26.6777 66.5446 26.9505C66.79 27.2234 66.9276 27.5762 66.9319 27.9432V30.4999C68.4223 30.6669 69.9014 30.9233 71.3611 31.2676C72.4512 31.5245 73.5344 31.8293 74.6108 32.1819C74.9273 32.2873 75.1994 32.4956 75.3837 32.7736C75.568 33.0516 75.6539 33.3834 75.6277 33.7159L75.3141 36.9217C75.3 37.1166 75.2386 37.3052 75.1351 37.4709C75.0316 37.6367 74.8892 37.7746 74.7202 37.8728C74.5513 37.971 74.3609 38.0265 74.1656 38.0343C73.9704 38.0422 73.7762 38.0023 73.5998 37.918C72.8909 37.6016 72.1627 37.33 71.4197 37.1049C70.0831 36.7045 68.708 36.4467 67.3172 36.3357L66.9392 36.3049V43.6308C70.7867 44.7062 73.6116 46.1538 75.4372 47.975C77.2628 49.7962 78.1507 52.0496 78.1507 54.7529C78.1507 57.6832 77.1475 60.0338 75.1412 61.8047C73.1349 63.5756 70.2964 64.5729 66.6256 64.7966V67.6171C66.6286 67.7918 66.5958 67.9652 66.5294 68.1268C66.4629 68.2883 66.3642 68.4346 66.2392 68.5567C66.1143 68.6788 65.9657 68.7741 65.8026 68.8367C65.6396 68.8994 65.4654 68.9281 65.2909 68.9211H65.2674C64.9056 68.9012 64.5652 68.7437 64.3159 68.4808C64.0666 68.2179 63.9274 67.8695 63.9268 67.5072V64.7234L63.3319 64.697C61.678 64.6266 60.0303 64.4509 58.3987 64.171C57.2492 63.9723 56.1115 63.7107 54.9907 63.3871C54.6643 63.2966 54.3793 63.0957 54.1843 62.8187C53.9893 62.5416 53.8963 62.2056 53.9211 61.8677L54.2903 57.7492C54.3695 56.8583 55.2647 56.3397 56.1116 56.6737C57.0905 57.0606 58.0915 57.3894 59.1093 57.6583C60.679 58.0732 62.284 58.3411 63.9033 58.4583L63.9268 50.3178C60.2346 49.4035 57.4698 48.0497 55.6544 46.2578C53.8391 44.4659 52.9146 42.1553 52.9146 39.351C52.9146 36.4499 53.9045 34.2131 55.8845 32.6405C57.8522 31.0786 60.6507 30.2962 64.2594 30.2962V27.6941C64.2546 27.5216 64.2868 27.3501 64.3539 27.1911C64.4209 27.0321 64.5213 26.8894 64.6482 26.7725C64.7751 26.6556 64.9256 26.5672 65.0895 26.5134C65.2535 26.4596 65.427 26.4415 65.5985 26.4604ZM64.2594 36.2258C63.1185 36.3078 62.2291 36.6214 61.5913 37.1664C60.9535 37.7115 60.6345 38.444 60.6345 39.3642C60.6232 39.7689 60.6954 40.1717 60.8467 40.5473C60.9979 40.9229 61.225 41.2633 61.5136 41.5473C62.0997 42.1333 63.013 42.5993 64.2535 42.945L64.2594 36.2258ZM66.6256 50.9683V58.4407C67.8661 58.4407 68.818 58.1447 69.4813 57.5528C70.1445 56.9609 70.4756 56.1233 70.4746 55.04C70.4746 54.0525 70.167 53.233 69.5516 52.5815C68.9362 51.93 67.9609 51.3942 66.6256 50.9742V50.9683Z" fill="url(#paint8_linear_4792_52)"/>
<path style="mix-blend-mode:multiply" opacity="0.3" d="M61.2647 52.7823C62.1013 44.532 69.6835 41.039 68.6946 33.4421C68.085 28.7652 64.5393 24.8225 60.5834 21.7441C48.5865 23.0027 39.3091 32.9366 39.3091 45.9297C39.3091 60.7661 51.3645 73.1995 65.7393 73.6816C67.1041 73.7274 68.4703 73.6607 69.8242 73.4823C64.1159 67.8004 60.5482 59.865 61.2647 52.7823Z" fill="url(#paint9_linear_4792_52)"/>
<path d="M87.1468 32.2403V32.3575C86.1211 30.9568 84.2838 29.011 83.1908 27.8843C83.1703 27.8345 83.1351 27.7847 83.1161 27.7378C82.4328 26.1045 81.5871 24.5441 80.5916 23.08C79.4372 21.3875 78.0845 19.839 76.5624 18.4677C76.3719 18.2801 76.1507 18.1146 75.947 17.9373C75.843 17.8508 75.7389 17.7615 75.6334 17.675L75.4781 17.5431C75.4239 17.4992 75.3682 17.4596 75.314 17.4171L74.6576 16.9161L74.4935 16.79L74.3207 16.6728L73.9778 16.4369C73.5265 16.1102 73.0401 15.8274 72.5654 15.5285C72.3236 15.382 72.0701 15.2502 71.824 15.1124C71.7024 15.0436 71.5779 14.9732 71.4533 14.9058L71.0709 14.7154C69.0114 13.6785 66.8129 12.9446 64.5436 12.5366L63.6879 12.3901C63.3949 12.3506 63.1121 12.3257 62.8278 12.292L62.3971 12.2436L61.9649 12.2202L61.5253 12.1938C61.3788 12.1865 61.2323 12.1718 61.0945 12.1748H60.2316C60.1612 12.1748 60.085 12.1748 60.0191 12.1748L59.8272 12.185L59.4433 12.2055L59.0624 12.2246H58.9613L58.5701 12.2539L58.047 12.2905L57.6558 12.3198H57.5899H57.5664C57.5664 12.3198 57.4301 12.3198 57.6587 12.3198L56.8133 12.4443C56.6668 12.4663 56.5335 12.4795 56.3943 12.5103L55.9796 12.5938L55.565 12.6758L55.3584 12.7169C55.2895 12.7301 55.2221 12.7506 55.1547 12.7667C54.8837 12.8355 54.6126 12.9029 54.343 12.9733C54.2068 13.0026 54.0749 13.0495 53.943 13.089L53.5474 13.2136L53.1518 13.3322L52.765 13.4788C52.5072 13.5755 52.2493 13.6604 51.9988 13.763C51.7482 13.8656 51.4991 13.974 51.2515 14.0809C49.351 14.9219 47.5827 16.0344 46.0018 17.3834L45.7176 17.6208L45.448 17.8743C45.2692 18.0413 45.0846 18.201 44.9147 18.3724L44.8941 18.3929C44.563 18.7358 44.2275 19.0581 43.9301 19.4186C43.8509 19.505 43.7733 19.5929 43.6971 19.6808L43.5799 19.8098L43.4715 19.9475L43.0451 20.4852C43.0099 20.5292 42.9718 20.5717 42.9367 20.6171L42.8385 20.7548L42.6392 21.0288C42.5103 21.2134 42.3696 21.3834 42.2539 21.5738C41.3398 22.9222 40.5906 24.3753 40.0224 25.9019C39.5637 27.1518 39.2324 28.4448 39.0335 29.7612C39.0144 29.9077 38.9954 30.0542 38.9763 30.189C38.9573 30.3238 38.9324 30.4645 38.9265 30.6008C38.9045 30.8733 38.8825 31.1326 38.8606 31.3802C38.8386 31.6278 38.8459 31.874 38.8357 32.1011C38.8357 32.2154 38.8239 32.3267 38.8225 32.4337C38.821 32.5406 38.8298 32.6505 38.8313 32.7531C38.8313 32.9597 38.8313 33.1546 38.84 33.3392C38.8406 33.377 38.844 33.4147 38.8503 33.452L38.8635 33.5516C38.8635 33.6161 38.8781 33.6073 38.884 33.6659C38.8899 33.7245 38.8943 33.7392 38.8987 33.7392H48.5439L42.6832 40.2372L29.0571 55.138L9.57031 33.7465H19.8163C19.8423 33.6438 19.858 33.5387 19.8631 33.4329C19.9027 33.1399 19.9452 32.8469 19.9921 32.4923C20.0185 32.3165 20.0419 32.1524 20.0697 31.9634C20.0844 31.8711 20.0976 31.7832 20.1122 31.6864C20.1269 31.5897 20.1386 31.4886 20.1576 31.4051C20.2294 31.0506 20.3042 30.6725 20.3833 30.2784C20.4258 30.0806 20.4668 29.8784 20.5108 29.6704C20.5547 29.4623 20.6133 29.2513 20.669 29.0345C20.7803 28.6023 20.8888 28.1554 21.0236 27.6807C21.1584 27.206 21.3166 26.7342 21.4704 26.2331C21.5452 25.9811 21.6433 25.7335 21.7342 25.4771L22.0184 24.702C22.9036 22.3799 24.0203 20.1528 25.3517 18.0545C26.9056 15.6196 28.7431 13.3779 30.8256 11.3762C31.0908 11.1052 31.3838 10.8576 31.6666 10.5982L32.0959 10.2129L32.3142 10.0195L32.5369 9.83487L33.4424 9.09496L33.6709 8.91035L33.9083 8.73453L34.3859 8.38142C35.0116 7.90231 35.6841 7.47009 36.3522 7.02467C36.6892 6.80783 37.0379 6.60563 37.3778 6.39611L37.8979 6.0855L38.4342 5.79246C41.3437 4.20332 44.466 3.03937 47.7058 2.33612L48.9366 2.0929C49.3468 2.01671 49.7644 1.96397 50.1776 1.90097L50.7988 1.81306L51.4244 1.75152L52.0486 1.69145C52.2566 1.6724 52.4632 1.64896 52.6727 1.64163C53.0889 1.62258 53.5064 1.57277 53.924 1.55372C54.0266 1.55372 54.132 1.50977 54.2361 1.50977H54.5496L55.1723 1.54493L55.795 1.56544C56.0031 1.56544 56.2111 1.59328 56.4177 1.60354L57.6558 1.67826C57.9371 1.67826 57.7525 1.67826 57.8243 1.68705H57.8565H57.9224L58.0514 1.70463L58.3122 1.73687L58.8309 1.80133L59.0917 1.83357L59.2206 1.84968L59.3803 1.87166L60.0367 1.96836L60.6931 2.068L61.0184 2.11928C61.1253 2.13686 61.2206 2.1603 61.3231 2.18081C61.7231 2.26579 62.1231 2.35224 62.5231 2.43575C62.7224 2.47531 62.9187 2.53245 63.1092 2.58227L63.6952 2.73904L64.2813 2.89582L64.8674 3.07896C65.2512 3.2035 65.6366 3.32072 66.0131 3.45551L67.1369 3.87748C70.0083 5.01465 72.701 6.55914 75.1324 8.46347L75.5719 8.80339C75.7184 8.92061 75.8532 9.03929 75.9924 9.15943C76.2708 9.39679 76.5506 9.62535 76.8188 9.86857C77.3477 10.3653 77.8752 10.8414 78.3572 11.3572C78.4803 11.4832 78.6004 11.6107 78.7235 11.7352L78.9037 11.9227L79.0766 12.1176L79.7579 12.8942L79.9264 13.0876L80.0876 13.2868C80.1916 13.4201 80.2986 13.552 80.4026 13.6839C80.6106 13.9491 80.8289 14.2011 81.0165 14.4751C82.0314 15.8403 82.9367 17.2836 83.7241 18.7915C84.0875 19.4874 84.4113 20.1805 84.697 20.8647C85.494 22.7489 86.0997 24.7084 86.505 26.7137C86.5446 26.9364 86.5871 27.1532 86.6266 27.3701C86.6662 27.5869 86.7102 27.7935 86.7351 28.003C86.7907 28.4206 86.8464 28.8206 86.8977 29.2059C86.949 29.5912 86.9651 29.9649 86.9973 30.318C87.0105 30.4938 87.0281 30.6652 87.0383 30.8352C87.0486 31.0051 87.0794 31.1663 87.0867 31.3275C87.0955 31.6513 87.1468 31.9575 87.1468 32.2403Z" fill="url(#paint10_linear_4792_52)"/>
<path style="mix-blend-mode:multiply" opacity="0.4" d="M87.1472 32.2399V32.3572C86.1215 30.9565 84.2842 29.0107 83.1912 27.884C83.1707 27.8342 83.1355 27.7844 83.1165 27.7375C82.4332 26.1042 81.5875 24.5438 80.592 23.0797C79.4375 21.3871 78.0849 19.8387 76.5628 18.4673C76.3723 18.2798 76.151 18.1142 75.9474 17.9369C75.8434 17.8505 75.7393 17.7611 75.6338 17.6747L75.4785 17.5428C75.4243 17.4989 75.3686 17.4593 75.3144 17.4168L74.658 16.9157L74.4939 16.7897L74.321 16.6725L73.9782 16.4366C73.5269 16.1099 73.0405 15.8271 72.5658 15.5282C72.324 15.3817 72.0705 15.2498 71.8244 15.1121C71.7028 15.0432 71.5782 14.9729 71.4537 14.9055L71.0713 14.715C69.0118 13.6781 66.8133 12.9443 64.5439 12.5363L63.6883 12.3898C63.3953 12.3502 63.1125 12.3253 62.8282 12.2916L62.3975 12.2433L61.9653 12.2198L61.5257 12.1935C61.3792 12.1861 61.2327 12.1715 61.0949 12.1744H60.2319C60.1616 12.1744 60.0854 12.1744 60.0195 12.1744L59.8276 12.1847L59.4437 12.2052L59.0627 12.2242H58.9616L58.5704 12.2535L58.0474 12.2902L57.6562 12.3195H57.5902H57.5668C57.5668 12.3195 57.4305 12.3195 57.6591 12.3195L56.8137 12.444C56.6672 12.466 56.5339 12.4792 56.3947 12.5099L55.98 12.5935L55.5654 12.6755L55.3588 12.7165C55.2899 12.7297 55.2225 12.7502 55.1551 12.7663C54.8841 12.8352 54.613 12.9026 54.3434 12.9729C54.2072 13.0022 54.0753 13.0491 53.9434 13.0887L53.5478 13.2132L53.1522 13.3319L52.7654 13.4784C52.5076 13.5751 52.2497 13.6601 51.9991 13.7627C51.7486 13.8652 51.4995 13.9736 51.2519 14.0806C49.3514 14.9216 47.5831 16.034 46.0022 17.3831L45.718 17.6205L45.4484 17.8739C45.2696 18.041 45.085 18.2007 44.915 18.3721L44.8945 18.3926C49.2241 13.0389 56.232 9.56055 64.1528 9.56055C72.2625 9.56055 79.4257 13.2162 83.7245 18.7999C84.0879 19.4959 84.4117 20.1889 84.6974 20.8731C85.4944 22.7573 86.1001 24.7168 86.5054 26.7221C86.545 26.9448 86.5875 27.1617 86.627 27.3785C86.6666 27.5953 86.7105 27.8019 86.7354 28.0115C86.7911 28.429 86.8468 28.829 86.8981 29.2144C86.9494 29.5997 86.9655 29.9733 86.9977 30.3264C87.0109 30.5023 87.0285 30.6737 87.0387 30.8436C87.049 31.0136 87.0798 31.1748 87.0871 31.3359C87.0959 31.6509 87.1472 31.9572 87.1472 32.2399Z" fill="url(#paint11_linear_4792_52)"/>
<path d="M29.126 61.4104C28.8309 61.1808 28.6015 60.8776 28.4608 60.5313C28.2864 60.08 28.4095 59.8808 28.1897 59.5994C28.0428 59.4222 27.8448 59.2947 27.6226 59.2343C27.4005 59.174 27.1651 59.1838 26.9487 59.2624C26.8479 59.2994 26.7616 59.3677 26.7026 59.4573C26.5297 59.7503 26.915 60.2602 27.2227 60.5313C27.4557 60.7349 27.5509 60.7203 27.7971 60.8932C28.1443 61.1479 28.4158 61.4923 28.5824 61.8895L29.126 61.4104Z" fill="url(#paint12_linear_4792_52)"/>
<path d="M16.2241 58.9463C16.5846 58.8511 16.9135 58.6626 17.1779 58.3998C17.5149 58.054 17.4798 57.8137 17.7919 57.6481C17.9962 57.5425 18.2282 57.5026 18.4561 57.5338C18.684 57.565 18.8967 57.6658 19.0651 57.8225C19.1422 57.8963 19.1935 57.9928 19.2116 58.098C19.2585 58.4364 18.7032 58.7544 18.3149 58.8833C18.0219 58.98 17.9384 58.9287 17.6453 58.9932C17.2257 59.0913 16.8411 59.3026 16.5333 59.6042L16.2241 58.9463Z" fill="url(#paint13_linear_4792_52)"/>
<path d="M17.4575 59.3646C17.629 60.1807 16.7469 60.906 16.111 61.6181C14.8349 63.0481 13.4986 65.5975 13.9895 67.7864C14.2561 68.982 15.1162 70.2772 16.3338 70.8882C17.6392 71.5475 18.4216 70.9468 19.7784 71.7307C19.878 71.7878 21.5952 72.8061 21.645 74.1804C21.7065 75.8742 19.2157 77.6763 17.0825 77.8155C13.1822 78.0675 8.48336 72.8808 8.70167 67.7337C8.94049 62.1309 14.9609 57.6826 16.6927 58.4372C16.8799 58.527 17.0452 58.6565 17.1773 58.8167C17.3094 58.9768 17.405 59.1638 17.4575 59.3646Z" fill="url(#paint14_linear_4792_52)"/>
<path d="M17.4575 59.3646C17.629 60.1807 16.7469 60.906 16.111 61.6181C14.8349 63.0481 13.4986 65.5975 13.9895 67.7864C14.2561 68.982 15.1162 70.2772 16.3338 70.8882C17.6392 71.5475 18.4216 70.9468 19.7784 71.7307C19.878 71.7878 21.5952 72.8061 21.645 74.1804C21.7065 75.8742 19.2157 77.6763 17.0825 77.8155C13.1822 78.0675 8.48336 72.8808 8.70167 67.7337C8.94049 62.1309 14.9609 57.6826 16.6927 58.4372C16.8799 58.527 17.0452 58.6565 17.1773 58.8167C17.3094 58.9768 17.405 59.1638 17.4575 59.3646Z" fill="#A1EB2E"/>
<path d="M19.1921 117.383L19.3313 118.803L18.6705 118.683L18.2266 117.35L19.1921 117.383Z" fill="url(#paint15_linear_4792_52)"/>
<path d="M15.1646 91.1543C15.22 93.3217 15.4731 95.4796 15.9206 97.6011C16.3206 99.4955 16.555 99.8222 16.6795 101.132C16.9506 103.983 16.0319 104.391 15.8634 107.613C15.6774 111.171 16.6239 113.999 16.996 115.085C17.2585 115.847 17.5663 116.593 17.9176 117.318C18.2429 117.602 18.7425 117.494 19.2685 117.387C19.4619 114.163 19.7081 111.123 19.8971 107.895C20.5212 103.042 21.1459 98.1871 21.771 93.3315L15.1646 91.1543Z" fill="url(#paint16_linear_4792_52)"/>
<path style="mix-blend-mode:multiply" opacity="0.3" d="M19.2685 117.372C19.4619 114.149 19.7081 111.108 19.8971 107.881C20.5212 103.027 21.1459 98.1725 21.771 93.3169L15.1646 91.1543C15.1646 91.3213 15.1777 91.4825 15.1836 91.6451C18.2736 94.3293 18.8788 96.4538 18.8465 97.9044C18.8099 99.6626 17.8487 100.534 18.0363 103.084C18.1711 104.906 18.7191 105.229 18.7191 106.873C18.7191 108.991 17.8092 110.182 17.3667 111.406C16.9389 112.59 16.7806 114.264 17.6129 116.648C17.7213 116.894 17.8238 117.114 17.9161 117.303C18.2429 117.587 18.7425 117.479 19.2685 117.372Z" fill="url(#paint17_linear_4792_52)"/>
<path d="M18.9446 119.289C18.6325 118.901 18.3453 118.929 18.2926 118.666C18.2776 118.557 18.2967 118.446 18.3473 118.348C18.3979 118.25 18.4775 118.17 18.5753 118.118C18.8449 117.99 19.1614 118.206 19.2361 118.255C19.7255 118.589 19.5805 119.091 20.0435 119.32C20.1898 119.376 20.3241 119.46 20.439 119.566C20.505 119.631 20.6676 119.789 20.6266 119.896C20.5856 120.003 20.2837 120.007 20.0024 119.997C19.6654 119.985 19.4969 119.979 19.3372 119.875C19.116 119.73 19.1863 119.595 18.9446 119.289Z" fill="url(#paint18_linear_4792_52)"/>
<path d="M19.6097 107.144L18.3731 107.628L18.0127 107.061L18.9797 106.41L19.6097 107.144Z" fill="url(#paint19_linear_4792_52)"/>
<path d="M17.7228 107.928C17.7946 107.434 17.5763 107.242 17.7375 107.025C17.8074 106.94 17.902 106.879 18.0082 106.849C18.1144 106.82 18.2271 106.824 18.3308 106.861C18.6092 106.973 18.6664 107.355 18.6796 107.44C18.766 108.026 18.2986 108.261 18.4451 108.759C18.5021 108.905 18.5314 109.06 18.5316 109.217C18.5316 109.308 18.5228 109.535 18.4173 109.578C18.3118 109.62 18.1023 109.402 17.9191 109.188C17.6994 108.933 17.5895 108.806 17.5572 108.617C17.5148 108.353 17.6657 108.313 17.7228 107.928Z" fill="url(#paint20_linear_4792_52)"/>
<path d="M24.9594 88.9121C27.2627 93.6095 28.0451 97.5259 28.341 100.083C28.5315 101.728 28.5125 102.745 28.0392 103.766C26.3425 107.429 20.4203 107.665 19.5251 107.691L18.6372 105.873C19.1823 104.863 20.1331 103.461 21.7595 102.437C23.0107 101.65 23.5001 101.819 23.8107 101.29C25.0649 99.1683 18.2988 94.5735 19.3097 91.5157C19.6599 90.4579 21.0064 89.3839 24.9594 88.9121Z" fill="url(#paint21_linear_4792_52)"/>
<path d="M19.9687 72.0305C22.4595 72.4583 24.3525 72.9096 25.1979 74.2063C26.0917 75.5835 24.6704 76.6209 24.2851 79.6406C23.699 84.2662 26.3525 85.9936 25.5876 90.6514C25.4736 91.3362 25.3001 92.0098 25.069 92.6645C24.7085 93.6779 24.0154 94.5393 23.1027 95.1084C22.3204 95.6023 21.4848 96.0063 20.6119 96.3128C18.0874 97.1919 16.842 96.682 13.4472 96.8769C7.89276 97.1934 7.06201 98.8051 4.55217 97.8146C2.02035 96.8124 0.180096 94.1019 0.717814 92.9517C1.04015 92.2601 2.05698 92.6924 3.51336 91.8426C5.39171 90.7466 5.0767 89.2521 6.60048 87.9687C8.78945 86.1269 10.8949 87.9877 12.7674 86.3848C14.6399 84.7819 14.8875 80.8171 14.086 78.4729C13.56 76.9403 13.5513 75.2744 13.1601 73.7023C13.1127 73.512 13.1208 73.3122 13.1835 73.1264C13.4941 72.2239 15.1483 72.0495 16.3981 71.9309C17.5878 71.8148 18.7873 71.8483 19.9687 72.0305Z" fill="url(#paint22_linear_4792_52)"/>
<path d="M19.9687 72.0305C22.4595 72.4583 24.3525 72.9096 25.1979 74.2063C26.0917 75.5835 24.6704 76.6209 24.2851 79.6406C23.699 84.2662 26.3525 85.9936 25.5876 90.6514C25.4736 91.3362 25.3001 92.0098 25.069 92.6645C24.7085 93.6779 24.0154 94.5393 23.1027 95.1084C22.3204 95.6023 21.4848 96.0063 20.6119 96.3128C18.0874 97.1919 16.842 96.682 13.4472 96.8769C7.89276 97.1934 7.06201 98.8051 4.55217 97.8146C2.02035 96.8124 0.180096 94.1019 0.717814 92.9517C1.04015 92.2601 2.05698 92.6924 3.51336 91.8426C5.39171 90.7466 5.0767 89.2521 6.60048 87.9687C8.78945 86.1269 10.8949 87.9877 12.7674 86.3848C14.6399 84.7819 14.8875 80.8171 14.086 78.4729C13.56 76.9403 13.5513 75.2744 13.1601 73.7023C13.1127 73.512 13.1208 73.3122 13.1835 73.1264C13.4941 72.2239 15.1483 72.0495 16.3981 71.9309C17.5878 71.8148 18.7873 71.8483 19.9687 72.0305Z" fill="#A1EB2E"/>
<path style="mix-blend-mode:multiply" opacity="0.3" d="M4.84412 96.0601C5.61334 95.5473 5.19577 94.0939 6.33567 93.3232C7.39206 92.6067 8.21695 93.543 9.77443 93.0653C11.7729 92.4529 11.6689 90.5291 13.5839 89.9152C14.9597 89.4756 15.3758 90.3547 17.3611 90.3914C19.3464 90.428 21.9471 89.6104 23.5895 87.5079C24.2147 86.7033 24.659 85.7732 24.8921 84.7812C25.4225 86.494 25.9983 88.1511 25.588 90.6492C25.4426 91.5248 25.1999 92.3814 24.8642 93.203C24.6061 93.8369 24.1694 94.382 23.6071 94.7722C22.6833 95.4185 21.6757 95.9361 20.6123 96.3107C18.0878 97.1898 16.8424 96.6799 13.4476 96.8747C7.89315 97.1912 7.06239 98.8029 4.55255 97.8125C2.93207 97.178 1.60023 95.8389 0.995117 94.6565C3.18408 96.2521 4.28589 96.4308 4.84412 96.0601Z" fill="url(#paint23_linear_4792_52)"/>
<path d="M21.4064 67.7285C21.4064 67.7285 22.0921 69.0164 22.139 69.9263C22.1859 70.8361 21.1632 70.7629 21.1632 70.7629L21.2013 71.3328C21.217 71.5711 21.3015 71.7996 21.4446 71.9908C21.5876 72.1819 21.783 72.3275 22.0072 72.4097L22.4101 72.5563C22.4101 72.5563 19.7845 73.1189 18.3501 72.1064L18.7633 72.0654C19.0473 72.0378 19.313 71.9126 19.5152 71.7112C19.7174 71.5098 19.8436 71.2446 19.8724 70.9607L19.8973 70.7175C19.8973 70.7175 19.4373 67.8911 21.4064 67.7285Z" fill="url(#paint24_linear_4792_52)"/>
<path d="M27.8719 61.6661C27.4836 62.3987 28.1298 63.3437 28.5459 64.2053C29.3781 65.9312 29.9583 68.7473 28.8829 70.7194C28.2968 71.7949 27.1144 72.8 25.7796 73.0549C24.3438 73.3289 23.7577 72.5362 22.2369 72.9084C22.124 72.9362 20.1856 73.4417 19.7666 74.7486C19.2406 76.3603 21.138 78.7793 23.1496 79.5002C26.8287 80.8189 32.7773 77.1296 33.9919 72.1216C35.3106 66.6697 30.748 60.7343 28.8741 60.9863C28.6674 61.0191 28.4704 61.097 28.2972 61.2145C28.124 61.332 27.9788 61.4862 27.8719 61.6661Z" fill="url(#paint25_linear_4792_52)"/>
<path d="M27.8719 61.6661C27.4836 62.3987 28.1298 63.3437 28.5459 64.2053C29.3781 65.9312 29.9583 68.7473 28.8829 70.7194C28.2968 71.7949 27.1144 72.8 25.7796 73.0549C24.3438 73.3289 23.7577 72.5362 22.2369 72.9084C22.124 72.9362 20.1856 73.4417 19.7666 74.7486C19.2406 76.3603 21.138 78.7793 23.1496 79.5002C26.8287 80.8189 32.7773 77.1296 33.9919 72.1216C35.3106 66.6697 30.748 60.7343 28.8741 60.9863C28.6674 61.0191 28.4704 61.097 28.2972 61.2145C28.124 61.332 27.9788 61.4862 27.8719 61.6661Z" fill="#A1EB2E"/>
<path d="M20.9957 69.0029C20.8595 68.9912 20.7481 68.8198 20.6544 68.871C20.5606 68.9223 20.5679 69.1758 20.6544 69.3516C20.7092 69.4614 20.7947 69.553 20.9005 69.6153C20.7549 69.8127 20.6548 70.0399 20.6075 70.2805C20.4844 70.934 20.8316 71.4527 20.9752 71.7662C21.6258 73.1508 20.6148 75.3398 19.5101 76.446C18.6075 77.3441 18.1914 76.9837 17.6478 77.7177C16.5988 79.1463 18.0464 80.7155 17.5013 82.6392C16.6764 85.5696 12.0597 86.4326 11.8677 86.4663L11.6641 86.5C9.59231 86.8296 6.45392 87.3278 4.24297 85.6209C2.58879 84.3491 1.82983 82.1352 1.95583 80.1851C1.98807 79.6723 2.14338 77.7265 3.73016 76.1368C3.98217 75.8848 5.47225 74.3947 7.48686 74.3786C8.55497 74.3698 8.77035 74.7449 9.58645 74.5119C10.7029 74.194 11.3915 73.1786 11.8179 72.5486C12.6032 71.3897 12.2838 71.142 12.8435 70.5721C13.9497 69.4556 15.2493 70.3318 16.4317 69.3472C17.6141 68.3626 16.8933 67.0572 18.0185 66.2161C19.1789 65.3488 21.4001 65.6521 21.8734 66.685C22.2792 67.5817 21.4119 69.0381 20.9957 69.0029Z" fill="url(#paint26_linear_4792_52)"/>
<defs>
<linearGradient id="paint0_linear_4792_52" x1="94.7408" y1="31.3894" x2="73.9984" y2="64.7895" gradientUnits="userSpaceOnUse">
<stop stop-color="#E38DDD"/>
<stop offset="1" stop-color="#9571F6"/>
</linearGradient>
<linearGradient id="paint1_linear_4792_52" x1="98.4843" y1="43.7275" x2="79.2335" y2="101.164" gradientUnits="userSpaceOnUse">
<stop stop-color="#AA80F9"/>
<stop offset="1" stop-color="#6165D7"/>
</linearGradient>
<linearGradient id="paint2_linear_4792_52" x1="-8405.91" y1="14417.7" x2="-25374" y2="26270.7" gradientUnits="userSpaceOnUse">
<stop stop-color="#E38DDD"/>
<stop offset="1" stop-color="#9571F6"/>
</linearGradient>
<linearGradient id="paint3_linear_4792_52" x1="5.40088" y1="107.011" x2="121.015" y2="107.011" gradientUnits="userSpaceOnUse">
<stop offset="0.49" stop-color="#EBEFF2"/>
<stop offset="1" stop-color="white"/>
</linearGradient>
<linearGradient id="paint4_linear_4792_52" x1="51.1711" y1="51.9839" x2="18.8025" y2="62.372" gradientUnits="userSpaceOnUse">
<stop stop-color="#FCB148"/>
<stop offset="0.05" stop-color="#FDBA46"/>
<stop offset="0.14" stop-color="#FFC244"/>
<stop offset="0.32" stop-color="#FFC444"/>
<stop offset="0.48" stop-color="#FDB946"/>
<stop offset="0.78" stop-color="#F99C4D"/>
<stop offset="0.87" stop-color="#F8924F"/>
<stop offset="1" stop-color="#F8924F"/>
</linearGradient>
<linearGradient id="paint5_linear_4792_52" x1="77.3552" y1="19.7638" x2="48.4591" y2="83.5134" gradientUnits="userSpaceOnUse">
<stop stop-color="#FFDB44"/>
<stop offset="1" stop-color="#FEEF06"/>
</linearGradient>
<linearGradient id="paint6_linear_4792_52" x1="38859.8" y1="42627" x2="36772.6" y2="31429.2" gradientUnits="userSpaceOnUse">
<stop stop-color="#FCB148"/>
<stop offset="0.05" stop-color="#FDBA46"/>
<stop offset="0.14" stop-color="#FFC244"/>
<stop offset="0.32" stop-color="#FFC444"/>
<stop offset="0.48" stop-color="#FDB946"/>
<stop offset="0.78" stop-color="#F99C4D"/>
<stop offset="0.87" stop-color="#F8924F"/>
<stop offset="1" stop-color="#F8924F"/>
</linearGradient>
<linearGradient id="paint7_linear_4792_52" x1="33405" y1="23646.6" x2="41666.6" y2="40872.2" gradientUnits="userSpaceOnUse">
<stop stop-color="#FCB148"/>
<stop offset="0.05" stop-color="#FDBA46"/>
<stop offset="0.14" stop-color="#FFC244"/>
<stop offset="0.32" stop-color="#FFC444"/>
<stop offset="0.48" stop-color="#FDB946"/>
<stop offset="0.78" stop-color="#F99C4D"/>
<stop offset="0.87" stop-color="#F8924F"/>
<stop offset="1" stop-color="#F8924F"/>
</linearGradient>
<linearGradient id="paint8_linear_4792_52" x1="16354.4" y1="16246.6" x2="21378.8" y2="27435.9" gradientUnits="userSpaceOnUse">
<stop stop-color="#FFDB44"/>
<stop offset="1" stop-color="#FEEF06"/>
</linearGradient>
<linearGradient id="paint9_linear_4792_52" x1="18533.6" y1="24704.4" x2="28827.4" y2="37540" gradientUnits="userSpaceOnUse">
<stop stop-color="#FCB148"/>
<stop offset="0.05" stop-color="#FDBA46"/>
<stop offset="0.14" stop-color="#FFC244"/>
<stop offset="0.32" stop-color="#FFC444"/>
<stop offset="0.48" stop-color="#FDB946"/>
<stop offset="0.78" stop-color="#F99C4D"/>
<stop offset="0.87" stop-color="#F8924F"/>
<stop offset="1" stop-color="#F8924F"/>
</linearGradient>
<linearGradient id="paint10_linear_4792_52" x1="31.1318" y1="56.653" x2="69.3786" y2="4.23646" gradientUnits="userSpaceOnUse">
<stop stop-color="#6165D7"/>
<stop offset="1" stop-color="#AA80F9"/>
</linearGradient>
<linearGradient id="paint11_linear_4792_52" x1="28117.1" y1="9277.07" x2="29657.7" y2="5364.24" gradientUnits="userSpaceOnUse">
<stop stop-color="#6165D7"/>
<stop offset="1" stop-color="#AA80F9"/>
</linearGradient>
<linearGradient id="paint12_linear_4792_52" x1="293.337" y1="1688.37" x2="280.458" y2="1757.04" gradientUnits="userSpaceOnUse">
<stop stop-color="#FFC444"/>
<stop offset="1" stop-color="#F36F56"/>
</linearGradient>
<linearGradient id="paint13_linear_4792_52" x1="2899.35" y1="2032.52" x2="2884.18" y2="2084.88" gradientUnits="userSpaceOnUse">
<stop stop-color="#FFC444"/>
<stop offset="1" stop-color="#F36F56"/>
</linearGradient>
<linearGradient id="paint14_linear_4792_52" x1="8311.66" y1="12187.8" x2="8205.83" y2="16093.9" gradientUnits="userSpaceOnUse">
<stop stop-color="#FF9085"/>
<stop offset="1" stop-color="#FB6FBB"/>
</linearGradient>
<linearGradient id="paint15_linear_4792_52" x1="-324.21" y1="1585.22" x2="-319.36" y2="1447.72" gradientUnits="userSpaceOnUse">
<stop stop-color="#FFC444"/>
<stop offset="1" stop-color="#F36F56"/>
</linearGradient>
<linearGradient id="paint16_linear_4792_52" x1="18.332" y1="93.869" x2="16.3078" y2="119.212" gradientUnits="userSpaceOnUse">
<stop stop-color="#311944"/>
<stop offset="1" stop-color="#893976"/>
</linearGradient>
<linearGradient id="paint17_linear_4792_52" x1="-2172.04" y1="22626.1" x2="-2958.04" y2="27060.1" gradientUnits="userSpaceOnUse">
<stop stop-color="#311944"/>
<stop offset="1" stop-color="#893976"/>
</linearGradient>
<linearGradient id="paint18_linear_4792_52" x1="-687.702" y1="2087.46" x2="-709.715" y2="1983.38" gradientUnits="userSpaceOnUse">
<stop stop-color="#FF9085"/>
<stop offset="1" stop-color="#FB6FBB"/>
</linearGradient>
<linearGradient id="paint19_linear_4792_52" x1="1538.51" y1="1864.39" x2="1616.14" y2="1797.99" gradientUnits="userSpaceOnUse">
<stop stop-color="#FFC444"/>
<stop offset="1" stop-color="#F36F56"/>
</linearGradient>
<linearGradient id="paint20_linear_4792_52" x1="1202.58" y1="1252.14" x2="1231.61" y2="1128.84" gradientUnits="userSpaceOnUse">
<stop stop-color="#FF9085"/>
<stop offset="1" stop-color="#FB6FBB"/>
</linearGradient>
<linearGradient id="paint21_linear_4792_52" x1="58.773" y1="16442.1" x2="1647.35" y2="16404.4" gradientUnits="userSpaceOnUse">
<stop stop-color="#311944"/>
<stop offset="1" stop-color="#893976"/>
</linearGradient>
<linearGradient id="paint22_linear_4792_52" x1="1852.59" y1="16276.8" x2="751.062" y2="22414.5" gradientUnits="userSpaceOnUse">
<stop stop-color="#FF9085"/>
<stop offset="1" stop-color="#FB6FBB"/>
</linearGradient>
<linearGradient id="paint23_linear_4792_52" x1="-70090.5" y1="-1388.63" x2="-71251.2" y2="908.919" gradientUnits="userSpaceOnUse">
<stop stop-color="#FF9085"/>
<stop offset="1" stop-color="#FB6FBB"/>
</linearGradient>
<linearGradient id="paint24_linear_4792_52" x1="-1266.68" y1="3455.25" x2="-1368.04" y2="3579.54" gradientUnits="userSpaceOnUse">
<stop stop-color="#FFC444"/>
<stop offset="1" stop-color="#F36F56"/>
</linearGradient>
<linearGradient id="paint25_linear_4792_52" x1="2026.08" y1="12168" x2="1203.77" y2="15880.3" gradientUnits="userSpaceOnUse">
<stop stop-color="#FF9085"/>
<stop offset="1" stop-color="#FB6FBB"/>
</linearGradient>
<linearGradient id="paint26_linear_4792_52" x1="6.61747" y1="86.9382" x2="18.1185" y2="64.4612" gradientUnits="userSpaceOnUse">
<stop stop-color="#444B8C"/>
<stop offset="1" stop-color="#26264F"/>
</linearGradient>
</defs>
</svg>
