<svg width="121" height="120" viewBox="0 0 121 120" fill="none" xmlns="http://www.w3.org/2000/svg">
<path d="M52.0967 -0.0546598C36.637 0.203653 12.716 5.77541 5.83017 20.0938C3.42726 25.0948 3.58946 32.4462 3.91385 47.149C4.00997 51.4713 4.16916 57.7699 5.28351 65.5854C7.59781 81.8201 9.17472 92.8735 15.1385 99.3088C30.0846 115.434 84.072 114.968 107.123 85.9426C119.7 70.1059 121.634 47.5771 110.127 28.959C97.4743 8.45315 72.7948 -0.40158 52.0967 -0.0546598Z" fill="#F4F7FA"/>
<g opacity="0.5">
<path opacity="0.5" d="M86.9035 7.05102L31.0718 2.08C27.5455 1.76612 24.7641 3.85816 24.7972 6.74916L24.8152 8.42068C24.8452 11.3102 27.7197 13.8047 31.2415 13.9924L87.0101 16.954C89.3995 17.0802 91.1836 15.302 91.1656 12.9742L91.1551 11.6316C91.1316 10.4795 90.6854 9.37629 89.9015 8.53173C89.1176 7.68717 88.0506 7.16019 86.9035 7.05102Z" fill="url(#paint0_linear_4792_189)"/>
<path opacity="0.5" d="M116.029 30.4969C116.017 28.6242 114.642 27.0653 112.895 27.0142L73.639 25.8458C71.2646 25.7752 69.3302 27.5233 69.3498 29.7505L69.3603 30.985C69.3798 33.2122 71.3622 35.0144 73.7336 35.0099L112.942 34.9318C114.687 34.9318 116.049 33.4075 116.035 31.5362L116.029 30.4969Z" fill="url(#paint1_linear_4792_189)"/>
<path opacity="0.5" d="M108.367 59.6481C108.354 57.7198 106.834 56.2825 104.974 56.4417L62.976 60.0206C60.4229 60.2383 58.3204 62.2868 58.3459 64.5936L58.3564 65.8717C58.379 68.1769 60.4995 69.7989 63.0496 69.5016L105.03 64.5966C106.888 64.3788 108.388 62.6443 108.375 60.7159L108.367 59.6481Z" fill="url(#paint2_linear_4792_189)"/>
<path opacity="0.5" d="M73.9572 42.3555L12.1033 44.0495C8.1625 44.1577 4.96963 46.7228 5.00567 49.776L5.0267 51.5406C5.06274 54.5923 8.29766 56.8586 12.2354 56.6093L74.0684 52.7045C76.686 52.5378 78.7586 50.4428 78.739 48.0188L78.727 46.6177C78.709 44.1922 76.5794 42.2834 73.9572 42.3555Z" fill="url(#paint3_linear_4792_189)"/>
<path opacity="0.5" d="M106.727 18.6795C106.736 20.0311 105.695 21.0824 104.389 21.0148C103.082 20.9473 101.986 19.7683 101.971 18.3866C101.956 17.005 103.033 15.9582 104.353 16.0528C105.673 16.1474 106.718 17.3204 106.727 18.6795Z" fill="url(#paint4_linear_4792_189)"/>
<path opacity="0.5" d="M13.559 68.5661C13.58 70.3683 11.7343 72.0338 9.40946 72.2876C7.05461 72.5459 5.10225 71.2619 5.08123 69.4146C5.0602 67.5674 6.97651 65.8958 9.33287 65.6826C11.6592 65.4723 13.538 66.7639 13.559 68.5661Z" fill="url(#paint5_linear_4792_189)"/>
<path opacity="0.5" d="M99.4766 11.4176C97.8681 11.278 96.536 9.8152 96.524 8.16019C96.512 6.50519 97.8246 5.30673 99.433 5.47944C101.041 5.65215 102.311 7.11192 102.323 8.73239C102.335 10.3529 101.066 11.5558 99.4766 11.4176ZM99.4406 6.35951C98.3097 6.23786 97.3906 7.08489 97.3996 8.24579C97.41 8.8136 97.6254 9.35848 98.006 9.77995C98.3866 10.2014 98.9068 10.471 99.4706 10.5391C100.591 10.6397 101.488 9.78817 101.48 8.64829C101.473 7.5084 100.561 6.47815 99.4406 6.35951Z" fill="url(#paint6_linear_4792_189)"/>
<path opacity="0.5" d="M11.3316 31.0017L0.700195 30.9897L6.04519 23.8516L11.3316 31.0017ZM2.55795 30.1787L9.58046 30.2088L6.06471 25.475L2.55795 30.1787Z" fill="url(#paint7_linear_4792_189)"/>
<path opacity="0.5" d="M106.042 45.2066L112.78 44.5488L109.83 50.6552L106.042 45.2066Z" fill="url(#paint8_linear_4792_189)"/>
</g>
<path d="M102.041 26.4247C102.041 24.0112 100.439 21.9643 98.4251 21.8516L18.7896 17.3807C18.6935 17.3807 18.6019 17.3732 18.5072 17.3717C17.6692 17.3589 16.8405 17.5492 16.092 17.9264C15.3435 18.3035 14.6975 18.8562 14.209 19.5373C13.592 20.4161 13.2682 21.4673 13.2839 22.541V26.4697V88.139C13.2733 88.5044 13.3015 88.8699 13.368 89.2293C13.386 89.3164 13.392 89.402 13.4161 89.4876C13.503 89.8206 13.6264 90.1429 13.784 90.4488C14.1208 91.0878 14.5991 91.6414 15.1824 92.0674C15.7656 92.4935 16.4385 92.7807 17.1496 92.9073C17.694 93.0114 18.2512 93.0311 18.8016 92.9659L81.2353 85.5964L98.4266 83.5554C100.441 83.3167 102.043 81.1615 102.043 78.7496V29.5635L102.041 26.4247Z" fill="#B7C0CE"/>
<path d="M100.478 21.8568L20.8364 17.3859C17.7757 17.2147 15.2646 19.526 15.2646 22.5506V88.1397C15.2646 91.1658 17.7757 93.3209 20.8364 92.959L100.478 83.5471C102.49 83.3098 104.106 81.1622 104.106 78.7503V26.4253C104.106 24.0224 102.492 21.9694 100.478 21.8568Z" fill="white"/>
<path d="M20.8367 91.2315C18.7612 91.4688 17.0581 89.997 17.0581 87.9501V22.6284C17.0581 20.5814 18.7612 19.0045 20.8367 19.1127L100.478 23.2712C101.848 23.3418 102.956 24.7385 102.956 26.383V78.8716C102.956 80.5161 101.848 81.9818 100.478 82.138L20.8367 91.2315Z" fill="#F4F7FA"/>
<path d="M100.478 21.8568L20.8364 17.3859C17.7757 17.2147 15.2632 19.526 15.2632 22.5506V26.4794L104.106 29.5641V26.4253C104.106 24.0224 102.492 21.9694 100.478 21.8568Z" fill="#D8DEE8"/>
<path d="M25.1062 22.4625C25.1068 22.6912 25.0606 22.9177 24.9704 23.1279C24.8803 23.3381 24.7481 23.5277 24.582 23.685C24.4159 23.8422 24.2193 23.9638 24.0045 24.0423C23.7896 24.1209 23.561 24.1546 23.3326 24.1415C22.8562 24.1208 22.4057 23.9188 22.0734 23.5768C21.7412 23.2347 21.5523 22.7786 21.5454 22.3018C21.5447 22.0718 21.5913 21.8442 21.6823 21.633C21.7733 21.4218 21.9067 21.2315 22.0743 21.0741C22.2419 20.9166 22.4401 20.7953 22.6566 20.7177C22.873 20.64 23.1031 20.6077 23.3326 20.6227C23.8064 20.6474 24.2531 20.8511 24.5824 21.1927C24.9116 21.5342 25.0989 21.9881 25.1062 22.4625Z" fill="white"/>
<path d="M31.2171 22.7354C31.2188 22.9588 31.1748 23.1802 31.0879 23.3861C31.0011 23.592 30.8731 23.7779 30.7118 23.9326C30.5505 24.0873 30.3594 24.2074 30.15 24.2856C29.9407 24.3638 29.7176 24.3984 29.4944 24.3874C29.0285 24.3636 28.5892 24.1627 28.2664 23.8257C27.9437 23.4888 27.762 23.0412 27.7584 22.5747C27.7565 22.35 27.8009 22.1274 27.8886 21.9206C27.9763 21.7137 28.1055 21.5271 28.2682 21.3723C28.431 21.2174 28.6238 21.0976 28.8347 21.0203C29.0456 20.9429 29.2702 20.9097 29.4944 20.9227C29.958 20.9497 30.394 21.1521 30.7139 21.4887C31.0338 21.8253 31.2136 22.271 31.2171 22.7354Z" fill="white"/>
<path d="M37.1631 23.0025C37.167 23.2216 37.126 23.4392 37.0427 23.6419C36.9594 23.8445 36.8355 24.028 36.6787 24.1811C36.5219 24.3341 36.3354 24.4535 36.1307 24.5318C35.926 24.6101 35.7075 24.6457 35.4886 24.6365C35.0325 24.6104 34.6036 24.411 34.2898 24.079C33.976 23.747 33.8009 23.3076 33.8005 22.8508C33.7968 22.6306 33.8383 22.4119 33.9225 22.2084C34.0067 22.0049 34.1318 21.8208 34.2901 21.6676C34.4483 21.5144 34.6364 21.3953 34.8425 21.3178C35.0487 21.2403 35.2686 21.2059 35.4886 21.2168C35.9421 21.2465 36.3675 21.4475 36.6784 21.7791C36.9893 22.1106 37.1626 22.548 37.1631 23.0025Z" fill="white"/>
<path d="M99.8667 67.4377L21.7495 73.1026V37.125L99.8667 37.9555V67.4377Z" fill="url(#paint9_linear_4792_189)"/>
<path d="M99.8667 67.4377L21.7495 73.1026V37.125L99.8667 37.9555V67.4377Z" fill="#A1EB2E"/>
<path d="M99.8667 72.5244L21.7495 79.3111V76.5552L99.8667 70.2656V72.5244Z" fill="#D8DEE8"/>
<path d="M99.8667 78.0673L21.7495 86.075V83.3192L99.8667 75.8086V78.0673Z" fill="#D8DEE8"/>
<path d="M66.286 32.2455L21.7495 31.1582V33.9141L66.286 34.7175V32.2455Z" fill="#D8DEE8"/>
<path d="M95.9277 32.9707V35.2535L99.867 35.3256V33.0668L95.9277 32.9707Z" fill="#D8DEE8"/>
<g style="mix-blend-mode:soft-light" opacity="0.3">
<g style="mix-blend-mode:soft-light" opacity="0.3">
<path d="M71.9659 51.9788C62.8303 38.1441 46.3373 42.9033 35.4326 26.7633C33.603 24.0376 32.1501 21.0773 31.1134 17.9626L20.8364 17.3859C17.7757 17.2147 15.2646 19.526 15.2646 22.5506V88.1397C15.2646 91.1658 17.7757 93.3209 20.8364 92.959L83.2686 85.5806C81.4535 82.9126 79.9142 80.067 78.6745 77.0878C73.5067 64.6887 77.3454 60.1262 71.9659 51.9788Z" fill="white"/>
</g>
</g>
<path d="M54.8633 65.2461V42.3268C54.8633 40.8565 56.0167 39.8894 57.0094 40.5246L74.1887 51.4534C75.2264 52.1142 75.2264 54.1717 74.1887 54.8986L57.0094 66.9131C56.0167 67.61 54.8633 66.7164 54.8633 65.2461Z" fill="white"/>
<path d="M19.3167 80.315L25.2203 88.6366C18.5823 92.7246 12.1215 96.6804 5.48193 100.768C9.01271 105.528 12.5405 110.799 16.0728 115.558C21.9103 110.39 27.5707 104.843 33.4098 99.675L39.9907 108.249L49.1278 79.459L19.3167 80.315Z" fill="url(#paint10_linear_4792_189)"/>
<path d="M50.7801 78.5586L47.1757 88.3805L40.6278 106.278L35.062 98.7686C29.2229 103.936 23.5626 108.97 17.725 114.138C14.4691 109.75 11.1666 105.291 7.90311 100.892L7.07861 99.7793C13.7182 95.6914 20.1249 91.7085 26.763 87.6146L21.3069 80.2196L50.7801 78.5586Z" fill="url(#paint11_linear_4792_189)"/>
<path style="mix-blend-mode:multiply" opacity="0.3" d="M47.1829 88.3805L40.6275 106.278L35.0617 98.7686C29.2227 103.936 23.5623 108.97 17.7247 114.138C14.4688 109.75 11.1663 105.291 7.90283 100.892C10.1916 98.9999 13.7134 97.4124 18.7655 98.3571C29.2031 100.309 29.5786 98.4322 33.9339 95.1282C37.5352 92.4024 42.1638 87.0514 47.1829 88.3805Z" fill="url(#paint12_linear_4792_189)"/>
<path d="M76.168 51.3209C76.168 51.3209 74.8254 51.5086 74.5956 50.588C74.3658 49.6674 72.2738 49.8656 71.9284 49.8656C71.583 49.8656 73.1298 50.5309 73.4677 50.992C73.8057 51.453 75.1197 51.839 75.1197 51.839L76.168 51.3209Z" fill="url(#paint13_linear_4792_189)"/>
<path d="M74.4229 51.7017L75.5342 51.1445C77.3214 51.2947 82.408 51.9645 86.0965 56.0089C91.0525 61.4455 91.3829 70.6742 88.5985 72.2676C86.5726 73.427 82.0581 71.0316 80.9543 67.8207C80.0186 65.0979 82.1032 63.4429 81.7878 60.3116C81.57 58.1505 80.1808 55.0778 74.4229 51.7017Z" fill="url(#paint14_linear_4792_189)"/>
<path d="M57.3864 69.6776C57.3864 69.6776 57.472 68.0782 57.2182 67.6111C56.9644 67.1441 56.0498 67.1155 55.2778 66.7596L54.7342 64.7832C54.7342 64.7832 54.0689 66.1424 54.3092 67.1546C54.4353 67.6832 56.2856 68.3485 56.4853 68.6744C56.685 69.0003 56.4853 70.2018 56.4853 70.2018L57.3864 69.6776Z" fill="url(#paint15_linear_4792_189)"/>
<path d="M77.6642 64.8125L78.9333 66.5531L77.7048 67.5864L76.646 65.4207L77.6642 64.8125Z" fill="url(#paint16_linear_4792_189)"/>
<path d="M77.2989 65.7938C77.1742 65.7938 76.3572 66.1422 76.0148 65.7938C75.5523 65.3177 75.6649 64.3505 75.6649 64.2048C75.6649 63.6041 75.6949 63.4975 75.7715 63.3503L75.8842 63.1536L75.8992 63.1355C76.0606 62.9994 76.2406 62.8871 76.4338 62.8021C76.7012 62.7225 77.4851 63.553 78.1594 64.9738C78.197 65.0218 78.236 65.0684 78.2736 65.124C78.3742 65.2396 77.3199 65.8463 77.2989 65.7938Z" fill="url(#paint17_linear_4792_189)"/>
<path d="M75.0401 63.5194C75.2744 63.7251 75.776 63.7897 75.9998 63.8197C76.0857 63.8349 76.1688 63.8632 76.2461 63.9038C76.2646 63.9142 76.2817 63.9268 76.2971 63.9414C76.5374 64.1592 76.2821 64.7073 76.4293 64.7839C76.5359 64.838 76.7642 64.5631 76.8393 64.6202C76.9144 64.6773 76.7492 64.9521 76.8393 65.0167C76.9294 65.0813 77.018 64.9266 77.1652 64.9731C77.2388 64.9972 77.2463 65.0437 77.377 65.1654C77.4453 65.2313 77.5198 65.2906 77.5992 65.3426C77.8816 65.5123 78.3501 65.3771 78.3757 65.2329C78.3757 65.1924 78.3501 65.1804 78.3216 65.0737C78.3046 64.9979 78.2981 64.9201 78.3021 64.8425C78.3111 64.6517 78.4628 64.4355 78.5904 64.1697C78.8277 63.6786 78.8037 63.3812 78.7916 63.2836C78.791 63.2736 78.791 63.2636 78.7916 63.2536L78.7826 63.2055C78.7076 62.8691 78.3051 62.6904 78.1008 62.6168C77.669 62.4628 77.2163 62.3752 76.7582 62.357C76.599 62.357 75.0582 62.2999 74.8404 62.8856C74.7518 63.0944 74.8809 63.3797 75.0401 63.5194Z" fill="#26264F"/>
<path d="M76.5285 64.6006C76.554 64.3993 76.8123 64.4354 76.9129 64.6201C77.0135 64.8048 76.9399 65.0962 76.7462 65.1547C76.5525 65.2133 76.4924 64.8724 76.5285 64.6006Z" fill="url(#paint18_linear_4792_189)"/>
<path d="M89.8361 116.215L89.6529 118.37L88.8765 118.714L88.5791 116.433L89.8361 116.215Z" fill="url(#paint19_linear_4792_189)"/>
<path d="M89.9141 118.344L90.0643 119.068C90.0643 119.068 90.0192 119.381 88.3177 119.8C86.6161 120.219 86.3398 119.547 86.7483 119.433C87.1568 119.319 88.4288 118.714 88.4288 118.714L89.4936 118.145C89.5336 118.124 89.5779 118.112 89.623 118.111C89.6682 118.111 89.7129 118.12 89.7537 118.14C89.7945 118.159 89.8302 118.187 89.858 118.223C89.8858 118.259 89.9051 118.3 89.9141 118.344Z" fill="url(#paint20_linear_4792_189)"/>
<path d="M76.4504 114.988L77.2914 117.14L76.8379 117.729L75.1724 115.709L76.4504 114.988Z" fill="url(#paint21_linear_4792_189)"/>
<path d="M77.4328 116.953L77.9404 117.492C77.9404 117.492 78.0666 117.782 76.8411 119.033C75.6156 120.284 75.0239 119.859 75.3122 119.548C75.6006 119.237 76.3635 118.046 76.3635 118.046L76.9642 116.995C76.9891 116.957 77.0222 116.925 77.061 116.902C77.0998 116.879 77.1433 116.865 77.1884 116.861C77.2334 116.857 77.2788 116.863 77.3211 116.879C77.3634 116.895 77.4016 116.92 77.4328 116.953Z" fill="url(#paint22_linear_4792_189)"/>
<path d="M87.7517 89.4773C87.9018 90.7899 88.1541 92.7813 88.6527 95.1842C89.7716 100.607 90.9595 102.62 91.5062 105.715C91.9733 108.324 92.0739 112.188 90.1546 117.309L88.3118 117.459C88.2019 114.299 87.6494 111.17 86.6704 108.163C85.3758 104.237 83.1246 99.9525 81.5762 93.2949C81.2548 91.9118 80.9334 90.2913 81.8165 89.3392C83.3408 87.7142 87.2771 89.2821 87.7517 89.4773Z" fill="url(#paint23_linear_4792_189)"/>
<path style="mix-blend-mode:multiply" opacity="0.3" d="M81.8194 89.3519C83.3407 87.7089 87.277 89.2768 87.7516 89.472C87.8297 90.1824 87.9423 91.1 88.1075 92.1663C85.9058 95.1234 85.7632 97.0983 86.1341 98.4004C86.7078 100.414 88.567 101.072 88.6511 103.434C88.7067 105.016 87.9002 105.396 88.1721 106.97C88.4724 108.697 89.5342 108.751 89.9097 110.386C90.3167 112.163 89.2474 112.909 89.0702 115.12C89.0146 115.88 89.0723 116.644 89.2414 117.386L88.3147 117.464C88.2048 114.304 87.6523 111.175 86.6733 108.168C85.3787 104.242 83.1275 99.9577 81.5791 93.3002C81.2577 91.9305 80.9363 90.3131 81.8194 89.3519Z" fill="url(#paint24_linear_4792_189)"/>
<path d="M86.7936 87.9805C86.5965 89.6013 86.0935 91.1699 85.3113 92.6031C83.6068 95.6863 81.5898 96.1474 79.253 99.2847C77.9235 101.07 76.9422 103.089 76.3605 105.238C75.2341 109.613 76.3605 113.534 77.2375 115.751L75.5855 116.745C74.2519 115.082 71.9001 111.646 71.3534 106.807C70.224 96.8082 77.8263 89.8577 78.6913 89.0858L86.7936 87.9805Z" fill="url(#paint25_linear_4792_189)"/>
<path d="M83.317 64.4044C83.317 64.4044 84.4929 64.3714 85.7199 65.3055C89.0239 67.8151 89.7824 75.3587 89.7824 75.3587C90.1158 78.6492 90.2329 83.8665 88.5809 90.3138C87.3344 90.4205 85.1838 90.6142 82.473 90.9251C79.0308 91.317 77.924 91.5258 76.9839 90.8034C75.7118 89.8317 75.9146 88.0641 75.6322 85.5801C75.3904 83.4205 74.7311 80.2937 72.8163 76.5316C70.3443 79.0937 66.74 80.172 63.4149 79.2995C59.4606 78.2617 56.5396 74.6318 56.2798 70.3171C56.6432 70.1008 57.2785 69.6863 57.6434 69.4701C58.8914 70.5213 60.7717 72.1959 63.6507 72.5188C68.1712 73.0279 72.2456 70.4327 73.9592 69.3409C76.4657 67.743 79.13 66.4079 81.6891 64.8985C82.1799 64.5959 82.7408 64.4257 83.317 64.4044Z" fill="url(#paint26_linear_4792_189)"/>
<path style="mix-blend-mode:multiply" opacity="0.3" d="M80.0216 89.8977C80.337 89.8557 82.9397 89.4742 83.7372 87.6795C84.3529 86.2934 83.2416 85.5289 83.7972 83.9055C84.398 82.1438 85.9869 82.2159 86.5531 80.5489C87.0036 79.2063 86.1626 78.6266 85.8938 76.6547C85.4282 73.22 87.5893 71.9991 87.3956 69.0435C87.3355 68.1424 87.0457 66.9965 86.1671 65.6914C89.0927 68.5028 89.7895 75.3616 89.7895 75.3616C90.1229 78.6521 90.2401 83.8694 88.588 90.3167C87.3415 90.4234 85.1909 90.6171 82.4801 90.928C79.0379 91.32 77.9311 91.5287 76.991 90.8063C76.3902 90.3453 76.1184 89.704 75.9697 88.8945C77.0375 89.5688 78.4282 90.1095 80.0216 89.8977Z" fill="url(#paint27_linear_4792_189)"/>
<path d="M120.041 97.6742C119.356 97.1201 117.555 97.868 116.456 99.0649C114.903 100.76 115.169 102.905 113.954 103.32C113.696 103.406 113.418 103.407 113.16 103.321C112.902 103.236 112.678 103.069 112.523 102.847C111.931 101.881 113.185 99.8294 114.037 98.7586C115.914 96.3977 117.476 96.7611 118.255 95.022C118.841 93.7124 118.706 91.8051 117.572 90.9266C116.645 90.2132 115.113 90.2252 114.118 90.9626C112.146 92.4299 112.916 96.3301 111.922 96.5734C111.472 96.6845 110.965 95.9532 110.752 95.372C110.318 94.19 110.877 93.0321 111.503 91.4237C112.801 88.1197 113.43 86.5232 112.961 85.3743C112.511 84.2555 111.201 83.5181 109.89 83.5436C108.388 83.5736 106.786 84.6159 106.293 85.9C105.653 87.576 107.345 88.4365 107.082 91.5799C107.046 92.0049 106.862 93.783 106.256 93.9542C105.738 94.1044 105.14 93.0051 104.852 92.4749C103.908 90.7448 104.32 89.8813 103.581 89.2535C102.762 88.5582 101.083 88.6213 100.103 89.3917C98.6325 90.5481 98.8292 93.2319 99.4525 94.8809C100.875 98.6354 105.236 99.0965 104.785 100.9C104.611 101.602 103.788 102.223 103.163 102.3C102.539 102.376 102.222 101.921 100.84 100.465C99.1761 98.7105 98.8878 98.5318 98.5033 98.5828C97.6172 98.703 96.5645 100.062 96.3512 101.324C95.9727 103.555 98.1804 105.691 100.384 106.499C102.555 107.296 104.405 106.688 105.014 108.074C105.222 108.55 105.295 109.276 104.958 109.717C104.279 110.603 102.22 109.929 101.821 109.798C99.6612 109.091 99.1791 107.744 98.1414 108.131C97.4355 108.396 96.7897 109.343 96.6816 110.156C96.3888 112.362 99.9976 113.964 102.539 114.361C104.879 114.718 107.044 114.16 108.644 113.503C115.513 109.977 118.042 105.616 118.985 103.566C119.763 101.905 121.01 98.4582 120.041 97.6742Z" fill="url(#paint28_linear_4792_189)"/>
<path opacity="0.5" d="M109.054 112.479C108.486 110.904 108.153 108.21 108.1 104.892C108.06 102.088 108.232 99.1012 108.551 97.0992C109.127 93.5024 109.093 88.4352 109.093 88.3887H109.393C109.393 88.4397 109.428 93.5324 108.848 97.1533C107.908 103.01 108.507 110.091 109.333 112.383L109.054 112.479Z" fill="white"/>
<path d="M114.894 107.4C114.187 107.382 113.924 108.263 112.288 109.381C111.608 109.846 110.575 110.552 110.118 110.186C109.798 109.929 109.857 109.221 110.005 108.735C110.406 107.422 111.585 107.332 112.764 105.955C113.665 104.904 114.619 103.028 114.05 101.998C113.647 101.266 112.491 100.972 111.778 101.409C111.135 101.802 111.312 102.507 110.488 103.635C109.854 104.5 108.735 105.476 108.173 105.216C107.682 104.991 107.685 103.842 107.91 102.986C108.411 101.083 109.963 100.826 110.343 99.1517C110.576 98.1215 110.289 96.872 109.576 96.5986C108.754 96.2848 107.371 97.27 106.691 98.4008C105.716 100.012 106.527 101.323 105.465 102.351C104.946 102.854 104.136 103.139 103.735 102.87C103.255 102.549 103.468 101.511 103.657 100.631C104.16 98.2897 105.08 97.7776 105.019 96.5761C104.959 95.4032 103.988 94.2498 102.974 94.2618C101.39 94.2813 99.8066 97.1693 99.1548 98.9865C97.8032 102.741 98.9641 106.024 99.5678 107.736C100.452 110.255 101.962 112.508 103.956 114.283C104.472 114.744 105.097 115.066 105.771 115.219C106.446 115.372 107.148 115.351 107.813 115.158C110.009 114.537 112.077 113.528 113.919 112.18C116.022 110.624 116.25 109.735 116.259 109.235C116.276 108.34 115.609 107.416 114.894 107.4Z" fill="url(#paint29_linear_4792_189)"/>
<defs>
<linearGradient id="paint0_linear_4792_189" x1="100816" y1="4062.6" x2="130146" y2="4062.6" gradientUnits="userSpaceOnUse">
<stop stop-color="#E38DDD"/>
<stop offset="1" stop-color="#9571F6"/>
</linearGradient>
<linearGradient id="paint1_linear_4792_189" x1="84819.1" y1="3799.1" x2="99331.9" y2="3799.1" gradientUnits="userSpaceOnUse">
<stop stop-color="#E38DDD"/>
<stop offset="1" stop-color="#9571F6"/>
</linearGradient>
<linearGradient id="paint2_linear_4792_189" x1="87211.2" y1="8293.27" x2="103877" y2="8293.27" gradientUnits="userSpaceOnUse">
<stop stop-color="#E38DDD"/>
<stop offset="1" stop-color="#9571F6"/>
</linearGradient>
<linearGradient id="paint3_linear_4792_189" x1="102266" y1="7730.45" x2="138466" y2="7730.45" gradientUnits="userSpaceOnUse">
<stop stop-color="#E38DDD"/>
<stop offset="1" stop-color="#9571F6"/>
</linearGradient>
<linearGradient id="paint4_linear_4792_189" x1="9769.65" y1="1668.62" x2="9920.29" y2="1668.62" gradientUnits="userSpaceOnUse">
<stop stop-color="#E38DDD"/>
<stop offset="1" stop-color="#9571F6"/>
</linearGradient>
<linearGradient id="paint5_linear_4792_189" x1="11767.5" y1="4517.74" x2="12246" y2="4517.74" gradientUnits="userSpaceOnUse">
<stop stop-color="#E38DDD"/>
<stop offset="1" stop-color="#9571F6"/>
</linearGradient>
<linearGradient id="paint6_linear_4792_189" x1="11672.2" y1="1588.06" x2="11896.1" y2="1588.06" gradientUnits="userSpaceOnUse">
<stop stop-color="#E38DDD"/>
<stop offset="1" stop-color="#9571F6"/>
</linearGradient>
<linearGradient id="paint7_linear_4792_189" x1="14440.4" y1="2824.43" x2="15193" y2="2824.43" gradientUnits="userSpaceOnUse">
<stop stop-color="#E38DDD"/>
<stop offset="1" stop-color="#9571F6"/>
</linearGradient>
<linearGradient id="paint8_linear_4792_189" x1="24872.4" y1="10360.8" x2="25128.4" y2="10455.8" gradientUnits="userSpaceOnUse">
<stop stop-color="#E38DDD"/>
<stop offset="1" stop-color="#9571F6"/>
</linearGradient>
<linearGradient id="paint9_linear_4792_189" x1="98907.2" y1="13613.3" x2="139540" y2="13613.3" gradientUnits="userSpaceOnUse">
<stop stop-color="#FF9085"/>
<stop offset="1" stop-color="#FB6FBB"/>
</linearGradient>
<linearGradient id="paint10_linear_4792_189" x1="68916.2" y1="21069.7" x2="67303.3" y2="31272.4" gradientUnits="userSpaceOnUse">
<stop stop-color="#AA80F9"/>
<stop offset="1" stop-color="#6165D7"/>
</linearGradient>
<linearGradient id="paint11_linear_4792_189" x1="62501.9" y1="28341.2" x2="71165.5" y2="32290.3" gradientUnits="userSpaceOnUse">
<stop stop-color="#E38DDD"/>
<stop offset="1" stop-color="#9571F6"/>
</linearGradient>
<linearGradient id="paint12_linear_4792_189" x1="55242.4" y1="23006.3" x2="65516.1" y2="23006.3" gradientUnits="userSpaceOnUse">
<stop stop-color="#E38DDD"/>
<stop offset="1" stop-color="#9571F6"/>
</linearGradient>
<linearGradient id="paint13_linear_4792_189" x1="8006.12" y1="1124.89" x2="7997.11" y2="1161.79" gradientUnits="userSpaceOnUse">
<stop stop-color="#FFC444"/>
<stop offset="1" stop-color="#F36F56"/>
</linearGradient>
<linearGradient id="paint14_linear_4792_189" x1="30812.7" y1="14841.3" x2="33758.7" y2="22142.5" gradientUnits="userSpaceOnUse">
<stop stop-color="#444B8C"/>
<stop offset="1" stop-color="#26264F"/>
</linearGradient>
<linearGradient id="paint15_linear_4792_189" x1="11211.1" y1="6022.16" x2="11008.9" y2="6161" gradientUnits="userSpaceOnUse">
<stop stop-color="#FFC444"/>
<stop offset="1" stop-color="#F36F56"/>
</linearGradient>
<linearGradient id="paint16_linear_4792_189" x1="2724.35" y1="1822.34" x2="2818.13" y2="1877.45" gradientUnits="userSpaceOnUse">
<stop stop-color="#FFC444"/>
<stop offset="1" stop-color="#F36F56"/>
</linearGradient>
<linearGradient id="paint17_linear_4792_189" x1="12209.8" y1="1036.08" x2="12148.4" y2="1145" gradientUnits="userSpaceOnUse">
<stop stop-color="#FFC444"/>
<stop offset="1" stop-color="#F36F56"/>
</linearGradient>
<linearGradient id="paint18_linear_4792_189" x1="1956.67" y1="545.232" x2="1943.66" y2="563.192" gradientUnits="userSpaceOnUse">
<stop stop-color="#FFC444"/>
<stop offset="1" stop-color="#F36F56"/>
</linearGradient>
<linearGradient id="paint19_linear_4792_189" x1="1423.32" y1="2538.08" x2="1451.28" y2="2633.81" gradientUnits="userSpaceOnUse">
<stop stop-color="#FFC444"/>
<stop offset="1" stop-color="#F36F56"/>
</linearGradient>
<linearGradient id="paint20_linear_4792_189" x1="4611.52" y1="1945.33" x2="4530.72" y2="1945.33" gradientUnits="userSpaceOnUse">
<stop stop-color="#311944"/>
<stop offset="1" stop-color="#893976"/>
</linearGradient>
<linearGradient id="paint21_linear_4792_189" x1="2488.97" y1="2744.21" x2="2520.9" y2="2892.46" gradientUnits="userSpaceOnUse">
<stop stop-color="#FFC444"/>
<stop offset="1" stop-color="#F36F56"/>
</linearGradient>
<linearGradient id="paint22_linear_4792_189" x1="3280.2" y1="3125.55" x2="3231.51" y2="3125.55" gradientUnits="userSpaceOnUse">
<stop stop-color="#311944"/>
<stop offset="1" stop-color="#893976"/>
</linearGradient>
<linearGradient id="paint23_linear_4792_189" x1="15291.2" y1="24989.2" x2="14204.5" y2="25173.3" gradientUnits="userSpaceOnUse">
<stop stop-color="#FFC444"/>
<stop offset="1" stop-color="#F36F56"/>
</linearGradient>
<linearGradient id="paint24_linear_4792_189" x1="12618.3" y1="24966.3" x2="11708.5" y2="25094.2" gradientUnits="userSpaceOnUse">
<stop stop-color="#FFC444"/>
<stop offset="1" stop-color="#F36F56"/>
</linearGradient>
<linearGradient id="paint25_linear_4792_189" x1="20218.8" y1="23545.9" x2="22691.6" y2="25249.1" gradientUnits="userSpaceOnUse">
<stop stop-color="#FFC444"/>
<stop offset="1" stop-color="#F36F56"/>
</linearGradient>
<linearGradient id="paint26_linear_4792_189" x1="62302" y1="19283.3" x2="64721.9" y2="29399.4" gradientUnits="userSpaceOnUse">
<stop stop-color="#444B8C"/>
<stop offset="1" stop-color="#26264F"/>
</linearGradient>
<linearGradient id="paint27_linear_4792_189" x1="17780.7" y1="15862" x2="21840.9" y2="18642.8" gradientUnits="userSpaceOnUse">
<stop stop-color="#444B8C"/>
<stop offset="1" stop-color="#26264F"/>
</linearGradient>
<linearGradient id="paint28_linear_4792_189" x1="51651.8" y1="22983.5" x2="48429.3" y2="27772.4" gradientUnits="userSpaceOnUse">
<stop stop-color="#AA80F9"/>
<stop offset="1" stop-color="#6165D7"/>
</linearGradient>
<linearGradient id="paint29_linear_4792_189" x1="37371.1" y1="18267.4" x2="35055.7" y2="20604.6" gradientUnits="userSpaceOnUse">
<stop stop-color="#FF9085"/>
<stop offset="1" stop-color="#FB6FBB"/>
</linearGradient>
</defs>
</svg>
